%TF.GenerationSoftware,KiCad,Pcbnew,7.0.9*%
%TF.CreationDate,2024-10-07T22:18:30-04:00*%
%TF.ProjectId,ESP32_VP,45535033-325f-4565-902e-6b696361645f,rev?*%
%TF.SameCoordinates,Original*%
%TF.FileFunction,Drillmap*%
%TF.FilePolarity,Positive*%
%FSLAX45Y45*%
G04 Gerber Fmt 4.5, Leading zero omitted, Abs format (unit mm)*
G04 Created by KiCad (PCBNEW 7.0.9) date 2024-10-07 22:18:30*
%MOMM*%
%LPD*%
G01*
G04 APERTURE LIST*
%ADD10C,0.100000*%
%ADD11C,0.050000*%
%ADD12C,0.200000*%
%ADD13C,0.104998*%
G04 APERTURE END LIST*
D10*
X6350000Y-8740140D02*
X12954000Y-8740140D01*
X12954000Y-13766800D01*
X6350000Y-13766800D01*
X6350000Y-8740140D01*
D11*
X11385420Y-11104880D02*
X7918580Y-11104880D01*
X11454000Y-11173460D02*
G75*
G03*
X11385420Y-11104880I-68580J0D01*
G01*
X7918580Y-11104880D02*
G75*
G03*
X7850000Y-11173460I0J-68580D01*
G01*
X7918580Y-11405000D02*
X11385420Y-11404580D01*
X7850000Y-11173460D02*
X7850000Y-11336420D01*
X11454000Y-11336000D02*
X11454000Y-11173460D01*
X11385420Y-11404580D02*
G75*
G03*
X11454000Y-11336000I0J68580D01*
G01*
X7850000Y-11336420D02*
G75*
G03*
X7918580Y-11405000I68580J0D01*
G01*
D12*
D10*
X6471920Y-12344400D02*
X6502400Y-12374880D01*
X6502400Y-12344400D02*
X6471920Y-12374880D01*
X6477000Y-12786360D02*
X6507480Y-12816840D01*
X6507480Y-12786360D02*
X6477000Y-12816840D01*
X6631940Y-11996420D02*
X6662420Y-12026900D01*
X6662420Y-11996420D02*
X6631940Y-12026900D01*
X6682740Y-13192760D02*
X6713220Y-13223240D01*
X6713220Y-13192760D02*
X6682740Y-13223240D01*
X6746240Y-13360400D02*
X6776720Y-13390880D01*
X6776720Y-13360400D02*
X6746240Y-13390880D01*
X6751320Y-10695940D02*
X6781800Y-10726420D01*
X6781800Y-10695940D02*
X6751320Y-10726420D01*
X6812280Y-13068300D02*
X6842760Y-13098780D01*
X6842760Y-13068300D02*
X6812280Y-13098780D01*
X6812280Y-13180060D02*
X6842760Y-13210540D01*
X6842760Y-13180060D02*
X6812280Y-13210540D01*
X6856790Y-12722860D02*
X6887270Y-12753340D01*
X6887270Y-12722860D02*
X6856790Y-12753340D01*
X6878320Y-9580880D02*
X6908800Y-9611360D01*
X6908800Y-9580880D02*
X6878320Y-9611360D01*
X6892194Y-10220920D02*
X6922674Y-10251400D01*
X6922674Y-10220920D02*
X6892194Y-10251400D01*
X6962140Y-12885420D02*
X6992620Y-12915900D01*
X6992620Y-12885420D02*
X6962140Y-12915900D01*
X7020560Y-11953240D02*
X7051040Y-11983720D01*
X7051040Y-11953240D02*
X7020560Y-11983720D01*
X7045814Y-10457031D02*
X7076294Y-10487511D01*
X7076294Y-10457031D02*
X7045814Y-10487511D01*
X7073900Y-12809220D02*
X7104380Y-12839700D01*
X7104380Y-12809220D02*
X7073900Y-12839700D01*
X7104184Y-10548250D02*
X7134664Y-10578730D01*
X7134664Y-10548250D02*
X7104184Y-10578730D01*
X7132993Y-12280505D02*
X7163473Y-12310985D01*
X7163473Y-12280505D02*
X7132993Y-12310985D01*
X7145020Y-11968480D02*
X7175500Y-11998960D01*
X7175500Y-11968480D02*
X7145020Y-11998960D01*
X7167880Y-12481560D02*
X7198360Y-12512040D01*
X7198360Y-12481560D02*
X7167880Y-12512040D01*
X7175500Y-12589510D02*
X7205980Y-12619990D01*
X7205980Y-12589510D02*
X7175500Y-12619990D01*
X7226300Y-12783820D02*
X7256780Y-12814300D01*
X7256780Y-12783820D02*
X7226300Y-12814300D01*
X7297420Y-9860280D02*
X7327900Y-9890760D01*
X7327900Y-9860280D02*
X7297420Y-9890760D01*
X7297420Y-9944100D02*
X7327900Y-9974580D01*
X7327900Y-9944100D02*
X7297420Y-9974580D01*
X7302500Y-10138480D02*
X7332980Y-10168960D01*
X7332980Y-10138480D02*
X7302500Y-10168960D01*
X7310120Y-9687560D02*
X7340600Y-9718040D01*
X7340600Y-9687560D02*
X7310120Y-9718040D01*
X7322820Y-10249080D02*
X7353300Y-10279560D01*
X7353300Y-10249080D02*
X7322820Y-10279560D01*
X7376160Y-9451340D02*
X7406640Y-9481820D01*
X7406640Y-9451340D02*
X7376160Y-9481820D01*
X7388860Y-12293600D02*
X7419340Y-12324080D01*
X7419340Y-12293600D02*
X7388860Y-12324080D01*
X7452360Y-12885420D02*
X7482840Y-12915900D01*
X7482840Y-12885420D02*
X7452360Y-12915900D01*
X7528560Y-9479280D02*
X7559040Y-9509760D01*
X7559040Y-9479280D02*
X7528560Y-9509760D01*
X7569200Y-12608510D02*
X7599680Y-12638990D01*
X7599680Y-12608510D02*
X7569200Y-12638990D01*
X7579360Y-12435840D02*
X7609840Y-12466320D01*
X7609840Y-12435840D02*
X7579360Y-12466320D01*
X7589520Y-12895580D02*
X7620000Y-12926060D01*
X7620000Y-12895580D02*
X7589520Y-12926060D01*
X7617460Y-10035540D02*
X7647940Y-10066020D01*
X7647940Y-10035540D02*
X7617460Y-10066020D01*
X7627620Y-9766300D02*
X7658100Y-9796780D01*
X7658100Y-9766300D02*
X7627620Y-9796780D01*
X7680960Y-13268960D02*
X7711440Y-13299440D01*
X7711440Y-13268960D02*
X7680960Y-13299440D01*
X7693660Y-10637520D02*
X7724140Y-10668000D01*
X7724140Y-10637520D02*
X7693660Y-10668000D01*
X7843160Y-13268960D02*
X7873640Y-13299440D01*
X7873640Y-13268960D02*
X7843160Y-13299440D01*
X7848240Y-10642600D02*
X7878720Y-10673080D01*
X7878720Y-10642600D02*
X7848240Y-10673080D01*
X8039100Y-10428230D02*
X8069580Y-10458710D01*
X8069580Y-10428230D02*
X8039100Y-10458710D01*
X8055118Y-12446095D02*
X8085598Y-12476575D01*
X8085598Y-12446095D02*
X8055118Y-12476575D01*
X8100060Y-12697460D02*
X8130540Y-12727940D01*
X8130540Y-12697460D02*
X8100060Y-12727940D01*
X8133080Y-9773920D02*
X8163560Y-9804400D01*
X8163560Y-9773920D02*
X8133080Y-9804400D01*
X8145780Y-10030460D02*
X8176260Y-10060940D01*
X8176260Y-10030460D02*
X8145780Y-10060940D01*
X8536940Y-10025380D02*
X8567420Y-10055860D01*
X8567420Y-10025380D02*
X8536940Y-10055860D01*
X8618220Y-9603740D02*
X8648700Y-9634220D01*
X8648700Y-9603740D02*
X8618220Y-9634220D01*
X8620760Y-12151360D02*
X8651240Y-12181840D01*
X8651240Y-12151360D02*
X8620760Y-12181840D01*
X8717280Y-9789160D02*
X8747760Y-9819640D01*
X8747760Y-9789160D02*
X8717280Y-9819640D01*
X8724900Y-12692380D02*
X8755380Y-12722860D01*
X8755380Y-12692380D02*
X8724900Y-12722860D01*
X8729980Y-12446000D02*
X8760460Y-12476480D01*
X8760460Y-12446000D02*
X8729980Y-12476480D01*
X8761096Y-10006964D02*
X8791576Y-10037444D01*
X8791576Y-10006964D02*
X8761096Y-10037444D01*
X8779510Y-9260890D02*
X8809990Y-9291370D01*
X8809990Y-9260890D02*
X8779510Y-9291370D01*
X8823960Y-12151360D02*
X8854440Y-12181840D01*
X8854440Y-12151360D02*
X8823960Y-12181840D01*
X8836660Y-12440920D02*
X8867140Y-12471400D01*
X8867140Y-12440920D02*
X8836660Y-12471400D01*
X8839200Y-12689840D02*
X8869680Y-12720320D01*
X8869680Y-12689840D02*
X8839200Y-12720320D01*
X8867140Y-12976828D02*
X8897620Y-13007308D01*
X8897620Y-12976828D02*
X8867140Y-13007308D01*
X8900160Y-9794240D02*
X8930640Y-9824720D01*
X8930640Y-9794240D02*
X8900160Y-9824720D01*
X8910320Y-10289540D02*
X8940800Y-10320020D01*
X8940800Y-10289540D02*
X8910320Y-10320020D01*
X8958580Y-12443460D02*
X8989060Y-12473940D01*
X8989060Y-12443460D02*
X8958580Y-12473940D01*
X8966200Y-12689840D02*
X8996680Y-12720320D01*
X8996680Y-12689840D02*
X8966200Y-12720320D01*
X8973820Y-9862820D02*
X9004300Y-9893300D01*
X9004300Y-9862820D02*
X8973820Y-9893300D01*
X8976360Y-9723120D02*
X9006840Y-9753600D01*
X9006840Y-9723120D02*
X8976360Y-9753600D01*
X9006840Y-12976860D02*
X9037320Y-13007340D01*
X9037320Y-12976860D02*
X9006840Y-13007340D01*
X9050020Y-9794240D02*
X9080500Y-9824720D01*
X9080500Y-9794240D02*
X9050020Y-9824720D01*
X9098280Y-10121950D02*
X9128760Y-10152430D01*
X9128760Y-10121950D02*
X9098280Y-10152430D01*
X9154390Y-9575033D02*
X9184870Y-9605513D01*
X9184870Y-9575033D02*
X9154390Y-9605513D01*
X9217660Y-12684760D02*
X9248140Y-12715240D01*
X9248140Y-12684760D02*
X9217660Y-12715240D01*
X9230360Y-12484050D02*
X9260840Y-12514530D01*
X9260840Y-12484050D02*
X9230360Y-12514530D01*
X9230360Y-12570360D02*
X9260840Y-12600840D01*
X9260840Y-12570360D02*
X9230360Y-12600840D01*
X9248140Y-9799320D02*
X9278620Y-9829800D01*
X9278620Y-9799320D02*
X9248140Y-9829800D01*
X9331960Y-12151360D02*
X9362440Y-12181840D01*
X9362440Y-12151360D02*
X9331960Y-12181840D01*
X9343780Y-12669520D02*
X9374260Y-12700000D01*
X9374260Y-12669520D02*
X9343780Y-12700000D01*
X9385300Y-10078720D02*
X9415780Y-10109200D01*
X9415780Y-10078720D02*
X9385300Y-10109200D01*
X9431020Y-12484050D02*
X9461500Y-12514530D01*
X9461500Y-12484050D02*
X9431020Y-12514530D01*
X9433560Y-12776250D02*
X9464040Y-12806730D01*
X9464040Y-12776250D02*
X9433560Y-12806730D01*
X9446260Y-13061826D02*
X9476740Y-13092306D01*
X9476740Y-13061826D02*
X9446260Y-13092306D01*
X9451340Y-10397366D02*
X9481820Y-10427846D01*
X9481820Y-10397366D02*
X9451340Y-10427846D01*
X9456420Y-12214860D02*
X9486900Y-12245340D01*
X9486900Y-12214860D02*
X9456420Y-12245340D01*
X9479280Y-10111790D02*
X9509760Y-10142270D01*
X9509760Y-10111790D02*
X9479280Y-10142270D01*
X9649460Y-12735560D02*
X9679940Y-12766040D01*
X9679940Y-12735560D02*
X9649460Y-12766040D01*
X9654540Y-10071100D02*
X9685020Y-10101580D01*
X9685020Y-10071100D02*
X9654540Y-10101580D01*
X10082660Y-12202160D02*
X10113140Y-12232640D01*
X10113140Y-12202160D02*
X10082660Y-12232640D01*
X10087740Y-9537700D02*
X10118220Y-9568180D01*
X10118220Y-9537700D02*
X10087740Y-9568180D01*
X10167620Y-12151310D02*
X10198100Y-12181790D01*
X10198100Y-12151310D02*
X10167620Y-12181790D01*
X10167620Y-13454380D02*
X10198100Y-13484860D01*
X10198100Y-13454380D02*
X10167620Y-13484860D01*
X10172700Y-9486850D02*
X10203180Y-9517330D01*
X10203180Y-9486850D02*
X10172700Y-9517330D01*
X10172700Y-10789920D02*
X10203180Y-10820400D01*
X10203180Y-10789920D02*
X10172700Y-10820400D01*
X10226040Y-13108940D02*
X10256520Y-13139420D01*
X10256520Y-13108940D02*
X10226040Y-13139420D01*
X10231120Y-10444480D02*
X10261600Y-10474960D01*
X10261600Y-10444480D02*
X10231120Y-10474960D01*
X10253980Y-12296090D02*
X10284460Y-12326570D01*
X10284460Y-12296090D02*
X10253980Y-12326570D01*
X10259060Y-9631630D02*
X10289540Y-9662110D01*
X10289540Y-9631630D02*
X10259060Y-9662110D01*
X10271760Y-12595860D02*
X10302240Y-12626340D01*
X10302240Y-12595860D02*
X10271760Y-12626340D01*
X10276840Y-9931400D02*
X10307320Y-9961880D01*
X10307320Y-9931400D02*
X10276840Y-9961880D01*
X10309860Y-12659360D02*
X10340340Y-12689840D01*
X10340340Y-12659360D02*
X10309860Y-12689840D01*
X10314940Y-9994900D02*
X10345420Y-10025380D01*
X10345420Y-9994900D02*
X10314940Y-10025380D01*
X10373360Y-12159030D02*
X10403840Y-12189510D01*
X10403840Y-12159030D02*
X10373360Y-12189510D01*
X10378440Y-9494570D02*
X10408920Y-9525050D01*
X10408920Y-9494570D02*
X10378440Y-9525050D01*
X10411460Y-12557760D02*
X10441940Y-12588240D01*
X10441940Y-12557760D02*
X10411460Y-12588240D01*
X10416540Y-9893300D02*
X10447020Y-9923780D01*
X10447020Y-9893300D02*
X10416540Y-9923780D01*
X10565460Y-12597460D02*
X10595940Y-12627940D01*
X10595940Y-12597460D02*
X10565460Y-12627940D01*
X10570540Y-9933000D02*
X10601020Y-9963480D01*
X10601020Y-9933000D02*
X10570540Y-9963480D01*
X10721340Y-12296090D02*
X10751820Y-12326570D01*
X10751820Y-12296090D02*
X10721340Y-12326570D01*
X10726420Y-9631630D02*
X10756900Y-9662110D01*
X10756900Y-9631630D02*
X10726420Y-9662110D01*
X10739120Y-12595860D02*
X10769600Y-12626340D01*
X10769600Y-12595860D02*
X10739120Y-12626340D01*
X10744200Y-9931400D02*
X10774680Y-9961880D01*
X10774680Y-9931400D02*
X10744200Y-9961880D01*
X10779760Y-12075160D02*
X10810240Y-12105640D01*
X10810240Y-12075160D02*
X10779760Y-12105640D01*
X10784840Y-9410700D02*
X10815320Y-9441180D01*
X10815320Y-9410700D02*
X10784840Y-9441180D01*
X10812780Y-13550900D02*
X10843260Y-13581380D01*
X10843260Y-13550900D02*
X10812780Y-13581380D01*
X10817860Y-10886440D02*
X10848340Y-10916920D01*
X10848340Y-10886440D02*
X10817860Y-10916920D01*
X10829717Y-12531421D02*
X10860197Y-12561901D01*
X10860197Y-12531421D02*
X10829717Y-12561901D01*
X10834797Y-9866961D02*
X10865277Y-9897441D01*
X10865277Y-9866961D02*
X10834797Y-9897441D01*
X10881360Y-11617960D02*
X10911840Y-11648440D01*
X10911840Y-11617960D02*
X10881360Y-11648440D01*
X10881844Y-12458269D02*
X10912324Y-12488749D01*
X10912324Y-12458269D02*
X10881844Y-12488749D01*
X10886440Y-8953500D02*
X10916920Y-8983980D01*
X10916920Y-8953500D02*
X10886440Y-8983980D01*
X10886490Y-9804350D02*
X10916970Y-9834830D01*
X10916970Y-9804350D02*
X10886490Y-9834830D01*
X11008360Y-11617960D02*
X11038840Y-11648440D01*
X11038840Y-11617960D02*
X11008360Y-11648440D01*
X11013440Y-8953500D02*
X11043920Y-8983980D01*
X11043920Y-8953500D02*
X11013440Y-8983980D01*
X11186160Y-11871960D02*
X11216640Y-11902440D01*
X11216640Y-11871960D02*
X11186160Y-11902440D01*
X11186160Y-13294360D02*
X11216640Y-13324840D01*
X11216640Y-13294360D02*
X11186160Y-13324840D01*
X11191240Y-9207500D02*
X11221720Y-9237980D01*
X11221720Y-9207500D02*
X11191240Y-9237980D01*
X11191240Y-10629900D02*
X11221720Y-10660380D01*
X11221720Y-10629900D02*
X11191240Y-10660380D01*
X11313160Y-11871960D02*
X11343640Y-11902440D01*
X11343640Y-11871960D02*
X11313160Y-11902440D01*
X11313160Y-13294360D02*
X11343640Y-13324840D01*
X11343640Y-13294360D02*
X11313160Y-13324840D01*
X11318240Y-9207500D02*
X11348720Y-9237980D01*
X11348720Y-9207500D02*
X11318240Y-9237980D01*
X11318240Y-10629900D02*
X11348720Y-10660380D01*
X11348720Y-10629900D02*
X11318240Y-10660380D01*
X11440160Y-11871960D02*
X11470640Y-11902440D01*
X11470640Y-11871960D02*
X11440160Y-11902440D01*
X11440160Y-13294360D02*
X11470640Y-13324840D01*
X11470640Y-13294360D02*
X11440160Y-13324840D01*
X11445240Y-9207500D02*
X11475720Y-9237980D01*
X11475720Y-9207500D02*
X11445240Y-9237980D01*
X11445240Y-10629900D02*
X11475720Y-10660380D01*
X11475720Y-10629900D02*
X11445240Y-10660380D01*
X11567160Y-11871960D02*
X11597640Y-11902440D01*
X11597640Y-11871960D02*
X11567160Y-11902440D01*
X11567160Y-13294360D02*
X11597640Y-13324840D01*
X11597640Y-13294360D02*
X11567160Y-13324840D01*
X11572240Y-9207500D02*
X11602720Y-9237980D01*
X11602720Y-9207500D02*
X11572240Y-9237980D01*
X11572240Y-10629900D02*
X11602720Y-10660380D01*
X11602720Y-10629900D02*
X11572240Y-10660380D01*
X11694160Y-11871960D02*
X11724640Y-11902440D01*
X11724640Y-11871960D02*
X11694160Y-11902440D01*
X11694160Y-13294360D02*
X11724640Y-13324840D01*
X11724640Y-13294360D02*
X11694160Y-13324840D01*
X11699240Y-9207500D02*
X11729720Y-9237980D01*
X11729720Y-9207500D02*
X11699240Y-9237980D01*
X11699240Y-10629900D02*
X11729720Y-10660380D01*
X11729720Y-10629900D02*
X11699240Y-10660380D01*
X11821160Y-11871960D02*
X11851640Y-11902440D01*
X11851640Y-11871960D02*
X11821160Y-11902440D01*
X11821160Y-13294360D02*
X11851640Y-13324840D01*
X11851640Y-13294360D02*
X11821160Y-13324840D01*
X11826240Y-9207500D02*
X11856720Y-9237980D01*
X11856720Y-9207500D02*
X11826240Y-9237980D01*
X11826240Y-10629900D02*
X11856720Y-10660380D01*
X11856720Y-10629900D02*
X11826240Y-10660380D01*
X11935460Y-12354560D02*
X11965940Y-12385040D01*
X11965940Y-12354560D02*
X11935460Y-12385040D01*
X11935460Y-12494260D02*
X11965940Y-12524740D01*
X11965940Y-12494260D02*
X11935460Y-12524740D01*
X11940540Y-9690100D02*
X11971020Y-9720580D01*
X11971020Y-9690100D02*
X11940540Y-9720580D01*
X11940540Y-9829800D02*
X11971020Y-9860280D01*
X11971020Y-9829800D02*
X11940540Y-9860280D01*
X11948160Y-11871960D02*
X11978640Y-11902440D01*
X11978640Y-11871960D02*
X11948160Y-11902440D01*
X11948160Y-13294360D02*
X11978640Y-13324840D01*
X11978640Y-13294360D02*
X11948160Y-13324840D01*
X11953240Y-9207500D02*
X11983720Y-9237980D01*
X11983720Y-9207500D02*
X11953240Y-9237980D01*
X11953240Y-10629900D02*
X11983720Y-10660380D01*
X11983720Y-10629900D02*
X11953240Y-10660380D01*
X11997706Y-12420501D02*
X12028186Y-12450981D01*
X12028186Y-12420501D02*
X11997706Y-12450981D01*
X11998960Y-12283440D02*
X12029440Y-12313920D01*
X12029440Y-12283440D02*
X11998960Y-12313920D01*
X11998960Y-12557760D02*
X12029440Y-12588240D01*
X12029440Y-12557760D02*
X11998960Y-12588240D01*
X12002786Y-9756041D02*
X12033266Y-9786521D01*
X12033266Y-9756041D02*
X12002786Y-9786521D01*
X12004040Y-9618980D02*
X12034520Y-9649460D01*
X12034520Y-9618980D02*
X12004040Y-9649460D01*
X12004040Y-9893300D02*
X12034520Y-9923780D01*
X12034520Y-9893300D02*
X12004040Y-9923780D01*
X12075160Y-11874500D02*
X12105640Y-11904980D01*
X12105640Y-11874500D02*
X12075160Y-11904980D01*
X12075160Y-12354560D02*
X12105640Y-12385040D01*
X12105640Y-12354560D02*
X12075160Y-12385040D01*
X12075160Y-12494260D02*
X12105640Y-12524740D01*
X12105640Y-12494260D02*
X12075160Y-12524740D01*
X12080240Y-9210040D02*
X12110720Y-9240520D01*
X12110720Y-9210040D02*
X12080240Y-9240520D01*
X12080240Y-9690100D02*
X12110720Y-9720580D01*
X12110720Y-9690100D02*
X12080240Y-9720580D01*
X12080240Y-9829800D02*
X12110720Y-9860280D01*
X12110720Y-9829800D02*
X12080240Y-9860280D01*
X12138660Y-12278360D02*
X12169140Y-12308840D01*
X12169140Y-12278360D02*
X12138660Y-12308840D01*
X12138660Y-12418060D02*
X12169140Y-12448540D01*
X12169140Y-12418060D02*
X12138660Y-12448540D01*
X12138660Y-12557760D02*
X12169140Y-12588240D01*
X12169140Y-12557760D02*
X12138660Y-12588240D01*
X12143740Y-9613900D02*
X12174220Y-9644380D01*
X12174220Y-9613900D02*
X12143740Y-9644380D01*
X12143740Y-9753600D02*
X12174220Y-9784080D01*
X12174220Y-9753600D02*
X12143740Y-9784080D01*
X12143740Y-9893300D02*
X12174220Y-9923780D01*
X12174220Y-9893300D02*
X12143740Y-9923780D01*
X12202160Y-11871960D02*
X12232640Y-11902440D01*
X12232640Y-11871960D02*
X12202160Y-11902440D01*
X12202160Y-12354560D02*
X12232640Y-12385040D01*
X12232640Y-12354560D02*
X12202160Y-12385040D01*
X12202160Y-12494260D02*
X12232640Y-12524740D01*
X12232640Y-12494260D02*
X12202160Y-12524740D01*
X12202160Y-13294360D02*
X12232640Y-13324840D01*
X12232640Y-13294360D02*
X12202160Y-13324840D01*
X12207240Y-9207500D02*
X12237720Y-9237980D01*
X12237720Y-9207500D02*
X12207240Y-9237980D01*
X12207240Y-9690100D02*
X12237720Y-9720580D01*
X12237720Y-9690100D02*
X12207240Y-9720580D01*
X12207240Y-9829800D02*
X12237720Y-9860280D01*
X12237720Y-9829800D02*
X12207240Y-9860280D01*
X12207240Y-10629900D02*
X12237720Y-10660380D01*
X12237720Y-10629900D02*
X12207240Y-10660380D01*
X12329160Y-11871960D02*
X12359640Y-11902440D01*
X12359640Y-11871960D02*
X12329160Y-11902440D01*
X12329160Y-13294360D02*
X12359640Y-13324840D01*
X12359640Y-13294360D02*
X12329160Y-13324840D01*
X12334240Y-9207500D02*
X12364720Y-9237980D01*
X12364720Y-9207500D02*
X12334240Y-9237980D01*
X12334240Y-10629900D02*
X12364720Y-10660380D01*
X12364720Y-10629900D02*
X12334240Y-10660380D01*
X12456160Y-11871960D02*
X12486640Y-11902440D01*
X12486640Y-11871960D02*
X12456160Y-11902440D01*
X12456160Y-13294360D02*
X12486640Y-13324840D01*
X12486640Y-13294360D02*
X12456160Y-13324840D01*
X12461240Y-9207500D02*
X12491720Y-9237980D01*
X12491720Y-9207500D02*
X12461240Y-9237980D01*
X12461240Y-10629900D02*
X12491720Y-10660380D01*
X12491720Y-10629900D02*
X12461240Y-10660380D01*
X12583160Y-11871960D02*
X12613640Y-11902440D01*
X12613640Y-11871960D02*
X12583160Y-11902440D01*
X12583160Y-13294360D02*
X12613640Y-13324840D01*
X12613640Y-13294360D02*
X12583160Y-13324840D01*
X12588240Y-9207500D02*
X12618720Y-9237980D01*
X12618720Y-9207500D02*
X12588240Y-9237980D01*
X12588240Y-10629900D02*
X12618720Y-10660380D01*
X12618720Y-10629900D02*
X12588240Y-10660380D01*
X12710160Y-11871960D02*
X12740640Y-11902440D01*
X12740640Y-11871960D02*
X12710160Y-11902440D01*
X12710160Y-11960860D02*
X12740640Y-11991340D01*
X12740640Y-11960860D02*
X12710160Y-11991340D01*
X12710160Y-13294360D02*
X12740640Y-13324840D01*
X12740640Y-13294360D02*
X12710160Y-13324840D01*
X12715240Y-9207500D02*
X12745720Y-9237980D01*
X12745720Y-9207500D02*
X12715240Y-9237980D01*
X12715240Y-9296400D02*
X12745720Y-9326880D01*
X12745720Y-9296400D02*
X12715240Y-9326880D01*
X12715240Y-10629900D02*
X12745720Y-10660380D01*
X12745720Y-10629900D02*
X12715240Y-10660380D01*
X12837160Y-11871960D02*
X12867640Y-11902440D01*
X12867640Y-11871960D02*
X12837160Y-11902440D01*
X12837160Y-13294360D02*
X12867640Y-13324840D01*
X12867640Y-13294360D02*
X12837160Y-13324840D01*
X12842240Y-9207500D02*
X12872720Y-9237980D01*
X12872720Y-9207500D02*
X12842240Y-9237980D01*
X12842240Y-10629900D02*
X12872720Y-10660380D01*
X12872720Y-10629900D02*
X12842240Y-10660380D01*
X7109140Y-9088120D02*
G75*
G03*
X7109140Y-9088120I-20000J0D01*
G01*
X7231060Y-9050020D02*
G75*
G03*
X7231060Y-9050020I-20000J0D01*
G01*
X9342099Y-9453147D02*
G75*
G03*
X9342099Y-9453147I-20000J0D01*
G01*
X6538720Y-9454160D02*
X6538720Y-9514160D01*
X6508720Y-9484160D02*
X6568720Y-9484160D01*
X6568720Y-9454160D02*
X6508720Y-9454160D01*
X6508720Y-9454160D02*
G75*
G03*
X6508720Y-9514160I0J-30000D01*
G01*
X6508720Y-9514160D02*
X6568720Y-9514160D01*
X6568720Y-9514160D02*
G75*
G03*
X6568720Y-9454160I0J30000D01*
G01*
X6538720Y-10318160D02*
X6538720Y-10378160D01*
X6508720Y-10348160D02*
X6568720Y-10348160D01*
X6568720Y-10318160D02*
X6508720Y-10318160D01*
X6508720Y-10318160D02*
G75*
G03*
X6508720Y-10378160I0J-30000D01*
G01*
X6508720Y-10378160D02*
X6568720Y-10378160D01*
X6568720Y-10378160D02*
G75*
G03*
X6568720Y-10318160I0J30000D01*
G01*
X6959720Y-9454160D02*
X6959720Y-9514160D01*
X6929720Y-9484160D02*
X6989720Y-9484160D01*
X7004720Y-9454160D02*
X6914720Y-9454160D01*
X6914720Y-9454160D02*
G75*
G03*
X6914720Y-9514160I0J-30000D01*
G01*
X6914720Y-9514160D02*
X7004720Y-9514160D01*
X7004720Y-9514160D02*
G75*
G03*
X7004720Y-9454160I0J30000D01*
G01*
X6959720Y-10318160D02*
X6959720Y-10378160D01*
X6929720Y-10348160D02*
X6989720Y-10348160D01*
X7004721Y-10318160D02*
X6914719Y-10318160D01*
X6914719Y-10318160D02*
G75*
G03*
X6914719Y-10378160I0J-30000D01*
G01*
X6914719Y-10378160D02*
X7004721Y-10378160D01*
X7004721Y-10378160D02*
G75*
G03*
X7004721Y-10318160I0J30000D01*
G01*
X6507450Y-12260450D02*
X6507450Y-12210950D01*
X6457950Y-12210950D01*
X6457950Y-12260450D01*
X6507450Y-12260450D01*
X6517699Y-12200699D02*
X6447701Y-12200699D01*
X6447701Y-12200699D02*
G75*
G03*
X6447701Y-12270701I0J-35001D01*
G01*
X6447701Y-12270701D02*
X6517699Y-12270701D01*
X6517699Y-12270701D02*
G75*
G03*
X6517699Y-12200699I0J35001D01*
G01*
X6507450Y-12960450D02*
X6507450Y-12910950D01*
X6457950Y-12910950D01*
X6457950Y-12960450D01*
X6507450Y-12960450D01*
X6517699Y-12900699D02*
X6447701Y-12900699D01*
X6447701Y-12900699D02*
G75*
G03*
X6447701Y-12970701I0J-35001D01*
G01*
X6447701Y-12970701D02*
X6517699Y-12970701D01*
X6517699Y-12970701D02*
G75*
G03*
X6517699Y-12900699I0J35001D01*
G01*
X6752700Y-12380701D02*
X6797701Y-12335700D01*
X6752700Y-12290699D01*
X6707699Y-12335700D01*
X6752700Y-12380701D01*
X6752700Y-12880701D02*
X6797701Y-12835700D01*
X6752700Y-12790699D01*
X6707699Y-12835700D01*
X6752700Y-12880701D01*
D13*
X6449901Y-11517201D02*
X6554899Y-11622199D01*
X6554899Y-11517201D02*
X6449901Y-11622199D01*
X6554899Y-11569700D02*
G75*
G03*
X6554899Y-11569700I-52499J0D01*
G01*
X6449901Y-13549201D02*
X6554899Y-13654199D01*
X6554899Y-13549201D02*
X6449901Y-13654199D01*
X6554899Y-13601700D02*
G75*
G03*
X6554899Y-13601700I-52499J0D01*
G01*
X6454981Y-8852741D02*
X6559979Y-8957739D01*
X6559979Y-8852741D02*
X6454981Y-8957739D01*
X6559979Y-8905240D02*
G75*
G03*
X6559979Y-8905240I-52499J0D01*
G01*
X6454981Y-10884741D02*
X6559979Y-10989739D01*
X6559979Y-10884741D02*
X6454981Y-10989739D01*
X6559979Y-10937240D02*
G75*
G03*
X6559979Y-10937240I-52499J0D01*
G01*
X6703901Y-11517201D02*
X6808899Y-11622199D01*
X6808899Y-11517201D02*
X6703901Y-11622199D01*
X6808899Y-11569700D02*
G75*
G03*
X6808899Y-11569700I-52499J0D01*
G01*
X6703901Y-13549201D02*
X6808899Y-13654199D01*
X6808899Y-13549201D02*
X6703901Y-13654199D01*
X6808899Y-13601700D02*
G75*
G03*
X6808899Y-13601700I-52499J0D01*
G01*
X6708981Y-8852741D02*
X6813979Y-8957739D01*
X6813979Y-8852741D02*
X6708981Y-8957739D01*
X6813979Y-8905240D02*
G75*
G03*
X6813979Y-8905240I-52499J0D01*
G01*
X6708981Y-10884741D02*
X6813979Y-10989739D01*
X6813979Y-10884741D02*
X6708981Y-10989739D01*
X6813979Y-10937240D02*
G75*
G03*
X6813979Y-10937240I-52499J0D01*
G01*
X6957901Y-11517201D02*
X7062899Y-11622199D01*
X7062899Y-11517201D02*
X6957901Y-11622199D01*
X7062899Y-11569700D02*
G75*
G03*
X7062899Y-11569700I-52499J0D01*
G01*
X6957901Y-13549201D02*
X7062899Y-13654199D01*
X7062899Y-13549201D02*
X6957901Y-13654199D01*
X7062899Y-13601700D02*
G75*
G03*
X7062899Y-13601700I-52499J0D01*
G01*
X6962981Y-8852741D02*
X7067979Y-8957739D01*
X7067979Y-8852741D02*
X6962981Y-8957739D01*
X7067979Y-8905240D02*
G75*
G03*
X7067979Y-8905240I-52499J0D01*
G01*
X6962981Y-10884741D02*
X7067979Y-10989739D01*
X7067979Y-10884741D02*
X6962981Y-10989739D01*
X7067979Y-10937240D02*
G75*
G03*
X7067979Y-10937240I-52499J0D01*
G01*
X7211901Y-11517201D02*
X7316899Y-11622199D01*
X7316899Y-11517201D02*
X7211901Y-11622199D01*
X7316899Y-11569700D02*
G75*
G03*
X7316899Y-11569700I-52499J0D01*
G01*
X7211901Y-13549201D02*
X7316899Y-13654199D01*
X7316899Y-13549201D02*
X7211901Y-13654199D01*
X7316899Y-13601700D02*
G75*
G03*
X7316899Y-13601700I-52499J0D01*
G01*
X7216981Y-8852741D02*
X7321979Y-8957739D01*
X7321979Y-8852741D02*
X7216981Y-8957739D01*
X7321979Y-8905240D02*
G75*
G03*
X7321979Y-8905240I-52499J0D01*
G01*
X7216981Y-10884741D02*
X7321979Y-10989739D01*
X7321979Y-10884741D02*
X7216981Y-10989739D01*
X7321979Y-10937240D02*
G75*
G03*
X7321979Y-10937240I-52499J0D01*
G01*
X7465901Y-11517201D02*
X7570899Y-11622199D01*
X7570899Y-11517201D02*
X7465901Y-11622199D01*
X7570899Y-11569700D02*
G75*
G03*
X7570899Y-11569700I-52499J0D01*
G01*
X7465901Y-13549201D02*
X7570899Y-13654199D01*
X7570899Y-13549201D02*
X7465901Y-13654199D01*
X7570899Y-13601700D02*
G75*
G03*
X7570899Y-13601700I-52499J0D01*
G01*
X7470981Y-8852741D02*
X7575979Y-8957739D01*
X7575979Y-8852741D02*
X7470981Y-8957739D01*
X7575979Y-8905240D02*
G75*
G03*
X7575979Y-8905240I-52499J0D01*
G01*
X7470981Y-10884741D02*
X7575979Y-10989739D01*
X7575979Y-10884741D02*
X7470981Y-10989739D01*
X7575979Y-10937240D02*
G75*
G03*
X7575979Y-10937240I-52499J0D01*
G01*
X7719901Y-11517201D02*
X7824899Y-11622199D01*
X7824899Y-11517201D02*
X7719901Y-11622199D01*
X7824899Y-11569700D02*
G75*
G03*
X7824899Y-11569700I-52499J0D01*
G01*
X7719901Y-13549201D02*
X7824899Y-13654199D01*
X7824899Y-13549201D02*
X7719901Y-13654199D01*
X7824899Y-13601700D02*
G75*
G03*
X7824899Y-13601700I-52499J0D01*
G01*
X7724981Y-8852741D02*
X7829979Y-8957739D01*
X7829979Y-8852741D02*
X7724981Y-8957739D01*
X7829979Y-8905240D02*
G75*
G03*
X7829979Y-8905240I-52499J0D01*
G01*
X7724981Y-10884741D02*
X7829979Y-10989739D01*
X7829979Y-10884741D02*
X7724981Y-10989739D01*
X7829979Y-10937240D02*
G75*
G03*
X7829979Y-10937240I-52499J0D01*
G01*
X7973901Y-11517201D02*
X8078899Y-11622199D01*
X8078899Y-11517201D02*
X7973901Y-11622199D01*
X8078899Y-11569700D02*
G75*
G03*
X8078899Y-11569700I-52499J0D01*
G01*
X7973901Y-13549201D02*
X8078899Y-13654199D01*
X8078899Y-13549201D02*
X7973901Y-13654199D01*
X8078899Y-13601700D02*
G75*
G03*
X8078899Y-13601700I-52499J0D01*
G01*
X7978981Y-8852741D02*
X8083979Y-8957739D01*
X8083979Y-8852741D02*
X7978981Y-8957739D01*
X8083979Y-8905240D02*
G75*
G03*
X8083979Y-8905240I-52499J0D01*
G01*
X7978981Y-10884741D02*
X8083979Y-10989739D01*
X8083979Y-10884741D02*
X7978981Y-10989739D01*
X8083979Y-10937240D02*
G75*
G03*
X8083979Y-10937240I-52499J0D01*
G01*
X8227901Y-11517201D02*
X8332899Y-11622199D01*
X8332899Y-11517201D02*
X8227901Y-11622199D01*
X8332899Y-11569700D02*
G75*
G03*
X8332899Y-11569700I-52499J0D01*
G01*
X8227901Y-13549201D02*
X8332899Y-13654199D01*
X8332899Y-13549201D02*
X8227901Y-13654199D01*
X8332899Y-13601700D02*
G75*
G03*
X8332899Y-13601700I-52499J0D01*
G01*
X8232981Y-8852741D02*
X8337979Y-8957739D01*
X8337979Y-8852741D02*
X8232981Y-8957739D01*
X8337979Y-8905240D02*
G75*
G03*
X8337979Y-8905240I-52499J0D01*
G01*
X8232981Y-10884741D02*
X8337979Y-10989739D01*
X8337979Y-10884741D02*
X8232981Y-10989739D01*
X8337979Y-10937240D02*
G75*
G03*
X8337979Y-10937240I-52499J0D01*
G01*
X8481901Y-11517201D02*
X8586899Y-11622199D01*
X8586899Y-11517201D02*
X8481901Y-11622199D01*
X8586899Y-11569700D02*
G75*
G03*
X8586899Y-11569700I-52499J0D01*
G01*
X8481901Y-13549201D02*
X8586899Y-13654199D01*
X8586899Y-13549201D02*
X8481901Y-13654199D01*
X8586899Y-13601700D02*
G75*
G03*
X8586899Y-13601700I-52499J0D01*
G01*
X8486981Y-8852741D02*
X8591979Y-8957739D01*
X8591979Y-8852741D02*
X8486981Y-8957739D01*
X8591979Y-8905240D02*
G75*
G03*
X8591979Y-8905240I-52499J0D01*
G01*
X8486981Y-10884741D02*
X8591979Y-10989739D01*
X8591979Y-10884741D02*
X8486981Y-10989739D01*
X8591979Y-10937240D02*
G75*
G03*
X8591979Y-10937240I-52499J0D01*
G01*
X8735901Y-11517201D02*
X8840899Y-11622199D01*
X8840899Y-11517201D02*
X8735901Y-11622199D01*
X8840899Y-11569700D02*
G75*
G03*
X8840899Y-11569700I-52499J0D01*
G01*
X8735901Y-13549201D02*
X8840899Y-13654199D01*
X8840899Y-13549201D02*
X8735901Y-13654199D01*
X8840899Y-13601700D02*
G75*
G03*
X8840899Y-13601700I-52499J0D01*
G01*
X8740981Y-8852741D02*
X8845979Y-8957739D01*
X8845979Y-8852741D02*
X8740981Y-8957739D01*
X8845979Y-8905240D02*
G75*
G03*
X8845979Y-8905240I-52499J0D01*
G01*
X8740981Y-10884741D02*
X8845979Y-10989739D01*
X8845979Y-10884741D02*
X8740981Y-10989739D01*
X8845979Y-10937240D02*
G75*
G03*
X8845979Y-10937240I-52499J0D01*
G01*
X8989901Y-11517201D02*
X9094899Y-11622199D01*
X9094899Y-11517201D02*
X8989901Y-11622199D01*
X9094899Y-11569700D02*
G75*
G03*
X9094899Y-11569700I-52499J0D01*
G01*
X8989901Y-13549201D02*
X9094899Y-13654199D01*
X9094899Y-13549201D02*
X8989901Y-13654199D01*
X9094899Y-13601700D02*
G75*
G03*
X9094899Y-13601700I-52499J0D01*
G01*
X8994981Y-8852741D02*
X9099979Y-8957739D01*
X9099979Y-8852741D02*
X8994981Y-8957739D01*
X9099979Y-8905240D02*
G75*
G03*
X9099979Y-8905240I-52499J0D01*
G01*
X8994981Y-10884741D02*
X9099979Y-10989739D01*
X9099979Y-10884741D02*
X8994981Y-10989739D01*
X9099979Y-10937240D02*
G75*
G03*
X9099979Y-10937240I-52499J0D01*
G01*
X9243901Y-11517201D02*
X9348899Y-11622199D01*
X9348899Y-11517201D02*
X9243901Y-11622199D01*
X9348899Y-11569700D02*
G75*
G03*
X9348899Y-11569700I-52499J0D01*
G01*
X9243901Y-13549201D02*
X9348899Y-13654199D01*
X9348899Y-13549201D02*
X9243901Y-13654199D01*
X9348899Y-13601700D02*
G75*
G03*
X9348899Y-13601700I-52499J0D01*
G01*
X9248981Y-8852741D02*
X9353979Y-8957739D01*
X9353979Y-8852741D02*
X9248981Y-8957739D01*
X9353979Y-8905240D02*
G75*
G03*
X9353979Y-8905240I-52499J0D01*
G01*
X9248981Y-10884741D02*
X9353979Y-10989739D01*
X9353979Y-10884741D02*
X9248981Y-10989739D01*
X9353979Y-10937240D02*
G75*
G03*
X9353979Y-10937240I-52499J0D01*
G01*
X9497901Y-11517201D02*
X9602899Y-11622199D01*
X9602899Y-11517201D02*
X9497901Y-11622199D01*
X9602899Y-11569700D02*
G75*
G03*
X9602899Y-11569700I-52499J0D01*
G01*
X9497901Y-13549201D02*
X9602899Y-13654199D01*
X9602899Y-13549201D02*
X9497901Y-13654199D01*
X9602899Y-13601700D02*
G75*
G03*
X9602899Y-13601700I-52499J0D01*
G01*
X9502981Y-8852741D02*
X9607979Y-8957739D01*
X9607979Y-8852741D02*
X9502981Y-8957739D01*
X9607979Y-8905240D02*
G75*
G03*
X9607979Y-8905240I-52499J0D01*
G01*
X9502981Y-10884741D02*
X9607979Y-10989739D01*
X9607979Y-10884741D02*
X9502981Y-10989739D01*
X9607979Y-10937240D02*
G75*
G03*
X9607979Y-10937240I-52499J0D01*
G01*
X9751901Y-11517201D02*
X9856899Y-11622199D01*
X9856899Y-11517201D02*
X9751901Y-11622199D01*
X9856899Y-11569700D02*
G75*
G03*
X9856899Y-11569700I-52499J0D01*
G01*
X9751901Y-13549201D02*
X9856899Y-13654199D01*
X9856899Y-13549201D02*
X9751901Y-13654199D01*
X9856899Y-13601700D02*
G75*
G03*
X9856899Y-13601700I-52499J0D01*
G01*
X9756981Y-8852741D02*
X9861979Y-8957739D01*
X9861979Y-8852741D02*
X9756981Y-8957739D01*
X9861979Y-8905240D02*
G75*
G03*
X9861979Y-8905240I-52499J0D01*
G01*
X9756981Y-10884741D02*
X9861979Y-10989739D01*
X9861979Y-10884741D02*
X9756981Y-10989739D01*
X9861979Y-10937240D02*
G75*
G03*
X9861979Y-10937240I-52499J0D01*
G01*
X10005901Y-11517201D02*
X10110899Y-11622199D01*
X10110899Y-11517201D02*
X10005901Y-11622199D01*
X10110899Y-11569700D02*
G75*
G03*
X10110899Y-11569700I-52499J0D01*
G01*
X10005901Y-13549201D02*
X10110899Y-13654199D01*
X10110899Y-13549201D02*
X10005901Y-13654199D01*
X10110899Y-13601700D02*
G75*
G03*
X10110899Y-13601700I-52499J0D01*
G01*
X10010981Y-8852741D02*
X10115979Y-8957739D01*
X10115979Y-8852741D02*
X10010981Y-8957739D01*
X10115979Y-8905240D02*
G75*
G03*
X10115979Y-8905240I-52499J0D01*
G01*
X10010981Y-10884741D02*
X10115979Y-10989739D01*
X10115979Y-10884741D02*
X10010981Y-10989739D01*
X10115979Y-10937240D02*
G75*
G03*
X10115979Y-10937240I-52499J0D01*
G01*
X10259901Y-11517201D02*
X10364899Y-11622199D01*
X10364899Y-11517201D02*
X10259901Y-11622199D01*
X10364899Y-11569700D02*
G75*
G03*
X10364899Y-11569700I-52499J0D01*
G01*
X10259901Y-13549201D02*
X10364899Y-13654199D01*
X10364899Y-13549201D02*
X10259901Y-13654199D01*
X10364899Y-13601700D02*
G75*
G03*
X10364899Y-13601700I-52499J0D01*
G01*
X10264981Y-8852741D02*
X10369979Y-8957739D01*
X10369979Y-8852741D02*
X10264981Y-8957739D01*
X10369979Y-8905240D02*
G75*
G03*
X10369979Y-8905240I-52499J0D01*
G01*
X10264981Y-10884741D02*
X10369979Y-10989739D01*
X10369979Y-10884741D02*
X10264981Y-10989739D01*
X10369979Y-10937240D02*
G75*
G03*
X10369979Y-10937240I-52499J0D01*
G01*
X10513901Y-11517201D02*
X10618899Y-11622199D01*
X10618899Y-11517201D02*
X10513901Y-11622199D01*
X10618899Y-11569700D02*
G75*
G03*
X10618899Y-11569700I-52499J0D01*
G01*
X10513901Y-13549201D02*
X10618899Y-13654199D01*
X10618899Y-13549201D02*
X10513901Y-13654199D01*
X10618899Y-13601700D02*
G75*
G03*
X10618899Y-13601700I-52499J0D01*
G01*
X10518981Y-8852741D02*
X10623979Y-8957739D01*
X10623979Y-8852741D02*
X10518981Y-8957739D01*
X10623979Y-8905240D02*
G75*
G03*
X10623979Y-8905240I-52499J0D01*
G01*
X10518981Y-10884741D02*
X10623979Y-10989739D01*
X10623979Y-10884741D02*
X10518981Y-10989739D01*
X10623979Y-10937240D02*
G75*
G03*
X10623979Y-10937240I-52499J0D01*
G01*
D12*
X6605777Y-14083284D02*
X6605777Y-13883284D01*
X6605777Y-13883284D02*
X6653396Y-13883284D01*
X6653396Y-13883284D02*
X6681967Y-13892808D01*
X6681967Y-13892808D02*
X6701015Y-13911855D01*
X6701015Y-13911855D02*
X6710539Y-13930903D01*
X6710539Y-13930903D02*
X6720062Y-13968998D01*
X6720062Y-13968998D02*
X6720062Y-13997569D01*
X6720062Y-13997569D02*
X6710539Y-14035665D01*
X6710539Y-14035665D02*
X6701015Y-14054712D01*
X6701015Y-14054712D02*
X6681967Y-14073760D01*
X6681967Y-14073760D02*
X6653396Y-14083284D01*
X6653396Y-14083284D02*
X6605777Y-14083284D01*
X6805777Y-14083284D02*
X6805777Y-13949950D01*
X6805777Y-13988046D02*
X6815301Y-13968998D01*
X6815301Y-13968998D02*
X6824824Y-13959474D01*
X6824824Y-13959474D02*
X6843872Y-13949950D01*
X6843872Y-13949950D02*
X6862920Y-13949950D01*
X6929586Y-14083284D02*
X6929586Y-13949950D01*
X6929586Y-13883284D02*
X6920062Y-13892808D01*
X6920062Y-13892808D02*
X6929586Y-13902331D01*
X6929586Y-13902331D02*
X6939110Y-13892808D01*
X6939110Y-13892808D02*
X6929586Y-13883284D01*
X6929586Y-13883284D02*
X6929586Y-13902331D01*
X7053396Y-14083284D02*
X7034348Y-14073760D01*
X7034348Y-14073760D02*
X7024824Y-14054712D01*
X7024824Y-14054712D02*
X7024824Y-13883284D01*
X7158158Y-14083284D02*
X7139110Y-14073760D01*
X7139110Y-14073760D02*
X7129586Y-14054712D01*
X7129586Y-14054712D02*
X7129586Y-13883284D01*
X7386729Y-14083284D02*
X7386729Y-13883284D01*
X7386729Y-13883284D02*
X7453396Y-14026141D01*
X7453396Y-14026141D02*
X7520062Y-13883284D01*
X7520062Y-13883284D02*
X7520062Y-14083284D01*
X7701015Y-14083284D02*
X7701015Y-13978522D01*
X7701015Y-13978522D02*
X7691491Y-13959474D01*
X7691491Y-13959474D02*
X7672443Y-13949950D01*
X7672443Y-13949950D02*
X7634348Y-13949950D01*
X7634348Y-13949950D02*
X7615301Y-13959474D01*
X7701015Y-14073760D02*
X7681967Y-14083284D01*
X7681967Y-14083284D02*
X7634348Y-14083284D01*
X7634348Y-14083284D02*
X7615301Y-14073760D01*
X7615301Y-14073760D02*
X7605777Y-14054712D01*
X7605777Y-14054712D02*
X7605777Y-14035665D01*
X7605777Y-14035665D02*
X7615301Y-14016617D01*
X7615301Y-14016617D02*
X7634348Y-14007093D01*
X7634348Y-14007093D02*
X7681967Y-14007093D01*
X7681967Y-14007093D02*
X7701015Y-13997569D01*
X7796253Y-13949950D02*
X7796253Y-14149950D01*
X7796253Y-13959474D02*
X7815301Y-13949950D01*
X7815301Y-13949950D02*
X7853396Y-13949950D01*
X7853396Y-13949950D02*
X7872443Y-13959474D01*
X7872443Y-13959474D02*
X7881967Y-13968998D01*
X7881967Y-13968998D02*
X7891491Y-13988046D01*
X7891491Y-13988046D02*
X7891491Y-14045188D01*
X7891491Y-14045188D02*
X7881967Y-14064236D01*
X7881967Y-14064236D02*
X7872443Y-14073760D01*
X7872443Y-14073760D02*
X7853396Y-14083284D01*
X7853396Y-14083284D02*
X7815301Y-14083284D01*
X7815301Y-14083284D02*
X7796253Y-14073760D01*
X7977205Y-14064236D02*
X7986729Y-14073760D01*
X7986729Y-14073760D02*
X7977205Y-14083284D01*
X7977205Y-14083284D02*
X7967682Y-14073760D01*
X7967682Y-14073760D02*
X7977205Y-14064236D01*
X7977205Y-14064236D02*
X7977205Y-14083284D01*
X7977205Y-13959474D02*
X7986729Y-13968998D01*
X7986729Y-13968998D02*
X7977205Y-13978522D01*
X7977205Y-13978522D02*
X7967682Y-13968998D01*
X7967682Y-13968998D02*
X7977205Y-13959474D01*
X7977205Y-13959474D02*
X7977205Y-13978522D01*
D10*
X6314520Y-14396560D02*
X6345000Y-14427040D01*
X6345000Y-14396560D02*
X6314520Y-14427040D01*
D12*
X6643872Y-14303284D02*
X6662920Y-14303284D01*
X6662920Y-14303284D02*
X6681967Y-14312808D01*
X6681967Y-14312808D02*
X6691491Y-14322331D01*
X6691491Y-14322331D02*
X6701015Y-14341379D01*
X6701015Y-14341379D02*
X6710539Y-14379474D01*
X6710539Y-14379474D02*
X6710539Y-14427093D01*
X6710539Y-14427093D02*
X6701015Y-14465188D01*
X6701015Y-14465188D02*
X6691491Y-14484236D01*
X6691491Y-14484236D02*
X6681967Y-14493760D01*
X6681967Y-14493760D02*
X6662920Y-14503284D01*
X6662920Y-14503284D02*
X6643872Y-14503284D01*
X6643872Y-14503284D02*
X6624824Y-14493760D01*
X6624824Y-14493760D02*
X6615301Y-14484236D01*
X6615301Y-14484236D02*
X6605777Y-14465188D01*
X6605777Y-14465188D02*
X6596253Y-14427093D01*
X6596253Y-14427093D02*
X6596253Y-14379474D01*
X6596253Y-14379474D02*
X6605777Y-14341379D01*
X6605777Y-14341379D02*
X6615301Y-14322331D01*
X6615301Y-14322331D02*
X6624824Y-14312808D01*
X6624824Y-14312808D02*
X6643872Y-14303284D01*
X6796253Y-14484236D02*
X6805777Y-14493760D01*
X6805777Y-14493760D02*
X6796253Y-14503284D01*
X6796253Y-14503284D02*
X6786729Y-14493760D01*
X6786729Y-14493760D02*
X6796253Y-14484236D01*
X6796253Y-14484236D02*
X6796253Y-14503284D01*
X6872443Y-14303284D02*
X6996253Y-14303284D01*
X6996253Y-14303284D02*
X6929586Y-14379474D01*
X6929586Y-14379474D02*
X6958158Y-14379474D01*
X6958158Y-14379474D02*
X6977205Y-14388998D01*
X6977205Y-14388998D02*
X6986729Y-14398522D01*
X6986729Y-14398522D02*
X6996253Y-14417569D01*
X6996253Y-14417569D02*
X6996253Y-14465188D01*
X6996253Y-14465188D02*
X6986729Y-14484236D01*
X6986729Y-14484236D02*
X6977205Y-14493760D01*
X6977205Y-14493760D02*
X6958158Y-14503284D01*
X6958158Y-14503284D02*
X6901015Y-14503284D01*
X6901015Y-14503284D02*
X6881967Y-14493760D01*
X6881967Y-14493760D02*
X6872443Y-14484236D01*
X7120062Y-14303284D02*
X7139110Y-14303284D01*
X7139110Y-14303284D02*
X7158158Y-14312808D01*
X7158158Y-14312808D02*
X7167682Y-14322331D01*
X7167682Y-14322331D02*
X7177205Y-14341379D01*
X7177205Y-14341379D02*
X7186729Y-14379474D01*
X7186729Y-14379474D02*
X7186729Y-14427093D01*
X7186729Y-14427093D02*
X7177205Y-14465188D01*
X7177205Y-14465188D02*
X7167682Y-14484236D01*
X7167682Y-14484236D02*
X7158158Y-14493760D01*
X7158158Y-14493760D02*
X7139110Y-14503284D01*
X7139110Y-14503284D02*
X7120062Y-14503284D01*
X7120062Y-14503284D02*
X7101015Y-14493760D01*
X7101015Y-14493760D02*
X7091491Y-14484236D01*
X7091491Y-14484236D02*
X7081967Y-14465188D01*
X7081967Y-14465188D02*
X7072443Y-14427093D01*
X7072443Y-14427093D02*
X7072443Y-14379474D01*
X7072443Y-14379474D02*
X7081967Y-14341379D01*
X7081967Y-14341379D02*
X7091491Y-14322331D01*
X7091491Y-14322331D02*
X7101015Y-14312808D01*
X7101015Y-14312808D02*
X7120062Y-14303284D01*
X7367682Y-14303284D02*
X7272443Y-14303284D01*
X7272443Y-14303284D02*
X7262920Y-14398522D01*
X7262920Y-14398522D02*
X7272443Y-14388998D01*
X7272443Y-14388998D02*
X7291491Y-14379474D01*
X7291491Y-14379474D02*
X7339110Y-14379474D01*
X7339110Y-14379474D02*
X7358158Y-14388998D01*
X7358158Y-14388998D02*
X7367682Y-14398522D01*
X7367682Y-14398522D02*
X7377205Y-14417569D01*
X7377205Y-14417569D02*
X7377205Y-14465188D01*
X7377205Y-14465188D02*
X7367682Y-14484236D01*
X7367682Y-14484236D02*
X7358158Y-14493760D01*
X7358158Y-14493760D02*
X7339110Y-14503284D01*
X7339110Y-14503284D02*
X7291491Y-14503284D01*
X7291491Y-14503284D02*
X7272443Y-14493760D01*
X7272443Y-14493760D02*
X7262920Y-14484236D01*
X7462920Y-14503284D02*
X7462920Y-14369950D01*
X7462920Y-14388998D02*
X7472443Y-14379474D01*
X7472443Y-14379474D02*
X7491491Y-14369950D01*
X7491491Y-14369950D02*
X7520063Y-14369950D01*
X7520063Y-14369950D02*
X7539110Y-14379474D01*
X7539110Y-14379474D02*
X7548634Y-14398522D01*
X7548634Y-14398522D02*
X7548634Y-14503284D01*
X7548634Y-14398522D02*
X7558158Y-14379474D01*
X7558158Y-14379474D02*
X7577205Y-14369950D01*
X7577205Y-14369950D02*
X7605777Y-14369950D01*
X7605777Y-14369950D02*
X7624824Y-14379474D01*
X7624824Y-14379474D02*
X7634348Y-14398522D01*
X7634348Y-14398522D02*
X7634348Y-14503284D01*
X7729586Y-14503284D02*
X7729586Y-14369950D01*
X7729586Y-14388998D02*
X7739110Y-14379474D01*
X7739110Y-14379474D02*
X7758158Y-14369950D01*
X7758158Y-14369950D02*
X7786729Y-14369950D01*
X7786729Y-14369950D02*
X7805777Y-14379474D01*
X7805777Y-14379474D02*
X7815301Y-14398522D01*
X7815301Y-14398522D02*
X7815301Y-14503284D01*
X7815301Y-14398522D02*
X7824824Y-14379474D01*
X7824824Y-14379474D02*
X7843872Y-14369950D01*
X7843872Y-14369950D02*
X7872443Y-14369950D01*
X7872443Y-14369950D02*
X7891491Y-14379474D01*
X7891491Y-14379474D02*
X7901015Y-14398522D01*
X7901015Y-14398522D02*
X7901015Y-14503284D01*
X8291491Y-14293760D02*
X8120063Y-14550903D01*
X8548634Y-14303284D02*
X8567682Y-14303284D01*
X8567682Y-14303284D02*
X8586729Y-14312808D01*
X8586729Y-14312808D02*
X8596253Y-14322331D01*
X8596253Y-14322331D02*
X8605777Y-14341379D01*
X8605777Y-14341379D02*
X8615301Y-14379474D01*
X8615301Y-14379474D02*
X8615301Y-14427093D01*
X8615301Y-14427093D02*
X8605777Y-14465188D01*
X8605777Y-14465188D02*
X8596253Y-14484236D01*
X8596253Y-14484236D02*
X8586729Y-14493760D01*
X8586729Y-14493760D02*
X8567682Y-14503284D01*
X8567682Y-14503284D02*
X8548634Y-14503284D01*
X8548634Y-14503284D02*
X8529587Y-14493760D01*
X8529587Y-14493760D02*
X8520063Y-14484236D01*
X8520063Y-14484236D02*
X8510539Y-14465188D01*
X8510539Y-14465188D02*
X8501015Y-14427093D01*
X8501015Y-14427093D02*
X8501015Y-14379474D01*
X8501015Y-14379474D02*
X8510539Y-14341379D01*
X8510539Y-14341379D02*
X8520063Y-14322331D01*
X8520063Y-14322331D02*
X8529587Y-14312808D01*
X8529587Y-14312808D02*
X8548634Y-14303284D01*
X8701015Y-14484236D02*
X8710539Y-14493760D01*
X8710539Y-14493760D02*
X8701015Y-14503284D01*
X8701015Y-14503284D02*
X8691491Y-14493760D01*
X8691491Y-14493760D02*
X8701015Y-14484236D01*
X8701015Y-14484236D02*
X8701015Y-14503284D01*
X8834348Y-14303284D02*
X8853396Y-14303284D01*
X8853396Y-14303284D02*
X8872444Y-14312808D01*
X8872444Y-14312808D02*
X8881968Y-14322331D01*
X8881968Y-14322331D02*
X8891491Y-14341379D01*
X8891491Y-14341379D02*
X8901015Y-14379474D01*
X8901015Y-14379474D02*
X8901015Y-14427093D01*
X8901015Y-14427093D02*
X8891491Y-14465188D01*
X8891491Y-14465188D02*
X8881968Y-14484236D01*
X8881968Y-14484236D02*
X8872444Y-14493760D01*
X8872444Y-14493760D02*
X8853396Y-14503284D01*
X8853396Y-14503284D02*
X8834348Y-14503284D01*
X8834348Y-14503284D02*
X8815301Y-14493760D01*
X8815301Y-14493760D02*
X8805777Y-14484236D01*
X8805777Y-14484236D02*
X8796253Y-14465188D01*
X8796253Y-14465188D02*
X8786729Y-14427093D01*
X8786729Y-14427093D02*
X8786729Y-14379474D01*
X8786729Y-14379474D02*
X8796253Y-14341379D01*
X8796253Y-14341379D02*
X8805777Y-14322331D01*
X8805777Y-14322331D02*
X8815301Y-14312808D01*
X8815301Y-14312808D02*
X8834348Y-14303284D01*
X9091491Y-14503284D02*
X8977206Y-14503284D01*
X9034348Y-14503284D02*
X9034348Y-14303284D01*
X9034348Y-14303284D02*
X9015301Y-14331855D01*
X9015301Y-14331855D02*
X8996253Y-14350903D01*
X8996253Y-14350903D02*
X8977206Y-14360427D01*
X9167682Y-14322331D02*
X9177206Y-14312808D01*
X9177206Y-14312808D02*
X9196253Y-14303284D01*
X9196253Y-14303284D02*
X9243872Y-14303284D01*
X9243872Y-14303284D02*
X9262920Y-14312808D01*
X9262920Y-14312808D02*
X9272444Y-14322331D01*
X9272444Y-14322331D02*
X9281968Y-14341379D01*
X9281968Y-14341379D02*
X9281968Y-14360427D01*
X9281968Y-14360427D02*
X9272444Y-14388998D01*
X9272444Y-14388998D02*
X9158158Y-14503284D01*
X9158158Y-14503284D02*
X9281968Y-14503284D01*
X9405777Y-14303284D02*
X9424825Y-14303284D01*
X9424825Y-14303284D02*
X9443872Y-14312808D01*
X9443872Y-14312808D02*
X9453396Y-14322331D01*
X9453396Y-14322331D02*
X9462920Y-14341379D01*
X9462920Y-14341379D02*
X9472444Y-14379474D01*
X9472444Y-14379474D02*
X9472444Y-14427093D01*
X9472444Y-14427093D02*
X9462920Y-14465188D01*
X9462920Y-14465188D02*
X9453396Y-14484236D01*
X9453396Y-14484236D02*
X9443872Y-14493760D01*
X9443872Y-14493760D02*
X9424825Y-14503284D01*
X9424825Y-14503284D02*
X9405777Y-14503284D01*
X9405777Y-14503284D02*
X9386729Y-14493760D01*
X9386729Y-14493760D02*
X9377206Y-14484236D01*
X9377206Y-14484236D02*
X9367682Y-14465188D01*
X9367682Y-14465188D02*
X9358158Y-14427093D01*
X9358158Y-14427093D02*
X9358158Y-14379474D01*
X9358158Y-14379474D02*
X9367682Y-14341379D01*
X9367682Y-14341379D02*
X9377206Y-14322331D01*
X9377206Y-14322331D02*
X9386729Y-14312808D01*
X9386729Y-14312808D02*
X9405777Y-14303284D01*
X9548634Y-14303284D02*
X9548634Y-14341379D01*
X9624825Y-14303284D02*
X9624825Y-14341379D01*
X9920063Y-14579474D02*
X9910539Y-14569950D01*
X9910539Y-14569950D02*
X9891491Y-14541379D01*
X9891491Y-14541379D02*
X9881968Y-14522331D01*
X9881968Y-14522331D02*
X9872444Y-14493760D01*
X9872444Y-14493760D02*
X9862920Y-14446141D01*
X9862920Y-14446141D02*
X9862920Y-14408046D01*
X9862920Y-14408046D02*
X9872444Y-14360427D01*
X9872444Y-14360427D02*
X9881968Y-14331855D01*
X9881968Y-14331855D02*
X9891491Y-14312808D01*
X9891491Y-14312808D02*
X9910539Y-14284236D01*
X9910539Y-14284236D02*
X9920063Y-14274712D01*
X10101015Y-14503284D02*
X9986730Y-14503284D01*
X10043872Y-14503284D02*
X10043872Y-14303284D01*
X10043872Y-14303284D02*
X10024825Y-14331855D01*
X10024825Y-14331855D02*
X10005777Y-14350903D01*
X10005777Y-14350903D02*
X9986730Y-14360427D01*
X10196253Y-14503284D02*
X10234349Y-14503284D01*
X10234349Y-14503284D02*
X10253396Y-14493760D01*
X10253396Y-14493760D02*
X10262920Y-14484236D01*
X10262920Y-14484236D02*
X10281968Y-14455665D01*
X10281968Y-14455665D02*
X10291491Y-14417569D01*
X10291491Y-14417569D02*
X10291491Y-14341379D01*
X10291491Y-14341379D02*
X10281968Y-14322331D01*
X10281968Y-14322331D02*
X10272444Y-14312808D01*
X10272444Y-14312808D02*
X10253396Y-14303284D01*
X10253396Y-14303284D02*
X10215301Y-14303284D01*
X10215301Y-14303284D02*
X10196253Y-14312808D01*
X10196253Y-14312808D02*
X10186730Y-14322331D01*
X10186730Y-14322331D02*
X10177206Y-14341379D01*
X10177206Y-14341379D02*
X10177206Y-14388998D01*
X10177206Y-14388998D02*
X10186730Y-14408046D01*
X10186730Y-14408046D02*
X10196253Y-14417569D01*
X10196253Y-14417569D02*
X10215301Y-14427093D01*
X10215301Y-14427093D02*
X10253396Y-14427093D01*
X10253396Y-14427093D02*
X10272444Y-14417569D01*
X10272444Y-14417569D02*
X10281968Y-14408046D01*
X10281968Y-14408046D02*
X10291491Y-14388998D01*
X10358158Y-14303284D02*
X10491491Y-14303284D01*
X10491491Y-14303284D02*
X10405777Y-14503284D01*
X10720063Y-14503284D02*
X10720063Y-14303284D01*
X10805777Y-14503284D02*
X10805777Y-14398522D01*
X10805777Y-14398522D02*
X10796253Y-14379474D01*
X10796253Y-14379474D02*
X10777206Y-14369950D01*
X10777206Y-14369950D02*
X10748634Y-14369950D01*
X10748634Y-14369950D02*
X10729587Y-14379474D01*
X10729587Y-14379474D02*
X10720063Y-14388998D01*
X10929587Y-14503284D02*
X10910539Y-14493760D01*
X10910539Y-14493760D02*
X10901015Y-14484236D01*
X10901015Y-14484236D02*
X10891492Y-14465188D01*
X10891492Y-14465188D02*
X10891492Y-14408046D01*
X10891492Y-14408046D02*
X10901015Y-14388998D01*
X10901015Y-14388998D02*
X10910539Y-14379474D01*
X10910539Y-14379474D02*
X10929587Y-14369950D01*
X10929587Y-14369950D02*
X10958158Y-14369950D01*
X10958158Y-14369950D02*
X10977206Y-14379474D01*
X10977206Y-14379474D02*
X10986730Y-14388998D01*
X10986730Y-14388998D02*
X10996253Y-14408046D01*
X10996253Y-14408046D02*
X10996253Y-14465188D01*
X10996253Y-14465188D02*
X10986730Y-14484236D01*
X10986730Y-14484236D02*
X10977206Y-14493760D01*
X10977206Y-14493760D02*
X10958158Y-14503284D01*
X10958158Y-14503284D02*
X10929587Y-14503284D01*
X11110539Y-14503284D02*
X11091492Y-14493760D01*
X11091492Y-14493760D02*
X11081968Y-14474712D01*
X11081968Y-14474712D02*
X11081968Y-14303284D01*
X11262920Y-14493760D02*
X11243872Y-14503284D01*
X11243872Y-14503284D02*
X11205777Y-14503284D01*
X11205777Y-14503284D02*
X11186730Y-14493760D01*
X11186730Y-14493760D02*
X11177206Y-14474712D01*
X11177206Y-14474712D02*
X11177206Y-14398522D01*
X11177206Y-14398522D02*
X11186730Y-14379474D01*
X11186730Y-14379474D02*
X11205777Y-14369950D01*
X11205777Y-14369950D02*
X11243872Y-14369950D01*
X11243872Y-14369950D02*
X11262920Y-14379474D01*
X11262920Y-14379474D02*
X11272444Y-14398522D01*
X11272444Y-14398522D02*
X11272444Y-14417569D01*
X11272444Y-14417569D02*
X11177206Y-14436617D01*
X11348634Y-14493760D02*
X11367682Y-14503284D01*
X11367682Y-14503284D02*
X11405777Y-14503284D01*
X11405777Y-14503284D02*
X11424825Y-14493760D01*
X11424825Y-14493760D02*
X11434349Y-14474712D01*
X11434349Y-14474712D02*
X11434349Y-14465188D01*
X11434349Y-14465188D02*
X11424825Y-14446141D01*
X11424825Y-14446141D02*
X11405777Y-14436617D01*
X11405777Y-14436617D02*
X11377206Y-14436617D01*
X11377206Y-14436617D02*
X11358158Y-14427093D01*
X11358158Y-14427093D02*
X11348634Y-14408046D01*
X11348634Y-14408046D02*
X11348634Y-14398522D01*
X11348634Y-14398522D02*
X11358158Y-14379474D01*
X11358158Y-14379474D02*
X11377206Y-14369950D01*
X11377206Y-14369950D02*
X11405777Y-14369950D01*
X11405777Y-14369950D02*
X11424825Y-14379474D01*
X11501015Y-14579474D02*
X11510539Y-14569950D01*
X11510539Y-14569950D02*
X11529587Y-14541379D01*
X11529587Y-14541379D02*
X11539111Y-14522331D01*
X11539111Y-14522331D02*
X11548634Y-14493760D01*
X11548634Y-14493760D02*
X11558158Y-14446141D01*
X11558158Y-14446141D02*
X11558158Y-14408046D01*
X11558158Y-14408046D02*
X11548634Y-14360427D01*
X11548634Y-14360427D02*
X11539111Y-14331855D01*
X11539111Y-14331855D02*
X11529587Y-14312808D01*
X11529587Y-14312808D02*
X11510539Y-14284236D01*
X11510539Y-14284236D02*
X11501015Y-14274712D01*
D10*
X6345000Y-14675800D02*
G75*
G03*
X6345000Y-14675800I-20000J0D01*
G01*
D12*
X6643872Y-14567284D02*
X6662920Y-14567284D01*
X6662920Y-14567284D02*
X6681967Y-14576808D01*
X6681967Y-14576808D02*
X6691491Y-14586331D01*
X6691491Y-14586331D02*
X6701015Y-14605379D01*
X6701015Y-14605379D02*
X6710539Y-14643474D01*
X6710539Y-14643474D02*
X6710539Y-14691093D01*
X6710539Y-14691093D02*
X6701015Y-14729188D01*
X6701015Y-14729188D02*
X6691491Y-14748236D01*
X6691491Y-14748236D02*
X6681967Y-14757760D01*
X6681967Y-14757760D02*
X6662920Y-14767284D01*
X6662920Y-14767284D02*
X6643872Y-14767284D01*
X6643872Y-14767284D02*
X6624824Y-14757760D01*
X6624824Y-14757760D02*
X6615301Y-14748236D01*
X6615301Y-14748236D02*
X6605777Y-14729188D01*
X6605777Y-14729188D02*
X6596253Y-14691093D01*
X6596253Y-14691093D02*
X6596253Y-14643474D01*
X6596253Y-14643474D02*
X6605777Y-14605379D01*
X6605777Y-14605379D02*
X6615301Y-14586331D01*
X6615301Y-14586331D02*
X6624824Y-14576808D01*
X6624824Y-14576808D02*
X6643872Y-14567284D01*
X6796253Y-14748236D02*
X6805777Y-14757760D01*
X6805777Y-14757760D02*
X6796253Y-14767284D01*
X6796253Y-14767284D02*
X6786729Y-14757760D01*
X6786729Y-14757760D02*
X6796253Y-14748236D01*
X6796253Y-14748236D02*
X6796253Y-14767284D01*
X6977205Y-14633950D02*
X6977205Y-14767284D01*
X6929586Y-14557760D02*
X6881967Y-14700617D01*
X6881967Y-14700617D02*
X7005777Y-14700617D01*
X7120062Y-14567284D02*
X7139110Y-14567284D01*
X7139110Y-14567284D02*
X7158158Y-14576808D01*
X7158158Y-14576808D02*
X7167682Y-14586331D01*
X7167682Y-14586331D02*
X7177205Y-14605379D01*
X7177205Y-14605379D02*
X7186729Y-14643474D01*
X7186729Y-14643474D02*
X7186729Y-14691093D01*
X7186729Y-14691093D02*
X7177205Y-14729188D01*
X7177205Y-14729188D02*
X7167682Y-14748236D01*
X7167682Y-14748236D02*
X7158158Y-14757760D01*
X7158158Y-14757760D02*
X7139110Y-14767284D01*
X7139110Y-14767284D02*
X7120062Y-14767284D01*
X7120062Y-14767284D02*
X7101015Y-14757760D01*
X7101015Y-14757760D02*
X7091491Y-14748236D01*
X7091491Y-14748236D02*
X7081967Y-14729188D01*
X7081967Y-14729188D02*
X7072443Y-14691093D01*
X7072443Y-14691093D02*
X7072443Y-14643474D01*
X7072443Y-14643474D02*
X7081967Y-14605379D01*
X7081967Y-14605379D02*
X7091491Y-14586331D01*
X7091491Y-14586331D02*
X7101015Y-14576808D01*
X7101015Y-14576808D02*
X7120062Y-14567284D01*
X7310539Y-14567284D02*
X7329586Y-14567284D01*
X7329586Y-14567284D02*
X7348634Y-14576808D01*
X7348634Y-14576808D02*
X7358158Y-14586331D01*
X7358158Y-14586331D02*
X7367682Y-14605379D01*
X7367682Y-14605379D02*
X7377205Y-14643474D01*
X7377205Y-14643474D02*
X7377205Y-14691093D01*
X7377205Y-14691093D02*
X7367682Y-14729188D01*
X7367682Y-14729188D02*
X7358158Y-14748236D01*
X7358158Y-14748236D02*
X7348634Y-14757760D01*
X7348634Y-14757760D02*
X7329586Y-14767284D01*
X7329586Y-14767284D02*
X7310539Y-14767284D01*
X7310539Y-14767284D02*
X7291491Y-14757760D01*
X7291491Y-14757760D02*
X7281967Y-14748236D01*
X7281967Y-14748236D02*
X7272443Y-14729188D01*
X7272443Y-14729188D02*
X7262920Y-14691093D01*
X7262920Y-14691093D02*
X7262920Y-14643474D01*
X7262920Y-14643474D02*
X7272443Y-14605379D01*
X7272443Y-14605379D02*
X7281967Y-14586331D01*
X7281967Y-14586331D02*
X7291491Y-14576808D01*
X7291491Y-14576808D02*
X7310539Y-14567284D01*
X7462920Y-14767284D02*
X7462920Y-14633950D01*
X7462920Y-14652998D02*
X7472443Y-14643474D01*
X7472443Y-14643474D02*
X7491491Y-14633950D01*
X7491491Y-14633950D02*
X7520063Y-14633950D01*
X7520063Y-14633950D02*
X7539110Y-14643474D01*
X7539110Y-14643474D02*
X7548634Y-14662522D01*
X7548634Y-14662522D02*
X7548634Y-14767284D01*
X7548634Y-14662522D02*
X7558158Y-14643474D01*
X7558158Y-14643474D02*
X7577205Y-14633950D01*
X7577205Y-14633950D02*
X7605777Y-14633950D01*
X7605777Y-14633950D02*
X7624824Y-14643474D01*
X7624824Y-14643474D02*
X7634348Y-14662522D01*
X7634348Y-14662522D02*
X7634348Y-14767284D01*
X7729586Y-14767284D02*
X7729586Y-14633950D01*
X7729586Y-14652998D02*
X7739110Y-14643474D01*
X7739110Y-14643474D02*
X7758158Y-14633950D01*
X7758158Y-14633950D02*
X7786729Y-14633950D01*
X7786729Y-14633950D02*
X7805777Y-14643474D01*
X7805777Y-14643474D02*
X7815301Y-14662522D01*
X7815301Y-14662522D02*
X7815301Y-14767284D01*
X7815301Y-14662522D02*
X7824824Y-14643474D01*
X7824824Y-14643474D02*
X7843872Y-14633950D01*
X7843872Y-14633950D02*
X7872443Y-14633950D01*
X7872443Y-14633950D02*
X7891491Y-14643474D01*
X7891491Y-14643474D02*
X7901015Y-14662522D01*
X7901015Y-14662522D02*
X7901015Y-14767284D01*
X8291491Y-14557760D02*
X8120063Y-14814903D01*
X8548634Y-14567284D02*
X8567682Y-14567284D01*
X8567682Y-14567284D02*
X8586729Y-14576808D01*
X8586729Y-14576808D02*
X8596253Y-14586331D01*
X8596253Y-14586331D02*
X8605777Y-14605379D01*
X8605777Y-14605379D02*
X8615301Y-14643474D01*
X8615301Y-14643474D02*
X8615301Y-14691093D01*
X8615301Y-14691093D02*
X8605777Y-14729188D01*
X8605777Y-14729188D02*
X8596253Y-14748236D01*
X8596253Y-14748236D02*
X8586729Y-14757760D01*
X8586729Y-14757760D02*
X8567682Y-14767284D01*
X8567682Y-14767284D02*
X8548634Y-14767284D01*
X8548634Y-14767284D02*
X8529587Y-14757760D01*
X8529587Y-14757760D02*
X8520063Y-14748236D01*
X8520063Y-14748236D02*
X8510539Y-14729188D01*
X8510539Y-14729188D02*
X8501015Y-14691093D01*
X8501015Y-14691093D02*
X8501015Y-14643474D01*
X8501015Y-14643474D02*
X8510539Y-14605379D01*
X8510539Y-14605379D02*
X8520063Y-14586331D01*
X8520063Y-14586331D02*
X8529587Y-14576808D01*
X8529587Y-14576808D02*
X8548634Y-14567284D01*
X8701015Y-14748236D02*
X8710539Y-14757760D01*
X8710539Y-14757760D02*
X8701015Y-14767284D01*
X8701015Y-14767284D02*
X8691491Y-14757760D01*
X8691491Y-14757760D02*
X8701015Y-14748236D01*
X8701015Y-14748236D02*
X8701015Y-14767284D01*
X8834348Y-14567284D02*
X8853396Y-14567284D01*
X8853396Y-14567284D02*
X8872444Y-14576808D01*
X8872444Y-14576808D02*
X8881968Y-14586331D01*
X8881968Y-14586331D02*
X8891491Y-14605379D01*
X8891491Y-14605379D02*
X8901015Y-14643474D01*
X8901015Y-14643474D02*
X8901015Y-14691093D01*
X8901015Y-14691093D02*
X8891491Y-14729188D01*
X8891491Y-14729188D02*
X8881968Y-14748236D01*
X8881968Y-14748236D02*
X8872444Y-14757760D01*
X8872444Y-14757760D02*
X8853396Y-14767284D01*
X8853396Y-14767284D02*
X8834348Y-14767284D01*
X8834348Y-14767284D02*
X8815301Y-14757760D01*
X8815301Y-14757760D02*
X8805777Y-14748236D01*
X8805777Y-14748236D02*
X8796253Y-14729188D01*
X8796253Y-14729188D02*
X8786729Y-14691093D01*
X8786729Y-14691093D02*
X8786729Y-14643474D01*
X8786729Y-14643474D02*
X8796253Y-14605379D01*
X8796253Y-14605379D02*
X8805777Y-14586331D01*
X8805777Y-14586331D02*
X8815301Y-14576808D01*
X8815301Y-14576808D02*
X8834348Y-14567284D01*
X9091491Y-14767284D02*
X8977206Y-14767284D01*
X9034348Y-14767284D02*
X9034348Y-14567284D01*
X9034348Y-14567284D02*
X9015301Y-14595855D01*
X9015301Y-14595855D02*
X8996253Y-14614903D01*
X8996253Y-14614903D02*
X8977206Y-14624427D01*
X9272444Y-14567284D02*
X9177206Y-14567284D01*
X9177206Y-14567284D02*
X9167682Y-14662522D01*
X9167682Y-14662522D02*
X9177206Y-14652998D01*
X9177206Y-14652998D02*
X9196253Y-14643474D01*
X9196253Y-14643474D02*
X9243872Y-14643474D01*
X9243872Y-14643474D02*
X9262920Y-14652998D01*
X9262920Y-14652998D02*
X9272444Y-14662522D01*
X9272444Y-14662522D02*
X9281968Y-14681569D01*
X9281968Y-14681569D02*
X9281968Y-14729188D01*
X9281968Y-14729188D02*
X9272444Y-14748236D01*
X9272444Y-14748236D02*
X9262920Y-14757760D01*
X9262920Y-14757760D02*
X9243872Y-14767284D01*
X9243872Y-14767284D02*
X9196253Y-14767284D01*
X9196253Y-14767284D02*
X9177206Y-14757760D01*
X9177206Y-14757760D02*
X9167682Y-14748236D01*
X9348634Y-14567284D02*
X9481968Y-14567284D01*
X9481968Y-14567284D02*
X9396253Y-14767284D01*
X9548634Y-14567284D02*
X9548634Y-14605379D01*
X9624825Y-14567284D02*
X9624825Y-14605379D01*
X9920063Y-14843474D02*
X9910539Y-14833950D01*
X9910539Y-14833950D02*
X9891491Y-14805379D01*
X9891491Y-14805379D02*
X9881968Y-14786331D01*
X9881968Y-14786331D02*
X9872444Y-14757760D01*
X9872444Y-14757760D02*
X9862920Y-14710141D01*
X9862920Y-14710141D02*
X9862920Y-14672046D01*
X9862920Y-14672046D02*
X9872444Y-14624427D01*
X9872444Y-14624427D02*
X9881968Y-14595855D01*
X9881968Y-14595855D02*
X9891491Y-14576808D01*
X9891491Y-14576808D02*
X9910539Y-14548236D01*
X9910539Y-14548236D02*
X9920063Y-14538712D01*
X9977206Y-14567284D02*
X10101015Y-14567284D01*
X10101015Y-14567284D02*
X10034349Y-14643474D01*
X10034349Y-14643474D02*
X10062920Y-14643474D01*
X10062920Y-14643474D02*
X10081968Y-14652998D01*
X10081968Y-14652998D02*
X10091491Y-14662522D01*
X10091491Y-14662522D02*
X10101015Y-14681569D01*
X10101015Y-14681569D02*
X10101015Y-14729188D01*
X10101015Y-14729188D02*
X10091491Y-14748236D01*
X10091491Y-14748236D02*
X10081968Y-14757760D01*
X10081968Y-14757760D02*
X10062920Y-14767284D01*
X10062920Y-14767284D02*
X10005777Y-14767284D01*
X10005777Y-14767284D02*
X9986730Y-14757760D01*
X9986730Y-14757760D02*
X9977206Y-14748236D01*
X10339111Y-14767284D02*
X10339111Y-14567284D01*
X10424825Y-14767284D02*
X10424825Y-14662522D01*
X10424825Y-14662522D02*
X10415301Y-14643474D01*
X10415301Y-14643474D02*
X10396253Y-14633950D01*
X10396253Y-14633950D02*
X10367682Y-14633950D01*
X10367682Y-14633950D02*
X10348634Y-14643474D01*
X10348634Y-14643474D02*
X10339111Y-14652998D01*
X10548634Y-14767284D02*
X10529587Y-14757760D01*
X10529587Y-14757760D02*
X10520063Y-14748236D01*
X10520063Y-14748236D02*
X10510539Y-14729188D01*
X10510539Y-14729188D02*
X10510539Y-14672046D01*
X10510539Y-14672046D02*
X10520063Y-14652998D01*
X10520063Y-14652998D02*
X10529587Y-14643474D01*
X10529587Y-14643474D02*
X10548634Y-14633950D01*
X10548634Y-14633950D02*
X10577206Y-14633950D01*
X10577206Y-14633950D02*
X10596253Y-14643474D01*
X10596253Y-14643474D02*
X10605777Y-14652998D01*
X10605777Y-14652998D02*
X10615301Y-14672046D01*
X10615301Y-14672046D02*
X10615301Y-14729188D01*
X10615301Y-14729188D02*
X10605777Y-14748236D01*
X10605777Y-14748236D02*
X10596253Y-14757760D01*
X10596253Y-14757760D02*
X10577206Y-14767284D01*
X10577206Y-14767284D02*
X10548634Y-14767284D01*
X10729587Y-14767284D02*
X10710539Y-14757760D01*
X10710539Y-14757760D02*
X10701015Y-14738712D01*
X10701015Y-14738712D02*
X10701015Y-14567284D01*
X10881968Y-14757760D02*
X10862920Y-14767284D01*
X10862920Y-14767284D02*
X10824825Y-14767284D01*
X10824825Y-14767284D02*
X10805777Y-14757760D01*
X10805777Y-14757760D02*
X10796253Y-14738712D01*
X10796253Y-14738712D02*
X10796253Y-14662522D01*
X10796253Y-14662522D02*
X10805777Y-14643474D01*
X10805777Y-14643474D02*
X10824825Y-14633950D01*
X10824825Y-14633950D02*
X10862920Y-14633950D01*
X10862920Y-14633950D02*
X10881968Y-14643474D01*
X10881968Y-14643474D02*
X10891492Y-14662522D01*
X10891492Y-14662522D02*
X10891492Y-14681569D01*
X10891492Y-14681569D02*
X10796253Y-14700617D01*
X10967682Y-14757760D02*
X10986730Y-14767284D01*
X10986730Y-14767284D02*
X11024825Y-14767284D01*
X11024825Y-14767284D02*
X11043873Y-14757760D01*
X11043873Y-14757760D02*
X11053396Y-14738712D01*
X11053396Y-14738712D02*
X11053396Y-14729188D01*
X11053396Y-14729188D02*
X11043873Y-14710141D01*
X11043873Y-14710141D02*
X11024825Y-14700617D01*
X11024825Y-14700617D02*
X10996253Y-14700617D01*
X10996253Y-14700617D02*
X10977206Y-14691093D01*
X10977206Y-14691093D02*
X10967682Y-14672046D01*
X10967682Y-14672046D02*
X10967682Y-14662522D01*
X10967682Y-14662522D02*
X10977206Y-14643474D01*
X10977206Y-14643474D02*
X10996253Y-14633950D01*
X10996253Y-14633950D02*
X11024825Y-14633950D01*
X11024825Y-14633950D02*
X11043873Y-14643474D01*
X11120063Y-14843474D02*
X11129587Y-14833950D01*
X11129587Y-14833950D02*
X11148634Y-14805379D01*
X11148634Y-14805379D02*
X11158158Y-14786331D01*
X11158158Y-14786331D02*
X11167682Y-14757760D01*
X11167682Y-14757760D02*
X11177206Y-14710141D01*
X11177206Y-14710141D02*
X11177206Y-14672046D01*
X11177206Y-14672046D02*
X11167682Y-14624427D01*
X11167682Y-14624427D02*
X11158158Y-14595855D01*
X11158158Y-14595855D02*
X11148634Y-14576808D01*
X11148634Y-14576808D02*
X11129587Y-14548236D01*
X11129587Y-14548236D02*
X11120063Y-14538712D01*
D10*
X6315000Y-14909800D02*
X6315000Y-14969800D01*
X6285000Y-14939800D02*
X6345000Y-14939800D01*
D12*
X6643872Y-14831284D02*
X6662920Y-14831284D01*
X6662920Y-14831284D02*
X6681967Y-14840808D01*
X6681967Y-14840808D02*
X6691491Y-14850331D01*
X6691491Y-14850331D02*
X6701015Y-14869379D01*
X6701015Y-14869379D02*
X6710539Y-14907474D01*
X6710539Y-14907474D02*
X6710539Y-14955093D01*
X6710539Y-14955093D02*
X6701015Y-14993188D01*
X6701015Y-14993188D02*
X6691491Y-15012236D01*
X6691491Y-15012236D02*
X6681967Y-15021760D01*
X6681967Y-15021760D02*
X6662920Y-15031284D01*
X6662920Y-15031284D02*
X6643872Y-15031284D01*
X6643872Y-15031284D02*
X6624824Y-15021760D01*
X6624824Y-15021760D02*
X6615301Y-15012236D01*
X6615301Y-15012236D02*
X6605777Y-14993188D01*
X6605777Y-14993188D02*
X6596253Y-14955093D01*
X6596253Y-14955093D02*
X6596253Y-14907474D01*
X6596253Y-14907474D02*
X6605777Y-14869379D01*
X6605777Y-14869379D02*
X6615301Y-14850331D01*
X6615301Y-14850331D02*
X6624824Y-14840808D01*
X6624824Y-14840808D02*
X6643872Y-14831284D01*
X6796253Y-15012236D02*
X6805777Y-15021760D01*
X6805777Y-15021760D02*
X6796253Y-15031284D01*
X6796253Y-15031284D02*
X6786729Y-15021760D01*
X6786729Y-15021760D02*
X6796253Y-15012236D01*
X6796253Y-15012236D02*
X6796253Y-15031284D01*
X6977205Y-14831284D02*
X6939110Y-14831284D01*
X6939110Y-14831284D02*
X6920062Y-14840808D01*
X6920062Y-14840808D02*
X6910539Y-14850331D01*
X6910539Y-14850331D02*
X6891491Y-14878903D01*
X6891491Y-14878903D02*
X6881967Y-14916998D01*
X6881967Y-14916998D02*
X6881967Y-14993188D01*
X6881967Y-14993188D02*
X6891491Y-15012236D01*
X6891491Y-15012236D02*
X6901015Y-15021760D01*
X6901015Y-15021760D02*
X6920062Y-15031284D01*
X6920062Y-15031284D02*
X6958158Y-15031284D01*
X6958158Y-15031284D02*
X6977205Y-15021760D01*
X6977205Y-15021760D02*
X6986729Y-15012236D01*
X6986729Y-15012236D02*
X6996253Y-14993188D01*
X6996253Y-14993188D02*
X6996253Y-14945569D01*
X6996253Y-14945569D02*
X6986729Y-14926522D01*
X6986729Y-14926522D02*
X6977205Y-14916998D01*
X6977205Y-14916998D02*
X6958158Y-14907474D01*
X6958158Y-14907474D02*
X6920062Y-14907474D01*
X6920062Y-14907474D02*
X6901015Y-14916998D01*
X6901015Y-14916998D02*
X6891491Y-14926522D01*
X6891491Y-14926522D02*
X6881967Y-14945569D01*
X7120062Y-14831284D02*
X7139110Y-14831284D01*
X7139110Y-14831284D02*
X7158158Y-14840808D01*
X7158158Y-14840808D02*
X7167682Y-14850331D01*
X7167682Y-14850331D02*
X7177205Y-14869379D01*
X7177205Y-14869379D02*
X7186729Y-14907474D01*
X7186729Y-14907474D02*
X7186729Y-14955093D01*
X7186729Y-14955093D02*
X7177205Y-14993188D01*
X7177205Y-14993188D02*
X7167682Y-15012236D01*
X7167682Y-15012236D02*
X7158158Y-15021760D01*
X7158158Y-15021760D02*
X7139110Y-15031284D01*
X7139110Y-15031284D02*
X7120062Y-15031284D01*
X7120062Y-15031284D02*
X7101015Y-15021760D01*
X7101015Y-15021760D02*
X7091491Y-15012236D01*
X7091491Y-15012236D02*
X7081967Y-14993188D01*
X7081967Y-14993188D02*
X7072443Y-14955093D01*
X7072443Y-14955093D02*
X7072443Y-14907474D01*
X7072443Y-14907474D02*
X7081967Y-14869379D01*
X7081967Y-14869379D02*
X7091491Y-14850331D01*
X7091491Y-14850331D02*
X7101015Y-14840808D01*
X7101015Y-14840808D02*
X7120062Y-14831284D01*
X7310539Y-14831284D02*
X7329586Y-14831284D01*
X7329586Y-14831284D02*
X7348634Y-14840808D01*
X7348634Y-14840808D02*
X7358158Y-14850331D01*
X7358158Y-14850331D02*
X7367682Y-14869379D01*
X7367682Y-14869379D02*
X7377205Y-14907474D01*
X7377205Y-14907474D02*
X7377205Y-14955093D01*
X7377205Y-14955093D02*
X7367682Y-14993188D01*
X7367682Y-14993188D02*
X7358158Y-15012236D01*
X7358158Y-15012236D02*
X7348634Y-15021760D01*
X7348634Y-15021760D02*
X7329586Y-15031284D01*
X7329586Y-15031284D02*
X7310539Y-15031284D01*
X7310539Y-15031284D02*
X7291491Y-15021760D01*
X7291491Y-15021760D02*
X7281967Y-15012236D01*
X7281967Y-15012236D02*
X7272443Y-14993188D01*
X7272443Y-14993188D02*
X7262920Y-14955093D01*
X7262920Y-14955093D02*
X7262920Y-14907474D01*
X7262920Y-14907474D02*
X7272443Y-14869379D01*
X7272443Y-14869379D02*
X7281967Y-14850331D01*
X7281967Y-14850331D02*
X7291491Y-14840808D01*
X7291491Y-14840808D02*
X7310539Y-14831284D01*
X7462920Y-15031284D02*
X7462920Y-14897950D01*
X7462920Y-14916998D02*
X7472443Y-14907474D01*
X7472443Y-14907474D02*
X7491491Y-14897950D01*
X7491491Y-14897950D02*
X7520063Y-14897950D01*
X7520063Y-14897950D02*
X7539110Y-14907474D01*
X7539110Y-14907474D02*
X7548634Y-14926522D01*
X7548634Y-14926522D02*
X7548634Y-15031284D01*
X7548634Y-14926522D02*
X7558158Y-14907474D01*
X7558158Y-14907474D02*
X7577205Y-14897950D01*
X7577205Y-14897950D02*
X7605777Y-14897950D01*
X7605777Y-14897950D02*
X7624824Y-14907474D01*
X7624824Y-14907474D02*
X7634348Y-14926522D01*
X7634348Y-14926522D02*
X7634348Y-15031284D01*
X7729586Y-15031284D02*
X7729586Y-14897950D01*
X7729586Y-14916998D02*
X7739110Y-14907474D01*
X7739110Y-14907474D02*
X7758158Y-14897950D01*
X7758158Y-14897950D02*
X7786729Y-14897950D01*
X7786729Y-14897950D02*
X7805777Y-14907474D01*
X7805777Y-14907474D02*
X7815301Y-14926522D01*
X7815301Y-14926522D02*
X7815301Y-15031284D01*
X7815301Y-14926522D02*
X7824824Y-14907474D01*
X7824824Y-14907474D02*
X7843872Y-14897950D01*
X7843872Y-14897950D02*
X7872443Y-14897950D01*
X7872443Y-14897950D02*
X7891491Y-14907474D01*
X7891491Y-14907474D02*
X7901015Y-14926522D01*
X7901015Y-14926522D02*
X7901015Y-15031284D01*
X8291491Y-14821760D02*
X8120063Y-15078903D01*
X8548634Y-14831284D02*
X8567682Y-14831284D01*
X8567682Y-14831284D02*
X8586729Y-14840808D01*
X8586729Y-14840808D02*
X8596253Y-14850331D01*
X8596253Y-14850331D02*
X8605777Y-14869379D01*
X8605777Y-14869379D02*
X8615301Y-14907474D01*
X8615301Y-14907474D02*
X8615301Y-14955093D01*
X8615301Y-14955093D02*
X8605777Y-14993188D01*
X8605777Y-14993188D02*
X8596253Y-15012236D01*
X8596253Y-15012236D02*
X8586729Y-15021760D01*
X8586729Y-15021760D02*
X8567682Y-15031284D01*
X8567682Y-15031284D02*
X8548634Y-15031284D01*
X8548634Y-15031284D02*
X8529587Y-15021760D01*
X8529587Y-15021760D02*
X8520063Y-15012236D01*
X8520063Y-15012236D02*
X8510539Y-14993188D01*
X8510539Y-14993188D02*
X8501015Y-14955093D01*
X8501015Y-14955093D02*
X8501015Y-14907474D01*
X8501015Y-14907474D02*
X8510539Y-14869379D01*
X8510539Y-14869379D02*
X8520063Y-14850331D01*
X8520063Y-14850331D02*
X8529587Y-14840808D01*
X8529587Y-14840808D02*
X8548634Y-14831284D01*
X8701015Y-15012236D02*
X8710539Y-15021760D01*
X8710539Y-15021760D02*
X8701015Y-15031284D01*
X8701015Y-15031284D02*
X8691491Y-15021760D01*
X8691491Y-15021760D02*
X8701015Y-15012236D01*
X8701015Y-15012236D02*
X8701015Y-15031284D01*
X8834348Y-14831284D02*
X8853396Y-14831284D01*
X8853396Y-14831284D02*
X8872444Y-14840808D01*
X8872444Y-14840808D02*
X8881968Y-14850331D01*
X8881968Y-14850331D02*
X8891491Y-14869379D01*
X8891491Y-14869379D02*
X8901015Y-14907474D01*
X8901015Y-14907474D02*
X8901015Y-14955093D01*
X8901015Y-14955093D02*
X8891491Y-14993188D01*
X8891491Y-14993188D02*
X8881968Y-15012236D01*
X8881968Y-15012236D02*
X8872444Y-15021760D01*
X8872444Y-15021760D02*
X8853396Y-15031284D01*
X8853396Y-15031284D02*
X8834348Y-15031284D01*
X8834348Y-15031284D02*
X8815301Y-15021760D01*
X8815301Y-15021760D02*
X8805777Y-15012236D01*
X8805777Y-15012236D02*
X8796253Y-14993188D01*
X8796253Y-14993188D02*
X8786729Y-14955093D01*
X8786729Y-14955093D02*
X8786729Y-14907474D01*
X8786729Y-14907474D02*
X8796253Y-14869379D01*
X8796253Y-14869379D02*
X8805777Y-14850331D01*
X8805777Y-14850331D02*
X8815301Y-14840808D01*
X8815301Y-14840808D02*
X8834348Y-14831284D01*
X8977206Y-14850331D02*
X8986729Y-14840808D01*
X8986729Y-14840808D02*
X9005777Y-14831284D01*
X9005777Y-14831284D02*
X9053396Y-14831284D01*
X9053396Y-14831284D02*
X9072444Y-14840808D01*
X9072444Y-14840808D02*
X9081968Y-14850331D01*
X9081968Y-14850331D02*
X9091491Y-14869379D01*
X9091491Y-14869379D02*
X9091491Y-14888427D01*
X9091491Y-14888427D02*
X9081968Y-14916998D01*
X9081968Y-14916998D02*
X8967682Y-15031284D01*
X8967682Y-15031284D02*
X9091491Y-15031284D01*
X9158158Y-14831284D02*
X9281968Y-14831284D01*
X9281968Y-14831284D02*
X9215301Y-14907474D01*
X9215301Y-14907474D02*
X9243872Y-14907474D01*
X9243872Y-14907474D02*
X9262920Y-14916998D01*
X9262920Y-14916998D02*
X9272444Y-14926522D01*
X9272444Y-14926522D02*
X9281968Y-14945569D01*
X9281968Y-14945569D02*
X9281968Y-14993188D01*
X9281968Y-14993188D02*
X9272444Y-15012236D01*
X9272444Y-15012236D02*
X9262920Y-15021760D01*
X9262920Y-15021760D02*
X9243872Y-15031284D01*
X9243872Y-15031284D02*
X9186729Y-15031284D01*
X9186729Y-15031284D02*
X9167682Y-15021760D01*
X9167682Y-15021760D02*
X9158158Y-15012236D01*
X9453396Y-14831284D02*
X9415301Y-14831284D01*
X9415301Y-14831284D02*
X9396253Y-14840808D01*
X9396253Y-14840808D02*
X9386729Y-14850331D01*
X9386729Y-14850331D02*
X9367682Y-14878903D01*
X9367682Y-14878903D02*
X9358158Y-14916998D01*
X9358158Y-14916998D02*
X9358158Y-14993188D01*
X9358158Y-14993188D02*
X9367682Y-15012236D01*
X9367682Y-15012236D02*
X9377206Y-15021760D01*
X9377206Y-15021760D02*
X9396253Y-15031284D01*
X9396253Y-15031284D02*
X9434349Y-15031284D01*
X9434349Y-15031284D02*
X9453396Y-15021760D01*
X9453396Y-15021760D02*
X9462920Y-15012236D01*
X9462920Y-15012236D02*
X9472444Y-14993188D01*
X9472444Y-14993188D02*
X9472444Y-14945569D01*
X9472444Y-14945569D02*
X9462920Y-14926522D01*
X9462920Y-14926522D02*
X9453396Y-14916998D01*
X9453396Y-14916998D02*
X9434349Y-14907474D01*
X9434349Y-14907474D02*
X9396253Y-14907474D01*
X9396253Y-14907474D02*
X9377206Y-14916998D01*
X9377206Y-14916998D02*
X9367682Y-14926522D01*
X9367682Y-14926522D02*
X9358158Y-14945569D01*
X9548634Y-14831284D02*
X9548634Y-14869379D01*
X9624825Y-14831284D02*
X9624825Y-14869379D01*
X9920063Y-15107474D02*
X9910539Y-15097950D01*
X9910539Y-15097950D02*
X9891491Y-15069379D01*
X9891491Y-15069379D02*
X9881968Y-15050331D01*
X9881968Y-15050331D02*
X9872444Y-15021760D01*
X9872444Y-15021760D02*
X9862920Y-14974141D01*
X9862920Y-14974141D02*
X9862920Y-14936046D01*
X9862920Y-14936046D02*
X9872444Y-14888427D01*
X9872444Y-14888427D02*
X9881968Y-14859855D01*
X9881968Y-14859855D02*
X9891491Y-14840808D01*
X9891491Y-14840808D02*
X9910539Y-14812236D01*
X9910539Y-14812236D02*
X9920063Y-14802712D01*
X10034349Y-14831284D02*
X10053396Y-14831284D01*
X10053396Y-14831284D02*
X10072444Y-14840808D01*
X10072444Y-14840808D02*
X10081968Y-14850331D01*
X10081968Y-14850331D02*
X10091491Y-14869379D01*
X10091491Y-14869379D02*
X10101015Y-14907474D01*
X10101015Y-14907474D02*
X10101015Y-14955093D01*
X10101015Y-14955093D02*
X10091491Y-14993188D01*
X10091491Y-14993188D02*
X10081968Y-15012236D01*
X10081968Y-15012236D02*
X10072444Y-15021760D01*
X10072444Y-15021760D02*
X10053396Y-15031284D01*
X10053396Y-15031284D02*
X10034349Y-15031284D01*
X10034349Y-15031284D02*
X10015301Y-15021760D01*
X10015301Y-15021760D02*
X10005777Y-15012236D01*
X10005777Y-15012236D02*
X9996253Y-14993188D01*
X9996253Y-14993188D02*
X9986730Y-14955093D01*
X9986730Y-14955093D02*
X9986730Y-14907474D01*
X9986730Y-14907474D02*
X9996253Y-14869379D01*
X9996253Y-14869379D02*
X10005777Y-14850331D01*
X10005777Y-14850331D02*
X10015301Y-14840808D01*
X10015301Y-14840808D02*
X10034349Y-14831284D01*
X10339111Y-15031284D02*
X10339111Y-14831284D01*
X10424825Y-15031284D02*
X10424825Y-14926522D01*
X10424825Y-14926522D02*
X10415301Y-14907474D01*
X10415301Y-14907474D02*
X10396253Y-14897950D01*
X10396253Y-14897950D02*
X10367682Y-14897950D01*
X10367682Y-14897950D02*
X10348634Y-14907474D01*
X10348634Y-14907474D02*
X10339111Y-14916998D01*
X10548634Y-15031284D02*
X10529587Y-15021760D01*
X10529587Y-15021760D02*
X10520063Y-15012236D01*
X10520063Y-15012236D02*
X10510539Y-14993188D01*
X10510539Y-14993188D02*
X10510539Y-14936046D01*
X10510539Y-14936046D02*
X10520063Y-14916998D01*
X10520063Y-14916998D02*
X10529587Y-14907474D01*
X10529587Y-14907474D02*
X10548634Y-14897950D01*
X10548634Y-14897950D02*
X10577206Y-14897950D01*
X10577206Y-14897950D02*
X10596253Y-14907474D01*
X10596253Y-14907474D02*
X10605777Y-14916998D01*
X10605777Y-14916998D02*
X10615301Y-14936046D01*
X10615301Y-14936046D02*
X10615301Y-14993188D01*
X10615301Y-14993188D02*
X10605777Y-15012236D01*
X10605777Y-15012236D02*
X10596253Y-15021760D01*
X10596253Y-15021760D02*
X10577206Y-15031284D01*
X10577206Y-15031284D02*
X10548634Y-15031284D01*
X10729587Y-15031284D02*
X10710539Y-15021760D01*
X10710539Y-15021760D02*
X10701015Y-15002712D01*
X10701015Y-15002712D02*
X10701015Y-14831284D01*
X10881968Y-15021760D02*
X10862920Y-15031284D01*
X10862920Y-15031284D02*
X10824825Y-15031284D01*
X10824825Y-15031284D02*
X10805777Y-15021760D01*
X10805777Y-15021760D02*
X10796253Y-15002712D01*
X10796253Y-15002712D02*
X10796253Y-14926522D01*
X10796253Y-14926522D02*
X10805777Y-14907474D01*
X10805777Y-14907474D02*
X10824825Y-14897950D01*
X10824825Y-14897950D02*
X10862920Y-14897950D01*
X10862920Y-14897950D02*
X10881968Y-14907474D01*
X10881968Y-14907474D02*
X10891492Y-14926522D01*
X10891492Y-14926522D02*
X10891492Y-14945569D01*
X10891492Y-14945569D02*
X10796253Y-14964617D01*
X10967682Y-15021760D02*
X10986730Y-15031284D01*
X10986730Y-15031284D02*
X11024825Y-15031284D01*
X11024825Y-15031284D02*
X11043873Y-15021760D01*
X11043873Y-15021760D02*
X11053396Y-15002712D01*
X11053396Y-15002712D02*
X11053396Y-14993188D01*
X11053396Y-14993188D02*
X11043873Y-14974141D01*
X11043873Y-14974141D02*
X11024825Y-14964617D01*
X11024825Y-14964617D02*
X10996253Y-14964617D01*
X10996253Y-14964617D02*
X10977206Y-14955093D01*
X10977206Y-14955093D02*
X10967682Y-14936046D01*
X10967682Y-14936046D02*
X10967682Y-14926522D01*
X10967682Y-14926522D02*
X10977206Y-14907474D01*
X10977206Y-14907474D02*
X10996253Y-14897950D01*
X10996253Y-14897950D02*
X11024825Y-14897950D01*
X11024825Y-14897950D02*
X11043873Y-14907474D01*
X11291492Y-14955093D02*
X11443873Y-14955093D01*
X11367682Y-15031284D02*
X11367682Y-14878903D01*
X11777206Y-14897950D02*
X11777206Y-15031284D01*
X11729587Y-14821760D02*
X11681968Y-14964617D01*
X11681968Y-14964617D02*
X11805777Y-14964617D01*
X12024825Y-15021760D02*
X12043873Y-15031284D01*
X12043873Y-15031284D02*
X12081968Y-15031284D01*
X12081968Y-15031284D02*
X12101015Y-15021760D01*
X12101015Y-15021760D02*
X12110539Y-15002712D01*
X12110539Y-15002712D02*
X12110539Y-14993188D01*
X12110539Y-14993188D02*
X12101015Y-14974141D01*
X12101015Y-14974141D02*
X12081968Y-14964617D01*
X12081968Y-14964617D02*
X12053396Y-14964617D01*
X12053396Y-14964617D02*
X12034349Y-14955093D01*
X12034349Y-14955093D02*
X12024825Y-14936046D01*
X12024825Y-14936046D02*
X12024825Y-14926522D01*
X12024825Y-14926522D02*
X12034349Y-14907474D01*
X12034349Y-14907474D02*
X12053396Y-14897950D01*
X12053396Y-14897950D02*
X12081968Y-14897950D01*
X12081968Y-14897950D02*
X12101015Y-14907474D01*
X12224825Y-15031284D02*
X12205777Y-15021760D01*
X12205777Y-15021760D02*
X12196254Y-15002712D01*
X12196254Y-15002712D02*
X12196254Y-14831284D01*
X12329587Y-15031284D02*
X12310539Y-15021760D01*
X12310539Y-15021760D02*
X12301015Y-15012236D01*
X12301015Y-15012236D02*
X12291492Y-14993188D01*
X12291492Y-14993188D02*
X12291492Y-14936046D01*
X12291492Y-14936046D02*
X12301015Y-14916998D01*
X12301015Y-14916998D02*
X12310539Y-14907474D01*
X12310539Y-14907474D02*
X12329587Y-14897950D01*
X12329587Y-14897950D02*
X12358158Y-14897950D01*
X12358158Y-14897950D02*
X12377206Y-14907474D01*
X12377206Y-14907474D02*
X12386730Y-14916998D01*
X12386730Y-14916998D02*
X12396254Y-14936046D01*
X12396254Y-14936046D02*
X12396254Y-14993188D01*
X12396254Y-14993188D02*
X12386730Y-15012236D01*
X12386730Y-15012236D02*
X12377206Y-15021760D01*
X12377206Y-15021760D02*
X12358158Y-15031284D01*
X12358158Y-15031284D02*
X12329587Y-15031284D01*
X12453396Y-14897950D02*
X12529587Y-14897950D01*
X12481968Y-14831284D02*
X12481968Y-15002712D01*
X12481968Y-15002712D02*
X12491492Y-15021760D01*
X12491492Y-15021760D02*
X12510539Y-15031284D01*
X12510539Y-15031284D02*
X12529587Y-15031284D01*
X12586730Y-15021760D02*
X12605777Y-15031284D01*
X12605777Y-15031284D02*
X12643873Y-15031284D01*
X12643873Y-15031284D02*
X12662920Y-15021760D01*
X12662920Y-15021760D02*
X12672444Y-15002712D01*
X12672444Y-15002712D02*
X12672444Y-14993188D01*
X12672444Y-14993188D02*
X12662920Y-14974141D01*
X12662920Y-14974141D02*
X12643873Y-14964617D01*
X12643873Y-14964617D02*
X12615301Y-14964617D01*
X12615301Y-14964617D02*
X12596254Y-14955093D01*
X12596254Y-14955093D02*
X12586730Y-14936046D01*
X12586730Y-14936046D02*
X12586730Y-14926522D01*
X12586730Y-14926522D02*
X12596254Y-14907474D01*
X12596254Y-14907474D02*
X12615301Y-14897950D01*
X12615301Y-14897950D02*
X12643873Y-14897950D01*
X12643873Y-14897950D02*
X12662920Y-14907474D01*
X12739111Y-15107474D02*
X12748635Y-15097950D01*
X12748635Y-15097950D02*
X12767682Y-15069379D01*
X12767682Y-15069379D02*
X12777206Y-15050331D01*
X12777206Y-15050331D02*
X12786730Y-15021760D01*
X12786730Y-15021760D02*
X12796254Y-14974141D01*
X12796254Y-14974141D02*
X12796254Y-14936046D01*
X12796254Y-14936046D02*
X12786730Y-14888427D01*
X12786730Y-14888427D02*
X12777206Y-14859855D01*
X12777206Y-14859855D02*
X12767682Y-14840808D01*
X12767682Y-14840808D02*
X12748635Y-14812236D01*
X12748635Y-14812236D02*
X12739111Y-14802712D01*
D10*
X6334749Y-15228550D02*
X6334749Y-15179050D01*
X6285249Y-15179050D01*
X6285249Y-15228550D01*
X6334749Y-15228550D01*
D12*
X6643872Y-15095284D02*
X6662920Y-15095284D01*
X6662920Y-15095284D02*
X6681967Y-15104808D01*
X6681967Y-15104808D02*
X6691491Y-15114331D01*
X6691491Y-15114331D02*
X6701015Y-15133379D01*
X6701015Y-15133379D02*
X6710539Y-15171474D01*
X6710539Y-15171474D02*
X6710539Y-15219093D01*
X6710539Y-15219093D02*
X6701015Y-15257188D01*
X6701015Y-15257188D02*
X6691491Y-15276236D01*
X6691491Y-15276236D02*
X6681967Y-15285760D01*
X6681967Y-15285760D02*
X6662920Y-15295284D01*
X6662920Y-15295284D02*
X6643872Y-15295284D01*
X6643872Y-15295284D02*
X6624824Y-15285760D01*
X6624824Y-15285760D02*
X6615301Y-15276236D01*
X6615301Y-15276236D02*
X6605777Y-15257188D01*
X6605777Y-15257188D02*
X6596253Y-15219093D01*
X6596253Y-15219093D02*
X6596253Y-15171474D01*
X6596253Y-15171474D02*
X6605777Y-15133379D01*
X6605777Y-15133379D02*
X6615301Y-15114331D01*
X6615301Y-15114331D02*
X6624824Y-15104808D01*
X6624824Y-15104808D02*
X6643872Y-15095284D01*
X6796253Y-15276236D02*
X6805777Y-15285760D01*
X6805777Y-15285760D02*
X6796253Y-15295284D01*
X6796253Y-15295284D02*
X6786729Y-15285760D01*
X6786729Y-15285760D02*
X6796253Y-15276236D01*
X6796253Y-15276236D02*
X6796253Y-15295284D01*
X6872443Y-15095284D02*
X7005777Y-15095284D01*
X7005777Y-15095284D02*
X6920062Y-15295284D01*
X7120062Y-15095284D02*
X7139110Y-15095284D01*
X7139110Y-15095284D02*
X7158158Y-15104808D01*
X7158158Y-15104808D02*
X7167682Y-15114331D01*
X7167682Y-15114331D02*
X7177205Y-15133379D01*
X7177205Y-15133379D02*
X7186729Y-15171474D01*
X7186729Y-15171474D02*
X7186729Y-15219093D01*
X7186729Y-15219093D02*
X7177205Y-15257188D01*
X7177205Y-15257188D02*
X7167682Y-15276236D01*
X7167682Y-15276236D02*
X7158158Y-15285760D01*
X7158158Y-15285760D02*
X7139110Y-15295284D01*
X7139110Y-15295284D02*
X7120062Y-15295284D01*
X7120062Y-15295284D02*
X7101015Y-15285760D01*
X7101015Y-15285760D02*
X7091491Y-15276236D01*
X7091491Y-15276236D02*
X7081967Y-15257188D01*
X7081967Y-15257188D02*
X7072443Y-15219093D01*
X7072443Y-15219093D02*
X7072443Y-15171474D01*
X7072443Y-15171474D02*
X7081967Y-15133379D01*
X7081967Y-15133379D02*
X7091491Y-15114331D01*
X7091491Y-15114331D02*
X7101015Y-15104808D01*
X7101015Y-15104808D02*
X7120062Y-15095284D01*
X7310539Y-15095284D02*
X7329586Y-15095284D01*
X7329586Y-15095284D02*
X7348634Y-15104808D01*
X7348634Y-15104808D02*
X7358158Y-15114331D01*
X7358158Y-15114331D02*
X7367682Y-15133379D01*
X7367682Y-15133379D02*
X7377205Y-15171474D01*
X7377205Y-15171474D02*
X7377205Y-15219093D01*
X7377205Y-15219093D02*
X7367682Y-15257188D01*
X7367682Y-15257188D02*
X7358158Y-15276236D01*
X7358158Y-15276236D02*
X7348634Y-15285760D01*
X7348634Y-15285760D02*
X7329586Y-15295284D01*
X7329586Y-15295284D02*
X7310539Y-15295284D01*
X7310539Y-15295284D02*
X7291491Y-15285760D01*
X7291491Y-15285760D02*
X7281967Y-15276236D01*
X7281967Y-15276236D02*
X7272443Y-15257188D01*
X7272443Y-15257188D02*
X7262920Y-15219093D01*
X7262920Y-15219093D02*
X7262920Y-15171474D01*
X7262920Y-15171474D02*
X7272443Y-15133379D01*
X7272443Y-15133379D02*
X7281967Y-15114331D01*
X7281967Y-15114331D02*
X7291491Y-15104808D01*
X7291491Y-15104808D02*
X7310539Y-15095284D01*
X7462920Y-15295284D02*
X7462920Y-15161950D01*
X7462920Y-15180998D02*
X7472443Y-15171474D01*
X7472443Y-15171474D02*
X7491491Y-15161950D01*
X7491491Y-15161950D02*
X7520063Y-15161950D01*
X7520063Y-15161950D02*
X7539110Y-15171474D01*
X7539110Y-15171474D02*
X7548634Y-15190522D01*
X7548634Y-15190522D02*
X7548634Y-15295284D01*
X7548634Y-15190522D02*
X7558158Y-15171474D01*
X7558158Y-15171474D02*
X7577205Y-15161950D01*
X7577205Y-15161950D02*
X7605777Y-15161950D01*
X7605777Y-15161950D02*
X7624824Y-15171474D01*
X7624824Y-15171474D02*
X7634348Y-15190522D01*
X7634348Y-15190522D02*
X7634348Y-15295284D01*
X7729586Y-15295284D02*
X7729586Y-15161950D01*
X7729586Y-15180998D02*
X7739110Y-15171474D01*
X7739110Y-15171474D02*
X7758158Y-15161950D01*
X7758158Y-15161950D02*
X7786729Y-15161950D01*
X7786729Y-15161950D02*
X7805777Y-15171474D01*
X7805777Y-15171474D02*
X7815301Y-15190522D01*
X7815301Y-15190522D02*
X7815301Y-15295284D01*
X7815301Y-15190522D02*
X7824824Y-15171474D01*
X7824824Y-15171474D02*
X7843872Y-15161950D01*
X7843872Y-15161950D02*
X7872443Y-15161950D01*
X7872443Y-15161950D02*
X7891491Y-15171474D01*
X7891491Y-15171474D02*
X7901015Y-15190522D01*
X7901015Y-15190522D02*
X7901015Y-15295284D01*
X8291491Y-15085760D02*
X8120063Y-15342903D01*
X8548634Y-15095284D02*
X8567682Y-15095284D01*
X8567682Y-15095284D02*
X8586729Y-15104808D01*
X8586729Y-15104808D02*
X8596253Y-15114331D01*
X8596253Y-15114331D02*
X8605777Y-15133379D01*
X8605777Y-15133379D02*
X8615301Y-15171474D01*
X8615301Y-15171474D02*
X8615301Y-15219093D01*
X8615301Y-15219093D02*
X8605777Y-15257188D01*
X8605777Y-15257188D02*
X8596253Y-15276236D01*
X8596253Y-15276236D02*
X8586729Y-15285760D01*
X8586729Y-15285760D02*
X8567682Y-15295284D01*
X8567682Y-15295284D02*
X8548634Y-15295284D01*
X8548634Y-15295284D02*
X8529587Y-15285760D01*
X8529587Y-15285760D02*
X8520063Y-15276236D01*
X8520063Y-15276236D02*
X8510539Y-15257188D01*
X8510539Y-15257188D02*
X8501015Y-15219093D01*
X8501015Y-15219093D02*
X8501015Y-15171474D01*
X8501015Y-15171474D02*
X8510539Y-15133379D01*
X8510539Y-15133379D02*
X8520063Y-15114331D01*
X8520063Y-15114331D02*
X8529587Y-15104808D01*
X8529587Y-15104808D02*
X8548634Y-15095284D01*
X8701015Y-15276236D02*
X8710539Y-15285760D01*
X8710539Y-15285760D02*
X8701015Y-15295284D01*
X8701015Y-15295284D02*
X8691491Y-15285760D01*
X8691491Y-15285760D02*
X8701015Y-15276236D01*
X8701015Y-15276236D02*
X8701015Y-15295284D01*
X8834348Y-15095284D02*
X8853396Y-15095284D01*
X8853396Y-15095284D02*
X8872444Y-15104808D01*
X8872444Y-15104808D02*
X8881968Y-15114331D01*
X8881968Y-15114331D02*
X8891491Y-15133379D01*
X8891491Y-15133379D02*
X8901015Y-15171474D01*
X8901015Y-15171474D02*
X8901015Y-15219093D01*
X8901015Y-15219093D02*
X8891491Y-15257188D01*
X8891491Y-15257188D02*
X8881968Y-15276236D01*
X8881968Y-15276236D02*
X8872444Y-15285760D01*
X8872444Y-15285760D02*
X8853396Y-15295284D01*
X8853396Y-15295284D02*
X8834348Y-15295284D01*
X8834348Y-15295284D02*
X8815301Y-15285760D01*
X8815301Y-15285760D02*
X8805777Y-15276236D01*
X8805777Y-15276236D02*
X8796253Y-15257188D01*
X8796253Y-15257188D02*
X8786729Y-15219093D01*
X8786729Y-15219093D02*
X8786729Y-15171474D01*
X8786729Y-15171474D02*
X8796253Y-15133379D01*
X8796253Y-15133379D02*
X8805777Y-15114331D01*
X8805777Y-15114331D02*
X8815301Y-15104808D01*
X8815301Y-15104808D02*
X8834348Y-15095284D01*
X8977206Y-15114331D02*
X8986729Y-15104808D01*
X8986729Y-15104808D02*
X9005777Y-15095284D01*
X9005777Y-15095284D02*
X9053396Y-15095284D01*
X9053396Y-15095284D02*
X9072444Y-15104808D01*
X9072444Y-15104808D02*
X9081968Y-15114331D01*
X9081968Y-15114331D02*
X9091491Y-15133379D01*
X9091491Y-15133379D02*
X9091491Y-15152427D01*
X9091491Y-15152427D02*
X9081968Y-15180998D01*
X9081968Y-15180998D02*
X8967682Y-15295284D01*
X8967682Y-15295284D02*
X9091491Y-15295284D01*
X9158158Y-15095284D02*
X9291491Y-15095284D01*
X9291491Y-15095284D02*
X9205777Y-15295284D01*
X9453396Y-15095284D02*
X9415301Y-15095284D01*
X9415301Y-15095284D02*
X9396253Y-15104808D01*
X9396253Y-15104808D02*
X9386729Y-15114331D01*
X9386729Y-15114331D02*
X9367682Y-15142903D01*
X9367682Y-15142903D02*
X9358158Y-15180998D01*
X9358158Y-15180998D02*
X9358158Y-15257188D01*
X9358158Y-15257188D02*
X9367682Y-15276236D01*
X9367682Y-15276236D02*
X9377206Y-15285760D01*
X9377206Y-15285760D02*
X9396253Y-15295284D01*
X9396253Y-15295284D02*
X9434349Y-15295284D01*
X9434349Y-15295284D02*
X9453396Y-15285760D01*
X9453396Y-15285760D02*
X9462920Y-15276236D01*
X9462920Y-15276236D02*
X9472444Y-15257188D01*
X9472444Y-15257188D02*
X9472444Y-15209569D01*
X9472444Y-15209569D02*
X9462920Y-15190522D01*
X9462920Y-15190522D02*
X9453396Y-15180998D01*
X9453396Y-15180998D02*
X9434349Y-15171474D01*
X9434349Y-15171474D02*
X9396253Y-15171474D01*
X9396253Y-15171474D02*
X9377206Y-15180998D01*
X9377206Y-15180998D02*
X9367682Y-15190522D01*
X9367682Y-15190522D02*
X9358158Y-15209569D01*
X9548634Y-15095284D02*
X9548634Y-15133379D01*
X9624825Y-15095284D02*
X9624825Y-15133379D01*
X9920063Y-15371474D02*
X9910539Y-15361950D01*
X9910539Y-15361950D02*
X9891491Y-15333379D01*
X9891491Y-15333379D02*
X9881968Y-15314331D01*
X9881968Y-15314331D02*
X9872444Y-15285760D01*
X9872444Y-15285760D02*
X9862920Y-15238141D01*
X9862920Y-15238141D02*
X9862920Y-15200046D01*
X9862920Y-15200046D02*
X9872444Y-15152427D01*
X9872444Y-15152427D02*
X9881968Y-15123855D01*
X9881968Y-15123855D02*
X9891491Y-15104808D01*
X9891491Y-15104808D02*
X9910539Y-15076236D01*
X9910539Y-15076236D02*
X9920063Y-15066712D01*
X10034349Y-15095284D02*
X10053396Y-15095284D01*
X10053396Y-15095284D02*
X10072444Y-15104808D01*
X10072444Y-15104808D02*
X10081968Y-15114331D01*
X10081968Y-15114331D02*
X10091491Y-15133379D01*
X10091491Y-15133379D02*
X10101015Y-15171474D01*
X10101015Y-15171474D02*
X10101015Y-15219093D01*
X10101015Y-15219093D02*
X10091491Y-15257188D01*
X10091491Y-15257188D02*
X10081968Y-15276236D01*
X10081968Y-15276236D02*
X10072444Y-15285760D01*
X10072444Y-15285760D02*
X10053396Y-15295284D01*
X10053396Y-15295284D02*
X10034349Y-15295284D01*
X10034349Y-15295284D02*
X10015301Y-15285760D01*
X10015301Y-15285760D02*
X10005777Y-15276236D01*
X10005777Y-15276236D02*
X9996253Y-15257188D01*
X9996253Y-15257188D02*
X9986730Y-15219093D01*
X9986730Y-15219093D02*
X9986730Y-15171474D01*
X9986730Y-15171474D02*
X9996253Y-15133379D01*
X9996253Y-15133379D02*
X10005777Y-15114331D01*
X10005777Y-15114331D02*
X10015301Y-15104808D01*
X10015301Y-15104808D02*
X10034349Y-15095284D01*
X10339111Y-15295284D02*
X10339111Y-15095284D01*
X10424825Y-15295284D02*
X10424825Y-15190522D01*
X10424825Y-15190522D02*
X10415301Y-15171474D01*
X10415301Y-15171474D02*
X10396253Y-15161950D01*
X10396253Y-15161950D02*
X10367682Y-15161950D01*
X10367682Y-15161950D02*
X10348634Y-15171474D01*
X10348634Y-15171474D02*
X10339111Y-15180998D01*
X10548634Y-15295284D02*
X10529587Y-15285760D01*
X10529587Y-15285760D02*
X10520063Y-15276236D01*
X10520063Y-15276236D02*
X10510539Y-15257188D01*
X10510539Y-15257188D02*
X10510539Y-15200046D01*
X10510539Y-15200046D02*
X10520063Y-15180998D01*
X10520063Y-15180998D02*
X10529587Y-15171474D01*
X10529587Y-15171474D02*
X10548634Y-15161950D01*
X10548634Y-15161950D02*
X10577206Y-15161950D01*
X10577206Y-15161950D02*
X10596253Y-15171474D01*
X10596253Y-15171474D02*
X10605777Y-15180998D01*
X10605777Y-15180998D02*
X10615301Y-15200046D01*
X10615301Y-15200046D02*
X10615301Y-15257188D01*
X10615301Y-15257188D02*
X10605777Y-15276236D01*
X10605777Y-15276236D02*
X10596253Y-15285760D01*
X10596253Y-15285760D02*
X10577206Y-15295284D01*
X10577206Y-15295284D02*
X10548634Y-15295284D01*
X10729587Y-15295284D02*
X10710539Y-15285760D01*
X10710539Y-15285760D02*
X10701015Y-15266712D01*
X10701015Y-15266712D02*
X10701015Y-15095284D01*
X10881968Y-15285760D02*
X10862920Y-15295284D01*
X10862920Y-15295284D02*
X10824825Y-15295284D01*
X10824825Y-15295284D02*
X10805777Y-15285760D01*
X10805777Y-15285760D02*
X10796253Y-15266712D01*
X10796253Y-15266712D02*
X10796253Y-15190522D01*
X10796253Y-15190522D02*
X10805777Y-15171474D01*
X10805777Y-15171474D02*
X10824825Y-15161950D01*
X10824825Y-15161950D02*
X10862920Y-15161950D01*
X10862920Y-15161950D02*
X10881968Y-15171474D01*
X10881968Y-15171474D02*
X10891492Y-15190522D01*
X10891492Y-15190522D02*
X10891492Y-15209569D01*
X10891492Y-15209569D02*
X10796253Y-15228617D01*
X10967682Y-15285760D02*
X10986730Y-15295284D01*
X10986730Y-15295284D02*
X11024825Y-15295284D01*
X11024825Y-15295284D02*
X11043873Y-15285760D01*
X11043873Y-15285760D02*
X11053396Y-15266712D01*
X11053396Y-15266712D02*
X11053396Y-15257188D01*
X11053396Y-15257188D02*
X11043873Y-15238141D01*
X11043873Y-15238141D02*
X11024825Y-15228617D01*
X11024825Y-15228617D02*
X10996253Y-15228617D01*
X10996253Y-15228617D02*
X10977206Y-15219093D01*
X10977206Y-15219093D02*
X10967682Y-15200046D01*
X10967682Y-15200046D02*
X10967682Y-15190522D01*
X10967682Y-15190522D02*
X10977206Y-15171474D01*
X10977206Y-15171474D02*
X10996253Y-15161950D01*
X10996253Y-15161950D02*
X11024825Y-15161950D01*
X11024825Y-15161950D02*
X11043873Y-15171474D01*
X11291492Y-15219093D02*
X11443873Y-15219093D01*
X11367682Y-15295284D02*
X11367682Y-15142903D01*
X11681968Y-15114331D02*
X11691492Y-15104808D01*
X11691492Y-15104808D02*
X11710539Y-15095284D01*
X11710539Y-15095284D02*
X11758158Y-15095284D01*
X11758158Y-15095284D02*
X11777206Y-15104808D01*
X11777206Y-15104808D02*
X11786730Y-15114331D01*
X11786730Y-15114331D02*
X11796253Y-15133379D01*
X11796253Y-15133379D02*
X11796253Y-15152427D01*
X11796253Y-15152427D02*
X11786730Y-15180998D01*
X11786730Y-15180998D02*
X11672444Y-15295284D01*
X11672444Y-15295284D02*
X11796253Y-15295284D01*
X12024825Y-15285760D02*
X12043873Y-15295284D01*
X12043873Y-15295284D02*
X12081968Y-15295284D01*
X12081968Y-15295284D02*
X12101015Y-15285760D01*
X12101015Y-15285760D02*
X12110539Y-15266712D01*
X12110539Y-15266712D02*
X12110539Y-15257188D01*
X12110539Y-15257188D02*
X12101015Y-15238141D01*
X12101015Y-15238141D02*
X12081968Y-15228617D01*
X12081968Y-15228617D02*
X12053396Y-15228617D01*
X12053396Y-15228617D02*
X12034349Y-15219093D01*
X12034349Y-15219093D02*
X12024825Y-15200046D01*
X12024825Y-15200046D02*
X12024825Y-15190522D01*
X12024825Y-15190522D02*
X12034349Y-15171474D01*
X12034349Y-15171474D02*
X12053396Y-15161950D01*
X12053396Y-15161950D02*
X12081968Y-15161950D01*
X12081968Y-15161950D02*
X12101015Y-15171474D01*
X12224825Y-15295284D02*
X12205777Y-15285760D01*
X12205777Y-15285760D02*
X12196254Y-15266712D01*
X12196254Y-15266712D02*
X12196254Y-15095284D01*
X12329587Y-15295284D02*
X12310539Y-15285760D01*
X12310539Y-15285760D02*
X12301015Y-15276236D01*
X12301015Y-15276236D02*
X12291492Y-15257188D01*
X12291492Y-15257188D02*
X12291492Y-15200046D01*
X12291492Y-15200046D02*
X12301015Y-15180998D01*
X12301015Y-15180998D02*
X12310539Y-15171474D01*
X12310539Y-15171474D02*
X12329587Y-15161950D01*
X12329587Y-15161950D02*
X12358158Y-15161950D01*
X12358158Y-15161950D02*
X12377206Y-15171474D01*
X12377206Y-15171474D02*
X12386730Y-15180998D01*
X12386730Y-15180998D02*
X12396254Y-15200046D01*
X12396254Y-15200046D02*
X12396254Y-15257188D01*
X12396254Y-15257188D02*
X12386730Y-15276236D01*
X12386730Y-15276236D02*
X12377206Y-15285760D01*
X12377206Y-15285760D02*
X12358158Y-15295284D01*
X12358158Y-15295284D02*
X12329587Y-15295284D01*
X12453396Y-15161950D02*
X12529587Y-15161950D01*
X12481968Y-15095284D02*
X12481968Y-15266712D01*
X12481968Y-15266712D02*
X12491492Y-15285760D01*
X12491492Y-15285760D02*
X12510539Y-15295284D01*
X12510539Y-15295284D02*
X12529587Y-15295284D01*
X12586730Y-15285760D02*
X12605777Y-15295284D01*
X12605777Y-15295284D02*
X12643873Y-15295284D01*
X12643873Y-15295284D02*
X12662920Y-15285760D01*
X12662920Y-15285760D02*
X12672444Y-15266712D01*
X12672444Y-15266712D02*
X12672444Y-15257188D01*
X12672444Y-15257188D02*
X12662920Y-15238141D01*
X12662920Y-15238141D02*
X12643873Y-15228617D01*
X12643873Y-15228617D02*
X12615301Y-15228617D01*
X12615301Y-15228617D02*
X12596254Y-15219093D01*
X12596254Y-15219093D02*
X12586730Y-15200046D01*
X12586730Y-15200046D02*
X12586730Y-15190522D01*
X12586730Y-15190522D02*
X12596254Y-15171474D01*
X12596254Y-15171474D02*
X12615301Y-15161950D01*
X12615301Y-15161950D02*
X12643873Y-15161950D01*
X12643873Y-15161950D02*
X12662920Y-15171474D01*
X12739111Y-15371474D02*
X12748635Y-15361950D01*
X12748635Y-15361950D02*
X12767682Y-15333379D01*
X12767682Y-15333379D02*
X12777206Y-15314331D01*
X12777206Y-15314331D02*
X12786730Y-15285760D01*
X12786730Y-15285760D02*
X12796254Y-15238141D01*
X12796254Y-15238141D02*
X12796254Y-15200046D01*
X12796254Y-15200046D02*
X12786730Y-15152427D01*
X12786730Y-15152427D02*
X12777206Y-15123855D01*
X12777206Y-15123855D02*
X12767682Y-15104808D01*
X12767682Y-15104808D02*
X12748635Y-15076236D01*
X12748635Y-15076236D02*
X12739111Y-15066712D01*
D10*
X6299999Y-15512801D02*
X6345000Y-15467800D01*
X6299999Y-15422799D01*
X6254998Y-15467800D01*
X6299999Y-15512801D01*
D12*
X6643872Y-15359284D02*
X6662920Y-15359284D01*
X6662920Y-15359284D02*
X6681967Y-15368808D01*
X6681967Y-15368808D02*
X6691491Y-15378331D01*
X6691491Y-15378331D02*
X6701015Y-15397379D01*
X6701015Y-15397379D02*
X6710539Y-15435474D01*
X6710539Y-15435474D02*
X6710539Y-15483093D01*
X6710539Y-15483093D02*
X6701015Y-15521188D01*
X6701015Y-15521188D02*
X6691491Y-15540236D01*
X6691491Y-15540236D02*
X6681967Y-15549760D01*
X6681967Y-15549760D02*
X6662920Y-15559284D01*
X6662920Y-15559284D02*
X6643872Y-15559284D01*
X6643872Y-15559284D02*
X6624824Y-15549760D01*
X6624824Y-15549760D02*
X6615301Y-15540236D01*
X6615301Y-15540236D02*
X6605777Y-15521188D01*
X6605777Y-15521188D02*
X6596253Y-15483093D01*
X6596253Y-15483093D02*
X6596253Y-15435474D01*
X6596253Y-15435474D02*
X6605777Y-15397379D01*
X6605777Y-15397379D02*
X6615301Y-15378331D01*
X6615301Y-15378331D02*
X6624824Y-15368808D01*
X6624824Y-15368808D02*
X6643872Y-15359284D01*
X6796253Y-15540236D02*
X6805777Y-15549760D01*
X6805777Y-15549760D02*
X6796253Y-15559284D01*
X6796253Y-15559284D02*
X6786729Y-15549760D01*
X6786729Y-15549760D02*
X6796253Y-15540236D01*
X6796253Y-15540236D02*
X6796253Y-15559284D01*
X6901015Y-15559284D02*
X6939110Y-15559284D01*
X6939110Y-15559284D02*
X6958158Y-15549760D01*
X6958158Y-15549760D02*
X6967682Y-15540236D01*
X6967682Y-15540236D02*
X6986729Y-15511665D01*
X6986729Y-15511665D02*
X6996253Y-15473569D01*
X6996253Y-15473569D02*
X6996253Y-15397379D01*
X6996253Y-15397379D02*
X6986729Y-15378331D01*
X6986729Y-15378331D02*
X6977205Y-15368808D01*
X6977205Y-15368808D02*
X6958158Y-15359284D01*
X6958158Y-15359284D02*
X6920062Y-15359284D01*
X6920062Y-15359284D02*
X6901015Y-15368808D01*
X6901015Y-15368808D02*
X6891491Y-15378331D01*
X6891491Y-15378331D02*
X6881967Y-15397379D01*
X6881967Y-15397379D02*
X6881967Y-15444998D01*
X6881967Y-15444998D02*
X6891491Y-15464046D01*
X6891491Y-15464046D02*
X6901015Y-15473569D01*
X6901015Y-15473569D02*
X6920062Y-15483093D01*
X6920062Y-15483093D02*
X6958158Y-15483093D01*
X6958158Y-15483093D02*
X6977205Y-15473569D01*
X6977205Y-15473569D02*
X6986729Y-15464046D01*
X6986729Y-15464046D02*
X6996253Y-15444998D01*
X7120062Y-15359284D02*
X7139110Y-15359284D01*
X7139110Y-15359284D02*
X7158158Y-15368808D01*
X7158158Y-15368808D02*
X7167682Y-15378331D01*
X7167682Y-15378331D02*
X7177205Y-15397379D01*
X7177205Y-15397379D02*
X7186729Y-15435474D01*
X7186729Y-15435474D02*
X7186729Y-15483093D01*
X7186729Y-15483093D02*
X7177205Y-15521188D01*
X7177205Y-15521188D02*
X7167682Y-15540236D01*
X7167682Y-15540236D02*
X7158158Y-15549760D01*
X7158158Y-15549760D02*
X7139110Y-15559284D01*
X7139110Y-15559284D02*
X7120062Y-15559284D01*
X7120062Y-15559284D02*
X7101015Y-15549760D01*
X7101015Y-15549760D02*
X7091491Y-15540236D01*
X7091491Y-15540236D02*
X7081967Y-15521188D01*
X7081967Y-15521188D02*
X7072443Y-15483093D01*
X7072443Y-15483093D02*
X7072443Y-15435474D01*
X7072443Y-15435474D02*
X7081967Y-15397379D01*
X7081967Y-15397379D02*
X7091491Y-15378331D01*
X7091491Y-15378331D02*
X7101015Y-15368808D01*
X7101015Y-15368808D02*
X7120062Y-15359284D01*
X7310539Y-15359284D02*
X7329586Y-15359284D01*
X7329586Y-15359284D02*
X7348634Y-15368808D01*
X7348634Y-15368808D02*
X7358158Y-15378331D01*
X7358158Y-15378331D02*
X7367682Y-15397379D01*
X7367682Y-15397379D02*
X7377205Y-15435474D01*
X7377205Y-15435474D02*
X7377205Y-15483093D01*
X7377205Y-15483093D02*
X7367682Y-15521188D01*
X7367682Y-15521188D02*
X7358158Y-15540236D01*
X7358158Y-15540236D02*
X7348634Y-15549760D01*
X7348634Y-15549760D02*
X7329586Y-15559284D01*
X7329586Y-15559284D02*
X7310539Y-15559284D01*
X7310539Y-15559284D02*
X7291491Y-15549760D01*
X7291491Y-15549760D02*
X7281967Y-15540236D01*
X7281967Y-15540236D02*
X7272443Y-15521188D01*
X7272443Y-15521188D02*
X7262920Y-15483093D01*
X7262920Y-15483093D02*
X7262920Y-15435474D01*
X7262920Y-15435474D02*
X7272443Y-15397379D01*
X7272443Y-15397379D02*
X7281967Y-15378331D01*
X7281967Y-15378331D02*
X7291491Y-15368808D01*
X7291491Y-15368808D02*
X7310539Y-15359284D01*
X7462920Y-15559284D02*
X7462920Y-15425950D01*
X7462920Y-15444998D02*
X7472443Y-15435474D01*
X7472443Y-15435474D02*
X7491491Y-15425950D01*
X7491491Y-15425950D02*
X7520063Y-15425950D01*
X7520063Y-15425950D02*
X7539110Y-15435474D01*
X7539110Y-15435474D02*
X7548634Y-15454522D01*
X7548634Y-15454522D02*
X7548634Y-15559284D01*
X7548634Y-15454522D02*
X7558158Y-15435474D01*
X7558158Y-15435474D02*
X7577205Y-15425950D01*
X7577205Y-15425950D02*
X7605777Y-15425950D01*
X7605777Y-15425950D02*
X7624824Y-15435474D01*
X7624824Y-15435474D02*
X7634348Y-15454522D01*
X7634348Y-15454522D02*
X7634348Y-15559284D01*
X7729586Y-15559284D02*
X7729586Y-15425950D01*
X7729586Y-15444998D02*
X7739110Y-15435474D01*
X7739110Y-15435474D02*
X7758158Y-15425950D01*
X7758158Y-15425950D02*
X7786729Y-15425950D01*
X7786729Y-15425950D02*
X7805777Y-15435474D01*
X7805777Y-15435474D02*
X7815301Y-15454522D01*
X7815301Y-15454522D02*
X7815301Y-15559284D01*
X7815301Y-15454522D02*
X7824824Y-15435474D01*
X7824824Y-15435474D02*
X7843872Y-15425950D01*
X7843872Y-15425950D02*
X7872443Y-15425950D01*
X7872443Y-15425950D02*
X7891491Y-15435474D01*
X7891491Y-15435474D02*
X7901015Y-15454522D01*
X7901015Y-15454522D02*
X7901015Y-15559284D01*
X8291491Y-15349760D02*
X8120063Y-15606903D01*
X8548634Y-15359284D02*
X8567682Y-15359284D01*
X8567682Y-15359284D02*
X8586729Y-15368808D01*
X8586729Y-15368808D02*
X8596253Y-15378331D01*
X8596253Y-15378331D02*
X8605777Y-15397379D01*
X8605777Y-15397379D02*
X8615301Y-15435474D01*
X8615301Y-15435474D02*
X8615301Y-15483093D01*
X8615301Y-15483093D02*
X8605777Y-15521188D01*
X8605777Y-15521188D02*
X8596253Y-15540236D01*
X8596253Y-15540236D02*
X8586729Y-15549760D01*
X8586729Y-15549760D02*
X8567682Y-15559284D01*
X8567682Y-15559284D02*
X8548634Y-15559284D01*
X8548634Y-15559284D02*
X8529587Y-15549760D01*
X8529587Y-15549760D02*
X8520063Y-15540236D01*
X8520063Y-15540236D02*
X8510539Y-15521188D01*
X8510539Y-15521188D02*
X8501015Y-15483093D01*
X8501015Y-15483093D02*
X8501015Y-15435474D01*
X8501015Y-15435474D02*
X8510539Y-15397379D01*
X8510539Y-15397379D02*
X8520063Y-15378331D01*
X8520063Y-15378331D02*
X8529587Y-15368808D01*
X8529587Y-15368808D02*
X8548634Y-15359284D01*
X8701015Y-15540236D02*
X8710539Y-15549760D01*
X8710539Y-15549760D02*
X8701015Y-15559284D01*
X8701015Y-15559284D02*
X8691491Y-15549760D01*
X8691491Y-15549760D02*
X8701015Y-15540236D01*
X8701015Y-15540236D02*
X8701015Y-15559284D01*
X8834348Y-15359284D02*
X8853396Y-15359284D01*
X8853396Y-15359284D02*
X8872444Y-15368808D01*
X8872444Y-15368808D02*
X8881968Y-15378331D01*
X8881968Y-15378331D02*
X8891491Y-15397379D01*
X8891491Y-15397379D02*
X8901015Y-15435474D01*
X8901015Y-15435474D02*
X8901015Y-15483093D01*
X8901015Y-15483093D02*
X8891491Y-15521188D01*
X8891491Y-15521188D02*
X8881968Y-15540236D01*
X8881968Y-15540236D02*
X8872444Y-15549760D01*
X8872444Y-15549760D02*
X8853396Y-15559284D01*
X8853396Y-15559284D02*
X8834348Y-15559284D01*
X8834348Y-15559284D02*
X8815301Y-15549760D01*
X8815301Y-15549760D02*
X8805777Y-15540236D01*
X8805777Y-15540236D02*
X8796253Y-15521188D01*
X8796253Y-15521188D02*
X8786729Y-15483093D01*
X8786729Y-15483093D02*
X8786729Y-15435474D01*
X8786729Y-15435474D02*
X8796253Y-15397379D01*
X8796253Y-15397379D02*
X8805777Y-15378331D01*
X8805777Y-15378331D02*
X8815301Y-15368808D01*
X8815301Y-15368808D02*
X8834348Y-15359284D01*
X8967682Y-15359284D02*
X9091491Y-15359284D01*
X9091491Y-15359284D02*
X9024825Y-15435474D01*
X9024825Y-15435474D02*
X9053396Y-15435474D01*
X9053396Y-15435474D02*
X9072444Y-15444998D01*
X9072444Y-15444998D02*
X9081968Y-15454522D01*
X9081968Y-15454522D02*
X9091491Y-15473569D01*
X9091491Y-15473569D02*
X9091491Y-15521188D01*
X9091491Y-15521188D02*
X9081968Y-15540236D01*
X9081968Y-15540236D02*
X9072444Y-15549760D01*
X9072444Y-15549760D02*
X9053396Y-15559284D01*
X9053396Y-15559284D02*
X8996253Y-15559284D01*
X8996253Y-15559284D02*
X8977206Y-15549760D01*
X8977206Y-15549760D02*
X8967682Y-15540236D01*
X9272444Y-15359284D02*
X9177206Y-15359284D01*
X9177206Y-15359284D02*
X9167682Y-15454522D01*
X9167682Y-15454522D02*
X9177206Y-15444998D01*
X9177206Y-15444998D02*
X9196253Y-15435474D01*
X9196253Y-15435474D02*
X9243872Y-15435474D01*
X9243872Y-15435474D02*
X9262920Y-15444998D01*
X9262920Y-15444998D02*
X9272444Y-15454522D01*
X9272444Y-15454522D02*
X9281968Y-15473569D01*
X9281968Y-15473569D02*
X9281968Y-15521188D01*
X9281968Y-15521188D02*
X9272444Y-15540236D01*
X9272444Y-15540236D02*
X9262920Y-15549760D01*
X9262920Y-15549760D02*
X9243872Y-15559284D01*
X9243872Y-15559284D02*
X9196253Y-15559284D01*
X9196253Y-15559284D02*
X9177206Y-15549760D01*
X9177206Y-15549760D02*
X9167682Y-15540236D01*
X9453396Y-15425950D02*
X9453396Y-15559284D01*
X9405777Y-15349760D02*
X9358158Y-15492617D01*
X9358158Y-15492617D02*
X9481968Y-15492617D01*
X9548634Y-15359284D02*
X9548634Y-15397379D01*
X9624825Y-15359284D02*
X9624825Y-15397379D01*
X9920063Y-15635474D02*
X9910539Y-15625950D01*
X9910539Y-15625950D02*
X9891491Y-15597379D01*
X9891491Y-15597379D02*
X9881968Y-15578331D01*
X9881968Y-15578331D02*
X9872444Y-15549760D01*
X9872444Y-15549760D02*
X9862920Y-15502141D01*
X9862920Y-15502141D02*
X9862920Y-15464046D01*
X9862920Y-15464046D02*
X9872444Y-15416427D01*
X9872444Y-15416427D02*
X9881968Y-15387855D01*
X9881968Y-15387855D02*
X9891491Y-15368808D01*
X9891491Y-15368808D02*
X9910539Y-15340236D01*
X9910539Y-15340236D02*
X9920063Y-15330712D01*
X9986730Y-15378331D02*
X9996253Y-15368808D01*
X9996253Y-15368808D02*
X10015301Y-15359284D01*
X10015301Y-15359284D02*
X10062920Y-15359284D01*
X10062920Y-15359284D02*
X10081968Y-15368808D01*
X10081968Y-15368808D02*
X10091491Y-15378331D01*
X10091491Y-15378331D02*
X10101015Y-15397379D01*
X10101015Y-15397379D02*
X10101015Y-15416427D01*
X10101015Y-15416427D02*
X10091491Y-15444998D01*
X10091491Y-15444998D02*
X9977206Y-15559284D01*
X9977206Y-15559284D02*
X10101015Y-15559284D01*
X10339111Y-15559284D02*
X10339111Y-15359284D01*
X10424825Y-15559284D02*
X10424825Y-15454522D01*
X10424825Y-15454522D02*
X10415301Y-15435474D01*
X10415301Y-15435474D02*
X10396253Y-15425950D01*
X10396253Y-15425950D02*
X10367682Y-15425950D01*
X10367682Y-15425950D02*
X10348634Y-15435474D01*
X10348634Y-15435474D02*
X10339111Y-15444998D01*
X10548634Y-15559284D02*
X10529587Y-15549760D01*
X10529587Y-15549760D02*
X10520063Y-15540236D01*
X10520063Y-15540236D02*
X10510539Y-15521188D01*
X10510539Y-15521188D02*
X10510539Y-15464046D01*
X10510539Y-15464046D02*
X10520063Y-15444998D01*
X10520063Y-15444998D02*
X10529587Y-15435474D01*
X10529587Y-15435474D02*
X10548634Y-15425950D01*
X10548634Y-15425950D02*
X10577206Y-15425950D01*
X10577206Y-15425950D02*
X10596253Y-15435474D01*
X10596253Y-15435474D02*
X10605777Y-15444998D01*
X10605777Y-15444998D02*
X10615301Y-15464046D01*
X10615301Y-15464046D02*
X10615301Y-15521188D01*
X10615301Y-15521188D02*
X10605777Y-15540236D01*
X10605777Y-15540236D02*
X10596253Y-15549760D01*
X10596253Y-15549760D02*
X10577206Y-15559284D01*
X10577206Y-15559284D02*
X10548634Y-15559284D01*
X10729587Y-15559284D02*
X10710539Y-15549760D01*
X10710539Y-15549760D02*
X10701015Y-15530712D01*
X10701015Y-15530712D02*
X10701015Y-15359284D01*
X10881968Y-15549760D02*
X10862920Y-15559284D01*
X10862920Y-15559284D02*
X10824825Y-15559284D01*
X10824825Y-15559284D02*
X10805777Y-15549760D01*
X10805777Y-15549760D02*
X10796253Y-15530712D01*
X10796253Y-15530712D02*
X10796253Y-15454522D01*
X10796253Y-15454522D02*
X10805777Y-15435474D01*
X10805777Y-15435474D02*
X10824825Y-15425950D01*
X10824825Y-15425950D02*
X10862920Y-15425950D01*
X10862920Y-15425950D02*
X10881968Y-15435474D01*
X10881968Y-15435474D02*
X10891492Y-15454522D01*
X10891492Y-15454522D02*
X10891492Y-15473569D01*
X10891492Y-15473569D02*
X10796253Y-15492617D01*
X10967682Y-15549760D02*
X10986730Y-15559284D01*
X10986730Y-15559284D02*
X11024825Y-15559284D01*
X11024825Y-15559284D02*
X11043873Y-15549760D01*
X11043873Y-15549760D02*
X11053396Y-15530712D01*
X11053396Y-15530712D02*
X11053396Y-15521188D01*
X11053396Y-15521188D02*
X11043873Y-15502141D01*
X11043873Y-15502141D02*
X11024825Y-15492617D01*
X11024825Y-15492617D02*
X10996253Y-15492617D01*
X10996253Y-15492617D02*
X10977206Y-15483093D01*
X10977206Y-15483093D02*
X10967682Y-15464046D01*
X10967682Y-15464046D02*
X10967682Y-15454522D01*
X10967682Y-15454522D02*
X10977206Y-15435474D01*
X10977206Y-15435474D02*
X10996253Y-15425950D01*
X10996253Y-15425950D02*
X11024825Y-15425950D01*
X11024825Y-15425950D02*
X11043873Y-15435474D01*
X11120063Y-15635474D02*
X11129587Y-15625950D01*
X11129587Y-15625950D02*
X11148634Y-15597379D01*
X11148634Y-15597379D02*
X11158158Y-15578331D01*
X11158158Y-15578331D02*
X11167682Y-15549760D01*
X11167682Y-15549760D02*
X11177206Y-15502141D01*
X11177206Y-15502141D02*
X11177206Y-15464046D01*
X11177206Y-15464046D02*
X11167682Y-15416427D01*
X11167682Y-15416427D02*
X11158158Y-15387855D01*
X11158158Y-15387855D02*
X11148634Y-15368808D01*
X11148634Y-15368808D02*
X11129587Y-15340236D01*
X11129587Y-15340236D02*
X11120063Y-15330712D01*
D13*
X6240002Y-15679301D02*
X6345000Y-15784299D01*
X6345000Y-15679301D02*
X6240002Y-15784299D01*
X6345000Y-15731800D02*
G75*
G03*
X6345000Y-15731800I-52499J0D01*
G01*
D12*
X6710539Y-15823284D02*
X6596253Y-15823284D01*
X6653396Y-15823284D02*
X6653396Y-15623284D01*
X6653396Y-15623284D02*
X6634348Y-15651855D01*
X6634348Y-15651855D02*
X6615301Y-15670903D01*
X6615301Y-15670903D02*
X6596253Y-15680427D01*
X6796253Y-15804236D02*
X6805777Y-15813760D01*
X6805777Y-15813760D02*
X6796253Y-15823284D01*
X6796253Y-15823284D02*
X6786729Y-15813760D01*
X6786729Y-15813760D02*
X6796253Y-15804236D01*
X6796253Y-15804236D02*
X6796253Y-15823284D01*
X6929586Y-15623284D02*
X6948634Y-15623284D01*
X6948634Y-15623284D02*
X6967682Y-15632808D01*
X6967682Y-15632808D02*
X6977205Y-15642331D01*
X6977205Y-15642331D02*
X6986729Y-15661379D01*
X6986729Y-15661379D02*
X6996253Y-15699474D01*
X6996253Y-15699474D02*
X6996253Y-15747093D01*
X6996253Y-15747093D02*
X6986729Y-15785188D01*
X6986729Y-15785188D02*
X6977205Y-15804236D01*
X6977205Y-15804236D02*
X6967682Y-15813760D01*
X6967682Y-15813760D02*
X6948634Y-15823284D01*
X6948634Y-15823284D02*
X6929586Y-15823284D01*
X6929586Y-15823284D02*
X6910539Y-15813760D01*
X6910539Y-15813760D02*
X6901015Y-15804236D01*
X6901015Y-15804236D02*
X6891491Y-15785188D01*
X6891491Y-15785188D02*
X6881967Y-15747093D01*
X6881967Y-15747093D02*
X6881967Y-15699474D01*
X6881967Y-15699474D02*
X6891491Y-15661379D01*
X6891491Y-15661379D02*
X6901015Y-15642331D01*
X6901015Y-15642331D02*
X6910539Y-15632808D01*
X6910539Y-15632808D02*
X6929586Y-15623284D01*
X7177205Y-15623284D02*
X7081967Y-15623284D01*
X7081967Y-15623284D02*
X7072443Y-15718522D01*
X7072443Y-15718522D02*
X7081967Y-15708998D01*
X7081967Y-15708998D02*
X7101015Y-15699474D01*
X7101015Y-15699474D02*
X7148634Y-15699474D01*
X7148634Y-15699474D02*
X7167682Y-15708998D01*
X7167682Y-15708998D02*
X7177205Y-15718522D01*
X7177205Y-15718522D02*
X7186729Y-15737569D01*
X7186729Y-15737569D02*
X7186729Y-15785188D01*
X7186729Y-15785188D02*
X7177205Y-15804236D01*
X7177205Y-15804236D02*
X7167682Y-15813760D01*
X7167682Y-15813760D02*
X7148634Y-15823284D01*
X7148634Y-15823284D02*
X7101015Y-15823284D01*
X7101015Y-15823284D02*
X7081967Y-15813760D01*
X7081967Y-15813760D02*
X7072443Y-15804236D01*
X7310539Y-15623284D02*
X7329586Y-15623284D01*
X7329586Y-15623284D02*
X7348634Y-15632808D01*
X7348634Y-15632808D02*
X7358158Y-15642331D01*
X7358158Y-15642331D02*
X7367682Y-15661379D01*
X7367682Y-15661379D02*
X7377205Y-15699474D01*
X7377205Y-15699474D02*
X7377205Y-15747093D01*
X7377205Y-15747093D02*
X7367682Y-15785188D01*
X7367682Y-15785188D02*
X7358158Y-15804236D01*
X7358158Y-15804236D02*
X7348634Y-15813760D01*
X7348634Y-15813760D02*
X7329586Y-15823284D01*
X7329586Y-15823284D02*
X7310539Y-15823284D01*
X7310539Y-15823284D02*
X7291491Y-15813760D01*
X7291491Y-15813760D02*
X7281967Y-15804236D01*
X7281967Y-15804236D02*
X7272443Y-15785188D01*
X7272443Y-15785188D02*
X7262920Y-15747093D01*
X7262920Y-15747093D02*
X7262920Y-15699474D01*
X7262920Y-15699474D02*
X7272443Y-15661379D01*
X7272443Y-15661379D02*
X7281967Y-15642331D01*
X7281967Y-15642331D02*
X7291491Y-15632808D01*
X7291491Y-15632808D02*
X7310539Y-15623284D01*
X7462920Y-15823284D02*
X7462920Y-15689950D01*
X7462920Y-15708998D02*
X7472443Y-15699474D01*
X7472443Y-15699474D02*
X7491491Y-15689950D01*
X7491491Y-15689950D02*
X7520063Y-15689950D01*
X7520063Y-15689950D02*
X7539110Y-15699474D01*
X7539110Y-15699474D02*
X7548634Y-15718522D01*
X7548634Y-15718522D02*
X7548634Y-15823284D01*
X7548634Y-15718522D02*
X7558158Y-15699474D01*
X7558158Y-15699474D02*
X7577205Y-15689950D01*
X7577205Y-15689950D02*
X7605777Y-15689950D01*
X7605777Y-15689950D02*
X7624824Y-15699474D01*
X7624824Y-15699474D02*
X7634348Y-15718522D01*
X7634348Y-15718522D02*
X7634348Y-15823284D01*
X7729586Y-15823284D02*
X7729586Y-15689950D01*
X7729586Y-15708998D02*
X7739110Y-15699474D01*
X7739110Y-15699474D02*
X7758158Y-15689950D01*
X7758158Y-15689950D02*
X7786729Y-15689950D01*
X7786729Y-15689950D02*
X7805777Y-15699474D01*
X7805777Y-15699474D02*
X7815301Y-15718522D01*
X7815301Y-15718522D02*
X7815301Y-15823284D01*
X7815301Y-15718522D02*
X7824824Y-15699474D01*
X7824824Y-15699474D02*
X7843872Y-15689950D01*
X7843872Y-15689950D02*
X7872443Y-15689950D01*
X7872443Y-15689950D02*
X7891491Y-15699474D01*
X7891491Y-15699474D02*
X7901015Y-15718522D01*
X7901015Y-15718522D02*
X7901015Y-15823284D01*
X8291491Y-15613760D02*
X8120063Y-15870903D01*
X8548634Y-15623284D02*
X8567682Y-15623284D01*
X8567682Y-15623284D02*
X8586729Y-15632808D01*
X8586729Y-15632808D02*
X8596253Y-15642331D01*
X8596253Y-15642331D02*
X8605777Y-15661379D01*
X8605777Y-15661379D02*
X8615301Y-15699474D01*
X8615301Y-15699474D02*
X8615301Y-15747093D01*
X8615301Y-15747093D02*
X8605777Y-15785188D01*
X8605777Y-15785188D02*
X8596253Y-15804236D01*
X8596253Y-15804236D02*
X8586729Y-15813760D01*
X8586729Y-15813760D02*
X8567682Y-15823284D01*
X8567682Y-15823284D02*
X8548634Y-15823284D01*
X8548634Y-15823284D02*
X8529587Y-15813760D01*
X8529587Y-15813760D02*
X8520063Y-15804236D01*
X8520063Y-15804236D02*
X8510539Y-15785188D01*
X8510539Y-15785188D02*
X8501015Y-15747093D01*
X8501015Y-15747093D02*
X8501015Y-15699474D01*
X8501015Y-15699474D02*
X8510539Y-15661379D01*
X8510539Y-15661379D02*
X8520063Y-15642331D01*
X8520063Y-15642331D02*
X8529587Y-15632808D01*
X8529587Y-15632808D02*
X8548634Y-15623284D01*
X8701015Y-15804236D02*
X8710539Y-15813760D01*
X8710539Y-15813760D02*
X8701015Y-15823284D01*
X8701015Y-15823284D02*
X8691491Y-15813760D01*
X8691491Y-15813760D02*
X8701015Y-15804236D01*
X8701015Y-15804236D02*
X8701015Y-15823284D01*
X8834348Y-15623284D02*
X8853396Y-15623284D01*
X8853396Y-15623284D02*
X8872444Y-15632808D01*
X8872444Y-15632808D02*
X8881968Y-15642331D01*
X8881968Y-15642331D02*
X8891491Y-15661379D01*
X8891491Y-15661379D02*
X8901015Y-15699474D01*
X8901015Y-15699474D02*
X8901015Y-15747093D01*
X8901015Y-15747093D02*
X8891491Y-15785188D01*
X8891491Y-15785188D02*
X8881968Y-15804236D01*
X8881968Y-15804236D02*
X8872444Y-15813760D01*
X8872444Y-15813760D02*
X8853396Y-15823284D01*
X8853396Y-15823284D02*
X8834348Y-15823284D01*
X8834348Y-15823284D02*
X8815301Y-15813760D01*
X8815301Y-15813760D02*
X8805777Y-15804236D01*
X8805777Y-15804236D02*
X8796253Y-15785188D01*
X8796253Y-15785188D02*
X8786729Y-15747093D01*
X8786729Y-15747093D02*
X8786729Y-15699474D01*
X8786729Y-15699474D02*
X8796253Y-15661379D01*
X8796253Y-15661379D02*
X8805777Y-15642331D01*
X8805777Y-15642331D02*
X8815301Y-15632808D01*
X8815301Y-15632808D02*
X8834348Y-15623284D01*
X9072444Y-15689950D02*
X9072444Y-15823284D01*
X9024825Y-15613760D02*
X8977206Y-15756617D01*
X8977206Y-15756617D02*
X9101015Y-15756617D01*
X9281968Y-15823284D02*
X9167682Y-15823284D01*
X9224825Y-15823284D02*
X9224825Y-15623284D01*
X9224825Y-15623284D02*
X9205777Y-15651855D01*
X9205777Y-15651855D02*
X9186729Y-15670903D01*
X9186729Y-15670903D02*
X9167682Y-15680427D01*
X9348634Y-15623284D02*
X9472444Y-15623284D01*
X9472444Y-15623284D02*
X9405777Y-15699474D01*
X9405777Y-15699474D02*
X9434349Y-15699474D01*
X9434349Y-15699474D02*
X9453396Y-15708998D01*
X9453396Y-15708998D02*
X9462920Y-15718522D01*
X9462920Y-15718522D02*
X9472444Y-15737569D01*
X9472444Y-15737569D02*
X9472444Y-15785188D01*
X9472444Y-15785188D02*
X9462920Y-15804236D01*
X9462920Y-15804236D02*
X9453396Y-15813760D01*
X9453396Y-15813760D02*
X9434349Y-15823284D01*
X9434349Y-15823284D02*
X9377206Y-15823284D01*
X9377206Y-15823284D02*
X9358158Y-15813760D01*
X9358158Y-15813760D02*
X9348634Y-15804236D01*
X9548634Y-15623284D02*
X9548634Y-15661379D01*
X9624825Y-15623284D02*
X9624825Y-15661379D01*
X9920063Y-15899474D02*
X9910539Y-15889950D01*
X9910539Y-15889950D02*
X9891491Y-15861379D01*
X9891491Y-15861379D02*
X9881968Y-15842331D01*
X9881968Y-15842331D02*
X9872444Y-15813760D01*
X9872444Y-15813760D02*
X9862920Y-15766141D01*
X9862920Y-15766141D02*
X9862920Y-15728046D01*
X9862920Y-15728046D02*
X9872444Y-15680427D01*
X9872444Y-15680427D02*
X9881968Y-15651855D01*
X9881968Y-15651855D02*
X9891491Y-15632808D01*
X9891491Y-15632808D02*
X9910539Y-15604236D01*
X9910539Y-15604236D02*
X9920063Y-15594712D01*
X10081968Y-15623284D02*
X10043872Y-15623284D01*
X10043872Y-15623284D02*
X10024825Y-15632808D01*
X10024825Y-15632808D02*
X10015301Y-15642331D01*
X10015301Y-15642331D02*
X9996253Y-15670903D01*
X9996253Y-15670903D02*
X9986730Y-15708998D01*
X9986730Y-15708998D02*
X9986730Y-15785188D01*
X9986730Y-15785188D02*
X9996253Y-15804236D01*
X9996253Y-15804236D02*
X10005777Y-15813760D01*
X10005777Y-15813760D02*
X10024825Y-15823284D01*
X10024825Y-15823284D02*
X10062920Y-15823284D01*
X10062920Y-15823284D02*
X10081968Y-15813760D01*
X10081968Y-15813760D02*
X10091491Y-15804236D01*
X10091491Y-15804236D02*
X10101015Y-15785188D01*
X10101015Y-15785188D02*
X10101015Y-15737569D01*
X10101015Y-15737569D02*
X10091491Y-15718522D01*
X10091491Y-15718522D02*
X10081968Y-15708998D01*
X10081968Y-15708998D02*
X10062920Y-15699474D01*
X10062920Y-15699474D02*
X10024825Y-15699474D01*
X10024825Y-15699474D02*
X10005777Y-15708998D01*
X10005777Y-15708998D02*
X9996253Y-15718522D01*
X9996253Y-15718522D02*
X9986730Y-15737569D01*
X10215301Y-15708998D02*
X10196253Y-15699474D01*
X10196253Y-15699474D02*
X10186730Y-15689950D01*
X10186730Y-15689950D02*
X10177206Y-15670903D01*
X10177206Y-15670903D02*
X10177206Y-15661379D01*
X10177206Y-15661379D02*
X10186730Y-15642331D01*
X10186730Y-15642331D02*
X10196253Y-15632808D01*
X10196253Y-15632808D02*
X10215301Y-15623284D01*
X10215301Y-15623284D02*
X10253396Y-15623284D01*
X10253396Y-15623284D02*
X10272444Y-15632808D01*
X10272444Y-15632808D02*
X10281968Y-15642331D01*
X10281968Y-15642331D02*
X10291491Y-15661379D01*
X10291491Y-15661379D02*
X10291491Y-15670903D01*
X10291491Y-15670903D02*
X10281968Y-15689950D01*
X10281968Y-15689950D02*
X10272444Y-15699474D01*
X10272444Y-15699474D02*
X10253396Y-15708998D01*
X10253396Y-15708998D02*
X10215301Y-15708998D01*
X10215301Y-15708998D02*
X10196253Y-15718522D01*
X10196253Y-15718522D02*
X10186730Y-15728046D01*
X10186730Y-15728046D02*
X10177206Y-15747093D01*
X10177206Y-15747093D02*
X10177206Y-15785188D01*
X10177206Y-15785188D02*
X10186730Y-15804236D01*
X10186730Y-15804236D02*
X10196253Y-15813760D01*
X10196253Y-15813760D02*
X10215301Y-15823284D01*
X10215301Y-15823284D02*
X10253396Y-15823284D01*
X10253396Y-15823284D02*
X10272444Y-15813760D01*
X10272444Y-15813760D02*
X10281968Y-15804236D01*
X10281968Y-15804236D02*
X10291491Y-15785188D01*
X10291491Y-15785188D02*
X10291491Y-15747093D01*
X10291491Y-15747093D02*
X10281968Y-15728046D01*
X10281968Y-15728046D02*
X10272444Y-15718522D01*
X10272444Y-15718522D02*
X10253396Y-15708998D01*
X10529587Y-15823284D02*
X10529587Y-15623284D01*
X10615301Y-15823284D02*
X10615301Y-15718522D01*
X10615301Y-15718522D02*
X10605777Y-15699474D01*
X10605777Y-15699474D02*
X10586730Y-15689950D01*
X10586730Y-15689950D02*
X10558158Y-15689950D01*
X10558158Y-15689950D02*
X10539111Y-15699474D01*
X10539111Y-15699474D02*
X10529587Y-15708998D01*
X10739111Y-15823284D02*
X10720063Y-15813760D01*
X10720063Y-15813760D02*
X10710539Y-15804236D01*
X10710539Y-15804236D02*
X10701015Y-15785188D01*
X10701015Y-15785188D02*
X10701015Y-15728046D01*
X10701015Y-15728046D02*
X10710539Y-15708998D01*
X10710539Y-15708998D02*
X10720063Y-15699474D01*
X10720063Y-15699474D02*
X10739111Y-15689950D01*
X10739111Y-15689950D02*
X10767682Y-15689950D01*
X10767682Y-15689950D02*
X10786730Y-15699474D01*
X10786730Y-15699474D02*
X10796253Y-15708998D01*
X10796253Y-15708998D02*
X10805777Y-15728046D01*
X10805777Y-15728046D02*
X10805777Y-15785188D01*
X10805777Y-15785188D02*
X10796253Y-15804236D01*
X10796253Y-15804236D02*
X10786730Y-15813760D01*
X10786730Y-15813760D02*
X10767682Y-15823284D01*
X10767682Y-15823284D02*
X10739111Y-15823284D01*
X10920063Y-15823284D02*
X10901015Y-15813760D01*
X10901015Y-15813760D02*
X10891492Y-15794712D01*
X10891492Y-15794712D02*
X10891492Y-15623284D01*
X11072444Y-15813760D02*
X11053396Y-15823284D01*
X11053396Y-15823284D02*
X11015301Y-15823284D01*
X11015301Y-15823284D02*
X10996253Y-15813760D01*
X10996253Y-15813760D02*
X10986730Y-15794712D01*
X10986730Y-15794712D02*
X10986730Y-15718522D01*
X10986730Y-15718522D02*
X10996253Y-15699474D01*
X10996253Y-15699474D02*
X11015301Y-15689950D01*
X11015301Y-15689950D02*
X11053396Y-15689950D01*
X11053396Y-15689950D02*
X11072444Y-15699474D01*
X11072444Y-15699474D02*
X11081968Y-15718522D01*
X11081968Y-15718522D02*
X11081968Y-15737569D01*
X11081968Y-15737569D02*
X10986730Y-15756617D01*
X11158158Y-15813760D02*
X11177206Y-15823284D01*
X11177206Y-15823284D02*
X11215301Y-15823284D01*
X11215301Y-15823284D02*
X11234349Y-15813760D01*
X11234349Y-15813760D02*
X11243872Y-15794712D01*
X11243872Y-15794712D02*
X11243872Y-15785188D01*
X11243872Y-15785188D02*
X11234349Y-15766141D01*
X11234349Y-15766141D02*
X11215301Y-15756617D01*
X11215301Y-15756617D02*
X11186730Y-15756617D01*
X11186730Y-15756617D02*
X11167682Y-15747093D01*
X11167682Y-15747093D02*
X11158158Y-15728046D01*
X11158158Y-15728046D02*
X11158158Y-15718522D01*
X11158158Y-15718522D02*
X11167682Y-15699474D01*
X11167682Y-15699474D02*
X11186730Y-15689950D01*
X11186730Y-15689950D02*
X11215301Y-15689950D01*
X11215301Y-15689950D02*
X11234349Y-15699474D01*
X11310539Y-15899474D02*
X11320063Y-15889950D01*
X11320063Y-15889950D02*
X11339111Y-15861379D01*
X11339111Y-15861379D02*
X11348634Y-15842331D01*
X11348634Y-15842331D02*
X11358158Y-15813760D01*
X11358158Y-15813760D02*
X11367682Y-15766141D01*
X11367682Y-15766141D02*
X11367682Y-15728046D01*
X11367682Y-15728046D02*
X11358158Y-15680427D01*
X11358158Y-15680427D02*
X11348634Y-15651855D01*
X11348634Y-15651855D02*
X11339111Y-15632808D01*
X11339111Y-15632808D02*
X11320063Y-15604236D01*
X11320063Y-15604236D02*
X11310539Y-15594712D01*
M02*
