M48
; DRILL file {KiCad 7.0.9} date Mon Oct  7 22:18:29 2024
; FORMAT={-:-/ absolute / metric / decimal}
; #@! TF.CreationDate,2024-10-07T22:18:29-04:00
; #@! TF.GenerationSoftware,Kicad,Pcbnew,7.0.9
; #@! TF.FileFunction,Plated,1,4,PTH
FMAT,2
METRIC
; #@! TA.AperFunction,Plated,PTH,ViaDrill
T1C0.305
; #@! TA.AperFunction,Plated,PTH,ViaDrill
T2C0.400
; #@! TA.AperFunction,Plated,PTH,ComponentDrill
T3C0.600
; #@! TA.AperFunction,Plated,PTH,ComponentDrill
T4C0.700
; #@! TA.AperFunction,Plated,PTH,ComponentDrill
T5C0.900
; #@! TA.AperFunction,Plated,PTH,ComponentDrill
T6C1.050
%
G90
G05
T1
X64.872Y-123.596
X64.922Y-128.016
X66.472Y-120.117
X66.98Y-132.08
X67.615Y-133.756
X67.666Y-107.112
X68.275Y-130.835
X68.275Y-131.953
X68.72Y-127.381
X68.936Y-95.961
X69.074Y-102.362
X69.774Y-129.007
X70.358Y-119.685
X70.611Y-104.723
X70.891Y-128.245
X71.194Y-105.635
X71.482Y-122.957
X71.603Y-119.837
X71.831Y-124.968
X71.907Y-126.047
X72.415Y-127.991
X73.127Y-98.755
X73.127Y-99.593
X73.177Y-101.537
X73.254Y-97.028
X73.381Y-102.643
X73.914Y-94.666
X74.041Y-123.088
X74.676Y-129.007
X75.438Y-94.945
X75.844Y-126.237
X75.946Y-124.511
X76.048Y-129.108
X76.327Y-100.508
X76.429Y-97.815
X76.962Y-132.842
X77.089Y-106.528
X78.584Y-132.842
X78.635Y-106.578
X80.543Y-104.435
X80.704Y-124.613
X81.153Y-127.127
X81.483Y-97.892
X81.61Y-100.457
X85.522Y-100.406
X86.335Y-96.19
X86.36Y-121.666
X87.325Y-98.044
X87.401Y-127.076
X87.452Y-124.612
X87.763Y-100.222
X87.947Y-92.761
X88.392Y-121.666
X88.519Y-124.562
X88.544Y-127.051
X88.824Y-129.921
X89.154Y-98.095
X89.256Y-103.048
X89.738Y-124.587
X89.814Y-127.051
X89.891Y-98.781
X89.916Y-97.384
X90.221Y-129.921
X90.653Y-98.095
X91.135Y-101.372
X91.696Y-95.903
X92.329Y-127.0
X92.456Y-124.993
X92.456Y-125.856
X92.634Y-98.146
X93.472Y-121.666
X93.59Y-126.848
X94.005Y-100.94
X94.463Y-124.993
X94.488Y-127.915
X94.615Y-130.771
X94.666Y-104.126
X94.717Y-122.301
X94.945Y-101.27
X96.647Y-127.508
X96.698Y-100.863
X100.979Y-122.174
X101.03Y-95.529
X101.829Y-121.665
X101.829Y-134.696
X101.879Y-95.021
X101.879Y-108.052
X102.413Y-131.242
X102.464Y-104.597
X102.692Y-123.113
X102.743Y-96.469
X102.87Y-126.111
X102.921Y-99.466
X103.251Y-126.746
X103.302Y-100.101
X103.886Y-121.743
X103.937Y-95.098
X104.267Y-125.73
X104.318Y-99.085
X105.807Y-126.127
X105.858Y-99.482
X107.366Y-123.113
X107.417Y-96.469
X107.544Y-126.111
X107.594Y-99.466
X107.95Y-120.904
X108.001Y-94.259
X108.28Y-135.661
X108.331Y-109.017
X108.45Y-125.467
X108.5Y-98.822
X108.966Y-116.332
X108.971Y-124.735
X109.017Y-89.687
X109.017Y-98.196
X110.236Y-116.332
X110.287Y-89.687
X112.014Y-118.872
X112.014Y-133.096
X112.065Y-92.227
X112.065Y-106.451
X113.284Y-118.872
X113.284Y-133.096
X113.335Y-92.227
X113.335Y-106.451
X114.554Y-118.872
X114.554Y-133.096
X114.605Y-92.227
X114.605Y-106.451
X115.824Y-118.872
X115.824Y-133.096
X115.875Y-92.227
X115.875Y-106.451
X117.094Y-118.872
X117.094Y-133.096
X117.145Y-92.227
X117.145Y-106.451
X118.364Y-118.872
X118.364Y-133.096
X118.415Y-92.227
X118.415Y-106.451
X119.507Y-123.698
X119.507Y-125.095
X119.558Y-97.053
X119.558Y-98.45
X119.634Y-118.872
X119.634Y-133.096
X119.685Y-92.227
X119.685Y-106.451
X120.129Y-124.357
X120.142Y-122.987
X120.142Y-125.73
X120.18Y-97.713
X120.193Y-96.342
X120.193Y-99.085
X120.904Y-118.897
X120.904Y-123.698
X120.904Y-125.095
X120.955Y-92.253
X120.955Y-97.053
X120.955Y-98.45
X121.539Y-122.936
X121.539Y-124.333
X121.539Y-125.73
X121.59Y-96.291
X121.59Y-97.688
X121.59Y-99.085
X122.174Y-118.872
X122.174Y-123.698
X122.174Y-125.095
X122.174Y-133.096
X122.225Y-92.227
X122.225Y-97.053
X122.225Y-98.45
X122.225Y-106.451
X123.444Y-118.872
X123.444Y-133.096
X123.495Y-92.227
X123.495Y-106.451
X124.714Y-118.872
X124.714Y-133.096
X124.765Y-92.227
X124.765Y-106.451
X125.984Y-118.872
X125.984Y-133.096
X126.035Y-92.227
X126.035Y-106.451
X127.254Y-118.872
X127.254Y-119.761
X127.254Y-133.096
X127.305Y-92.227
X127.305Y-93.116
X127.305Y-106.451
X128.524Y-118.872
X128.524Y-133.096
X128.575Y-92.227
X128.575Y-106.451
T2
X70.891Y-90.881
X72.111Y-90.5
X93.221Y-94.531
T5
X67.527Y-123.357
X67.527Y-128.357
T6
X65.024Y-115.697
X65.024Y-136.017
X65.075Y-89.052
X65.075Y-109.372
X67.564Y-115.697
X67.564Y-136.017
X67.615Y-89.052
X67.615Y-109.372
X70.104Y-115.697
X70.104Y-136.017
X70.155Y-89.052
X70.155Y-109.372
X72.644Y-115.697
X72.644Y-136.017
X72.695Y-89.052
X72.695Y-109.372
X75.184Y-115.697
X75.184Y-136.017
X75.235Y-89.052
X75.235Y-109.372
X77.724Y-115.697
X77.724Y-136.017
X77.775Y-89.052
X77.775Y-109.372
X80.264Y-115.697
X80.264Y-136.017
X80.315Y-89.052
X80.315Y-109.372
X82.804Y-115.697
X82.804Y-136.017
X82.855Y-89.052
X82.855Y-109.372
X85.344Y-115.697
X85.344Y-136.017
X85.395Y-89.052
X85.395Y-109.372
X87.884Y-115.697
X87.884Y-136.017
X87.935Y-89.052
X87.935Y-109.372
X90.424Y-115.697
X90.424Y-136.017
X90.475Y-89.052
X90.475Y-109.372
X92.964Y-115.697
X92.964Y-136.017
X93.015Y-89.052
X93.015Y-109.372
X95.504Y-115.697
X95.504Y-136.017
X95.555Y-89.052
X95.555Y-109.372
X98.044Y-115.697
X98.044Y-136.017
X98.095Y-89.052
X98.095Y-109.372
X100.584Y-115.697
X100.584Y-136.017
X100.635Y-89.052
X100.635Y-109.372
X103.124Y-115.697
X103.124Y-136.017
X103.175Y-89.052
X103.175Y-109.372
X105.664Y-115.697
X105.664Y-136.017
X105.715Y-89.052
X105.715Y-109.372
T3
X65.687Y-94.842G85X65.087Y-94.842
G05
X65.687Y-103.482G85X65.087Y-103.482
G05
X70.047Y-94.842G85X69.147Y-94.842
G05
X70.047Y-103.482G85X69.147Y-103.482
G05
T4
X65.177Y-122.357G85X64.477Y-122.357
G05
X65.177Y-129.357G85X64.477Y-129.357
G05
T0
M30
