G04 #@! TF.GenerationSoftware,KiCad,Pcbnew,7.0.9*
G04 #@! TF.CreationDate,2024-10-07T22:18:26-04:00*
G04 #@! TF.ProjectId,ESP32_VP,45535033-325f-4565-902e-6b696361645f,rev?*
G04 #@! TF.SameCoordinates,Original*
G04 #@! TF.FileFunction,Legend,Top*
G04 #@! TF.FilePolarity,Positive*
%FSLAX46Y46*%
G04 Gerber Fmt 4.6, Leading zero omitted, Abs format (unit mm)*
G04 Created by KiCad (PCBNEW 7.0.9) date 2024-10-07 22:18:26*
%MOMM*%
%LPD*%
G01*
G04 APERTURE LIST*
G04 Aperture macros list*
%AMRotRect*
0 Rectangle, with rotation*
0 The origin of the aperture is its center*
0 $1 length*
0 $2 width*
0 $3 Rotation angle, in degrees counterclockwise*
0 Add horizontal line*
21,1,$1,$2,0,0,$3*%
G04 Aperture macros list end*
%ADD10C,0.203200*%
%ADD11C,0.150000*%
%ADD12C,0.152400*%
%ADD13C,0.250000*%
%ADD14C,0.200000*%
%ADD15C,0.300000*%
%ADD16C,0.130000*%
%ADD17C,0.100000*%
%ADD18R,0.639600X0.965200*%
%ADD19R,0.639600X1.016000*%
%ADD20R,0.705600X1.015400*%
%ADD21R,0.540000X0.570000*%
%ADD22R,1.900000X1.300000*%
%ADD23R,0.540000X0.790000*%
%ADD24R,0.790000X0.540000*%
%ADD25R,1.000000X1.400000*%
%ADD26RotRect,0.300000X1.000000X135.000000*%
%ADD27RotRect,0.300000X1.000000X45.000000*%
%ADD28RotRect,2.150000X2.150000X45.000000*%
%ADD29R,1.600000X1.600000*%
%ADD30C,1.600000*%
%ADD31R,0.950000X2.100000*%
%ADD32R,2.100000X0.950000*%
%ADD33R,0.900000X0.900000*%
%ADD34R,0.570000X0.540000*%
%ADD35R,0.400000X0.600000*%
%ADD36R,0.980000X2.470000*%
%ADD37R,3.600000X2.470000*%
%ADD38R,1.410000X1.350000*%
%ADD39R,0.740000X2.100000*%
%ADD40R,1.100000X0.550000*%
%ADD41R,1.100000X0.300000*%
%ADD42O,2.000000X1.100000*%
%ADD43O,1.800000X1.200000*%
%ADD44R,0.910000X0.280000*%
%ADD45R,0.280000X0.910000*%
%ADD46R,3.350000X3.350000*%
%ADD47R,1.300000X0.400000*%
%ADD48C,1.350000*%
%ADD49O,1.900000X1.200000*%
%ADD50R,1.900000X1.500000*%
G04 APERTURE END LIST*
D10*
X102493972Y-91838493D02*
X102493972Y-90822493D01*
X102493972Y-90822493D02*
X103065401Y-90822493D01*
X103065401Y-90822493D02*
X103208258Y-90870874D01*
X103208258Y-90870874D02*
X103279687Y-90919255D01*
X103279687Y-90919255D02*
X103351115Y-91016017D01*
X103351115Y-91016017D02*
X103351115Y-91161160D01*
X103351115Y-91161160D02*
X103279687Y-91257922D01*
X103279687Y-91257922D02*
X103208258Y-91306303D01*
X103208258Y-91306303D02*
X103065401Y-91354684D01*
X103065401Y-91354684D02*
X102493972Y-91354684D01*
X103851115Y-90822493D02*
X104208258Y-91838493D01*
X104208258Y-91838493D02*
X104493972Y-91112779D01*
X104493972Y-91112779D02*
X104779687Y-91838493D01*
X104779687Y-91838493D02*
X105136830Y-90822493D01*
X106565401Y-91838493D02*
X106065401Y-91354684D01*
X105708258Y-91838493D02*
X105708258Y-90822493D01*
X105708258Y-90822493D02*
X106279687Y-90822493D01*
X106279687Y-90822493D02*
X106422544Y-90870874D01*
X106422544Y-90870874D02*
X106493973Y-90919255D01*
X106493973Y-90919255D02*
X106565401Y-91016017D01*
X106565401Y-91016017D02*
X106565401Y-91161160D01*
X106565401Y-91161160D02*
X106493973Y-91257922D01*
X106493973Y-91257922D02*
X106422544Y-91306303D01*
X106422544Y-91306303D02*
X106279687Y-91354684D01*
X106279687Y-91354684D02*
X105708258Y-91354684D01*
X98207544Y-91324446D02*
X99350402Y-91324446D01*
X98778973Y-91711493D02*
X98778973Y-90937398D01*
X100778973Y-90695493D02*
X100064687Y-90695493D01*
X100064687Y-90695493D02*
X99993259Y-91179303D01*
X99993259Y-91179303D02*
X100064687Y-91130922D01*
X100064687Y-91130922D02*
X100207545Y-91082541D01*
X100207545Y-91082541D02*
X100564687Y-91082541D01*
X100564687Y-91082541D02*
X100707545Y-91130922D01*
X100707545Y-91130922D02*
X100778973Y-91179303D01*
X100778973Y-91179303D02*
X100850402Y-91276065D01*
X100850402Y-91276065D02*
X100850402Y-91517970D01*
X100850402Y-91517970D02*
X100778973Y-91614732D01*
X100778973Y-91614732D02*
X100707545Y-91663113D01*
X100707545Y-91663113D02*
X100564687Y-91711493D01*
X100564687Y-91711493D02*
X100207545Y-91711493D01*
X100207545Y-91711493D02*
X100064687Y-91663113D01*
X100064687Y-91663113D02*
X99993259Y-91614732D01*
X89881258Y-90822493D02*
X89881258Y-91644970D01*
X89881258Y-91644970D02*
X89952687Y-91741732D01*
X89952687Y-91741732D02*
X90024116Y-91790113D01*
X90024116Y-91790113D02*
X90166973Y-91838493D01*
X90166973Y-91838493D02*
X90452687Y-91838493D01*
X90452687Y-91838493D02*
X90595544Y-91790113D01*
X90595544Y-91790113D02*
X90666973Y-91741732D01*
X90666973Y-91741732D02*
X90738401Y-91644970D01*
X90738401Y-91644970D02*
X90738401Y-90822493D01*
X91381259Y-91790113D02*
X91595545Y-91838493D01*
X91595545Y-91838493D02*
X91952687Y-91838493D01*
X91952687Y-91838493D02*
X92095545Y-91790113D01*
X92095545Y-91790113D02*
X92166973Y-91741732D01*
X92166973Y-91741732D02*
X92238402Y-91644970D01*
X92238402Y-91644970D02*
X92238402Y-91548208D01*
X92238402Y-91548208D02*
X92166973Y-91451446D01*
X92166973Y-91451446D02*
X92095545Y-91403065D01*
X92095545Y-91403065D02*
X91952687Y-91354684D01*
X91952687Y-91354684D02*
X91666973Y-91306303D01*
X91666973Y-91306303D02*
X91524116Y-91257922D01*
X91524116Y-91257922D02*
X91452687Y-91209541D01*
X91452687Y-91209541D02*
X91381259Y-91112779D01*
X91381259Y-91112779D02*
X91381259Y-91016017D01*
X91381259Y-91016017D02*
X91452687Y-90919255D01*
X91452687Y-90919255D02*
X91524116Y-90870874D01*
X91524116Y-90870874D02*
X91666973Y-90822493D01*
X91666973Y-90822493D02*
X92024116Y-90822493D01*
X92024116Y-90822493D02*
X92238402Y-90870874D01*
X93381258Y-91306303D02*
X93595544Y-91354684D01*
X93595544Y-91354684D02*
X93666973Y-91403065D01*
X93666973Y-91403065D02*
X93738401Y-91499827D01*
X93738401Y-91499827D02*
X93738401Y-91644970D01*
X93738401Y-91644970D02*
X93666973Y-91741732D01*
X93666973Y-91741732D02*
X93595544Y-91790113D01*
X93595544Y-91790113D02*
X93452687Y-91838493D01*
X93452687Y-91838493D02*
X92881258Y-91838493D01*
X92881258Y-91838493D02*
X92881258Y-90822493D01*
X92881258Y-90822493D02*
X93381258Y-90822493D01*
X93381258Y-90822493D02*
X93524116Y-90870874D01*
X93524116Y-90870874D02*
X93595544Y-90919255D01*
X93595544Y-90919255D02*
X93666973Y-91016017D01*
X93666973Y-91016017D02*
X93666973Y-91112779D01*
X93666973Y-91112779D02*
X93595544Y-91209541D01*
X93595544Y-91209541D02*
X93524116Y-91257922D01*
X93524116Y-91257922D02*
X93381258Y-91306303D01*
X93381258Y-91306303D02*
X92881258Y-91306303D01*
X103216258Y-106570493D02*
X103216258Y-107392970D01*
X103216258Y-107392970D02*
X103287687Y-107489732D01*
X103287687Y-107489732D02*
X103359116Y-107538113D01*
X103359116Y-107538113D02*
X103501973Y-107586493D01*
X103501973Y-107586493D02*
X103787687Y-107586493D01*
X103787687Y-107586493D02*
X103930544Y-107538113D01*
X103930544Y-107538113D02*
X104001973Y-107489732D01*
X104001973Y-107489732D02*
X104073401Y-107392970D01*
X104073401Y-107392970D02*
X104073401Y-106570493D01*
X104716259Y-107538113D02*
X104930545Y-107586493D01*
X104930545Y-107586493D02*
X105287687Y-107586493D01*
X105287687Y-107586493D02*
X105430545Y-107538113D01*
X105430545Y-107538113D02*
X105501973Y-107489732D01*
X105501973Y-107489732D02*
X105573402Y-107392970D01*
X105573402Y-107392970D02*
X105573402Y-107296208D01*
X105573402Y-107296208D02*
X105501973Y-107199446D01*
X105501973Y-107199446D02*
X105430545Y-107151065D01*
X105430545Y-107151065D02*
X105287687Y-107102684D01*
X105287687Y-107102684D02*
X105001973Y-107054303D01*
X105001973Y-107054303D02*
X104859116Y-107005922D01*
X104859116Y-107005922D02*
X104787687Y-106957541D01*
X104787687Y-106957541D02*
X104716259Y-106860779D01*
X104716259Y-106860779D02*
X104716259Y-106764017D01*
X104716259Y-106764017D02*
X104787687Y-106667255D01*
X104787687Y-106667255D02*
X104859116Y-106618874D01*
X104859116Y-106618874D02*
X105001973Y-106570493D01*
X105001973Y-106570493D02*
X105359116Y-106570493D01*
X105359116Y-106570493D02*
X105573402Y-106618874D01*
X107073401Y-107586493D02*
X106573401Y-107102684D01*
X106216258Y-107586493D02*
X106216258Y-106570493D01*
X106216258Y-106570493D02*
X106787687Y-106570493D01*
X106787687Y-106570493D02*
X106930544Y-106618874D01*
X106930544Y-106618874D02*
X107001973Y-106667255D01*
X107001973Y-106667255D02*
X107073401Y-106764017D01*
X107073401Y-106764017D02*
X107073401Y-106909160D01*
X107073401Y-106909160D02*
X107001973Y-107005922D01*
X107001973Y-107005922D02*
X106930544Y-107054303D01*
X106930544Y-107054303D02*
X106787687Y-107102684D01*
X106787687Y-107102684D02*
X106216258Y-107102684D01*
D11*
X66708866Y-106630334D02*
X70332600Y-105714800D01*
X91894400Y-102638800D02*
X86715600Y-102641400D01*
D12*
X96570800Y-107848400D02*
X101269800Y-107848400D01*
X96520000Y-134493000D02*
X101219000Y-134493000D01*
D10*
X98156744Y-117969046D02*
X99299602Y-117969046D01*
X98728173Y-118356093D02*
X98728173Y-117581998D01*
X100728173Y-117340093D02*
X100013887Y-117340093D01*
X100013887Y-117340093D02*
X99942459Y-117823903D01*
X99942459Y-117823903D02*
X100013887Y-117775522D01*
X100013887Y-117775522D02*
X100156745Y-117727141D01*
X100156745Y-117727141D02*
X100513887Y-117727141D01*
X100513887Y-117727141D02*
X100656745Y-117775522D01*
X100656745Y-117775522D02*
X100728173Y-117823903D01*
X100728173Y-117823903D02*
X100799602Y-117920665D01*
X100799602Y-117920665D02*
X100799602Y-118162570D01*
X100799602Y-118162570D02*
X100728173Y-118259332D01*
X100728173Y-118259332D02*
X100656745Y-118307713D01*
X100656745Y-118307713D02*
X100513887Y-118356093D01*
X100513887Y-118356093D02*
X100156745Y-118356093D01*
X100156745Y-118356093D02*
X100013887Y-118307713D01*
X100013887Y-118307713D02*
X99942459Y-118259332D01*
X103165458Y-133215093D02*
X103165458Y-134037570D01*
X103165458Y-134037570D02*
X103236887Y-134134332D01*
X103236887Y-134134332D02*
X103308316Y-134182713D01*
X103308316Y-134182713D02*
X103451173Y-134231093D01*
X103451173Y-134231093D02*
X103736887Y-134231093D01*
X103736887Y-134231093D02*
X103879744Y-134182713D01*
X103879744Y-134182713D02*
X103951173Y-134134332D01*
X103951173Y-134134332D02*
X104022601Y-134037570D01*
X104022601Y-134037570D02*
X104022601Y-133215093D01*
X104665459Y-134182713D02*
X104879745Y-134231093D01*
X104879745Y-134231093D02*
X105236887Y-134231093D01*
X105236887Y-134231093D02*
X105379745Y-134182713D01*
X105379745Y-134182713D02*
X105451173Y-134134332D01*
X105451173Y-134134332D02*
X105522602Y-134037570D01*
X105522602Y-134037570D02*
X105522602Y-133940808D01*
X105522602Y-133940808D02*
X105451173Y-133844046D01*
X105451173Y-133844046D02*
X105379745Y-133795665D01*
X105379745Y-133795665D02*
X105236887Y-133747284D01*
X105236887Y-133747284D02*
X104951173Y-133698903D01*
X104951173Y-133698903D02*
X104808316Y-133650522D01*
X104808316Y-133650522D02*
X104736887Y-133602141D01*
X104736887Y-133602141D02*
X104665459Y-133505379D01*
X104665459Y-133505379D02*
X104665459Y-133408617D01*
X104665459Y-133408617D02*
X104736887Y-133311855D01*
X104736887Y-133311855D02*
X104808316Y-133263474D01*
X104808316Y-133263474D02*
X104951173Y-133215093D01*
X104951173Y-133215093D02*
X105308316Y-133215093D01*
X105308316Y-133215093D02*
X105522602Y-133263474D01*
X107022601Y-134231093D02*
X106522601Y-133747284D01*
X106165458Y-134231093D02*
X106165458Y-133215093D01*
X106165458Y-133215093D02*
X106736887Y-133215093D01*
X106736887Y-133215093D02*
X106879744Y-133263474D01*
X106879744Y-133263474D02*
X106951173Y-133311855D01*
X106951173Y-133311855D02*
X107022601Y-133408617D01*
X107022601Y-133408617D02*
X107022601Y-133553760D01*
X107022601Y-133553760D02*
X106951173Y-133650522D01*
X106951173Y-133650522D02*
X106879744Y-133698903D01*
X106879744Y-133698903D02*
X106736887Y-133747284D01*
X106736887Y-133747284D02*
X106165458Y-133747284D01*
X89830458Y-117467093D02*
X89830458Y-118289570D01*
X89830458Y-118289570D02*
X89901887Y-118386332D01*
X89901887Y-118386332D02*
X89973316Y-118434713D01*
X89973316Y-118434713D02*
X90116173Y-118483093D01*
X90116173Y-118483093D02*
X90401887Y-118483093D01*
X90401887Y-118483093D02*
X90544744Y-118434713D01*
X90544744Y-118434713D02*
X90616173Y-118386332D01*
X90616173Y-118386332D02*
X90687601Y-118289570D01*
X90687601Y-118289570D02*
X90687601Y-117467093D01*
X91330459Y-118434713D02*
X91544745Y-118483093D01*
X91544745Y-118483093D02*
X91901887Y-118483093D01*
X91901887Y-118483093D02*
X92044745Y-118434713D01*
X92044745Y-118434713D02*
X92116173Y-118386332D01*
X92116173Y-118386332D02*
X92187602Y-118289570D01*
X92187602Y-118289570D02*
X92187602Y-118192808D01*
X92187602Y-118192808D02*
X92116173Y-118096046D01*
X92116173Y-118096046D02*
X92044745Y-118047665D01*
X92044745Y-118047665D02*
X91901887Y-117999284D01*
X91901887Y-117999284D02*
X91616173Y-117950903D01*
X91616173Y-117950903D02*
X91473316Y-117902522D01*
X91473316Y-117902522D02*
X91401887Y-117854141D01*
X91401887Y-117854141D02*
X91330459Y-117757379D01*
X91330459Y-117757379D02*
X91330459Y-117660617D01*
X91330459Y-117660617D02*
X91401887Y-117563855D01*
X91401887Y-117563855D02*
X91473316Y-117515474D01*
X91473316Y-117515474D02*
X91616173Y-117467093D01*
X91616173Y-117467093D02*
X91973316Y-117467093D01*
X91973316Y-117467093D02*
X92187602Y-117515474D01*
X93330458Y-117950903D02*
X93544744Y-117999284D01*
X93544744Y-117999284D02*
X93616173Y-118047665D01*
X93616173Y-118047665D02*
X93687601Y-118144427D01*
X93687601Y-118144427D02*
X93687601Y-118289570D01*
X93687601Y-118289570D02*
X93616173Y-118386332D01*
X93616173Y-118386332D02*
X93544744Y-118434713D01*
X93544744Y-118434713D02*
X93401887Y-118483093D01*
X93401887Y-118483093D02*
X92830458Y-118483093D01*
X92830458Y-118483093D02*
X92830458Y-117467093D01*
X92830458Y-117467093D02*
X93330458Y-117467093D01*
X93330458Y-117467093D02*
X93473316Y-117515474D01*
X93473316Y-117515474D02*
X93544744Y-117563855D01*
X93544744Y-117563855D02*
X93616173Y-117660617D01*
X93616173Y-117660617D02*
X93616173Y-117757379D01*
X93616173Y-117757379D02*
X93544744Y-117854141D01*
X93544744Y-117854141D02*
X93473316Y-117902522D01*
X93473316Y-117902522D02*
X93330458Y-117950903D01*
X93330458Y-117950903D02*
X92830458Y-117950903D01*
X102443172Y-118483093D02*
X102443172Y-117467093D01*
X102443172Y-117467093D02*
X103014601Y-117467093D01*
X103014601Y-117467093D02*
X103157458Y-117515474D01*
X103157458Y-117515474D02*
X103228887Y-117563855D01*
X103228887Y-117563855D02*
X103300315Y-117660617D01*
X103300315Y-117660617D02*
X103300315Y-117805760D01*
X103300315Y-117805760D02*
X103228887Y-117902522D01*
X103228887Y-117902522D02*
X103157458Y-117950903D01*
X103157458Y-117950903D02*
X103014601Y-117999284D01*
X103014601Y-117999284D02*
X102443172Y-117999284D01*
X103800315Y-117467093D02*
X104157458Y-118483093D01*
X104157458Y-118483093D02*
X104443172Y-117757379D01*
X104443172Y-117757379D02*
X104728887Y-118483093D01*
X104728887Y-118483093D02*
X105086030Y-117467093D01*
X106514601Y-118483093D02*
X106014601Y-117999284D01*
X105657458Y-118483093D02*
X105657458Y-117467093D01*
X105657458Y-117467093D02*
X106228887Y-117467093D01*
X106228887Y-117467093D02*
X106371744Y-117515474D01*
X106371744Y-117515474D02*
X106443173Y-117563855D01*
X106443173Y-117563855D02*
X106514601Y-117660617D01*
X106514601Y-117660617D02*
X106514601Y-117805760D01*
X106514601Y-117805760D02*
X106443173Y-117902522D01*
X106443173Y-117902522D02*
X106371744Y-117950903D01*
X106371744Y-117950903D02*
X106228887Y-117999284D01*
X106228887Y-117999284D02*
X105657458Y-117999284D01*
D12*
X90887561Y-107899257D02*
X90792323Y-107850876D01*
X90792323Y-107850876D02*
X90697085Y-107754115D01*
X90697085Y-107754115D02*
X90554228Y-107608972D01*
X90554228Y-107608972D02*
X90458990Y-107560591D01*
X90458990Y-107560591D02*
X90363752Y-107560591D01*
X90411371Y-107802495D02*
X90316133Y-107754115D01*
X90316133Y-107754115D02*
X90220895Y-107657353D01*
X90220895Y-107657353D02*
X90173276Y-107463829D01*
X90173276Y-107463829D02*
X90173276Y-107125162D01*
X90173276Y-107125162D02*
X90220895Y-106931638D01*
X90220895Y-106931638D02*
X90316133Y-106834876D01*
X90316133Y-106834876D02*
X90411371Y-106786495D01*
X90411371Y-106786495D02*
X90601847Y-106786495D01*
X90601847Y-106786495D02*
X90697085Y-106834876D01*
X90697085Y-106834876D02*
X90792323Y-106931638D01*
X90792323Y-106931638D02*
X90839942Y-107125162D01*
X90839942Y-107125162D02*
X90839942Y-107463829D01*
X90839942Y-107463829D02*
X90792323Y-107657353D01*
X90792323Y-107657353D02*
X90697085Y-107754115D01*
X90697085Y-107754115D02*
X90601847Y-107802495D01*
X90601847Y-107802495D02*
X90411371Y-107802495D01*
X91173276Y-106786495D02*
X91792323Y-106786495D01*
X91792323Y-106786495D02*
X91458990Y-107173543D01*
X91458990Y-107173543D02*
X91601847Y-107173543D01*
X91601847Y-107173543D02*
X91697085Y-107221924D01*
X91697085Y-107221924D02*
X91744704Y-107270305D01*
X91744704Y-107270305D02*
X91792323Y-107367067D01*
X91792323Y-107367067D02*
X91792323Y-107608972D01*
X91792323Y-107608972D02*
X91744704Y-107705734D01*
X91744704Y-107705734D02*
X91697085Y-107754115D01*
X91697085Y-107754115D02*
X91601847Y-107802495D01*
X91601847Y-107802495D02*
X91316133Y-107802495D01*
X91316133Y-107802495D02*
X91220895Y-107754115D01*
X91220895Y-107754115D02*
X91173276Y-107705734D01*
D11*
X94118133Y-96162019D02*
X93784800Y-95685828D01*
X93546705Y-96162019D02*
X93546705Y-95162019D01*
X93546705Y-95162019D02*
X93927657Y-95162019D01*
X93927657Y-95162019D02*
X94022895Y-95209638D01*
X94022895Y-95209638D02*
X94070514Y-95257257D01*
X94070514Y-95257257D02*
X94118133Y-95352495D01*
X94118133Y-95352495D02*
X94118133Y-95495352D01*
X94118133Y-95495352D02*
X94070514Y-95590590D01*
X94070514Y-95590590D02*
X94022895Y-95638209D01*
X94022895Y-95638209D02*
X93927657Y-95685828D01*
X93927657Y-95685828D02*
X93546705Y-95685828D01*
X94451467Y-95162019D02*
X95070514Y-95162019D01*
X95070514Y-95162019D02*
X94737181Y-95542971D01*
X94737181Y-95542971D02*
X94880038Y-95542971D01*
X94880038Y-95542971D02*
X94975276Y-95590590D01*
X94975276Y-95590590D02*
X95022895Y-95638209D01*
X95022895Y-95638209D02*
X95070514Y-95733447D01*
X95070514Y-95733447D02*
X95070514Y-95971542D01*
X95070514Y-95971542D02*
X95022895Y-96066780D01*
X95022895Y-96066780D02*
X94975276Y-96114400D01*
X94975276Y-96114400D02*
X94880038Y-96162019D01*
X94880038Y-96162019D02*
X94594324Y-96162019D01*
X94594324Y-96162019D02*
X94499086Y-96114400D01*
X94499086Y-96114400D02*
X94451467Y-96066780D01*
X69226133Y-92485380D02*
X69178514Y-92533000D01*
X69178514Y-92533000D02*
X69035657Y-92580619D01*
X69035657Y-92580619D02*
X68940419Y-92580619D01*
X68940419Y-92580619D02*
X68797562Y-92533000D01*
X68797562Y-92533000D02*
X68702324Y-92437761D01*
X68702324Y-92437761D02*
X68654705Y-92342523D01*
X68654705Y-92342523D02*
X68607086Y-92152047D01*
X68607086Y-92152047D02*
X68607086Y-92009190D01*
X68607086Y-92009190D02*
X68654705Y-91818714D01*
X68654705Y-91818714D02*
X68702324Y-91723476D01*
X68702324Y-91723476D02*
X68797562Y-91628238D01*
X68797562Y-91628238D02*
X68940419Y-91580619D01*
X68940419Y-91580619D02*
X69035657Y-91580619D01*
X69035657Y-91580619D02*
X69178514Y-91628238D01*
X69178514Y-91628238D02*
X69226133Y-91675857D01*
X69559467Y-91580619D02*
X70178514Y-91580619D01*
X70178514Y-91580619D02*
X69845181Y-91961571D01*
X69845181Y-91961571D02*
X69988038Y-91961571D01*
X69988038Y-91961571D02*
X70083276Y-92009190D01*
X70083276Y-92009190D02*
X70130895Y-92056809D01*
X70130895Y-92056809D02*
X70178514Y-92152047D01*
X70178514Y-92152047D02*
X70178514Y-92390142D01*
X70178514Y-92390142D02*
X70130895Y-92485380D01*
X70130895Y-92485380D02*
X70083276Y-92533000D01*
X70083276Y-92533000D02*
X69988038Y-92580619D01*
X69988038Y-92580619D02*
X69702324Y-92580619D01*
X69702324Y-92580619D02*
X69607086Y-92533000D01*
X69607086Y-92533000D02*
X69559467Y-92485380D01*
D12*
X71035942Y-108086734D02*
X70988323Y-108135115D01*
X70988323Y-108135115D02*
X70845466Y-108183495D01*
X70845466Y-108183495D02*
X70750228Y-108183495D01*
X70750228Y-108183495D02*
X70607371Y-108135115D01*
X70607371Y-108135115D02*
X70512133Y-108038353D01*
X70512133Y-108038353D02*
X70464514Y-107941591D01*
X70464514Y-107941591D02*
X70416895Y-107748067D01*
X70416895Y-107748067D02*
X70416895Y-107602924D01*
X70416895Y-107602924D02*
X70464514Y-107409400D01*
X70464514Y-107409400D02*
X70512133Y-107312638D01*
X70512133Y-107312638D02*
X70607371Y-107215876D01*
X70607371Y-107215876D02*
X70750228Y-107167495D01*
X70750228Y-107167495D02*
X70845466Y-107167495D01*
X70845466Y-107167495D02*
X70988323Y-107215876D01*
X70988323Y-107215876D02*
X71035942Y-107264257D01*
X71988323Y-108183495D02*
X71416895Y-108183495D01*
X71702609Y-108183495D02*
X71702609Y-107167495D01*
X71702609Y-107167495D02*
X71607371Y-107312638D01*
X71607371Y-107312638D02*
X71512133Y-107409400D01*
X71512133Y-107409400D02*
X71416895Y-107457781D01*
X72940704Y-108183495D02*
X72369276Y-108183495D01*
X72654990Y-108183495D02*
X72654990Y-107167495D01*
X72654990Y-107167495D02*
X72559752Y-107312638D01*
X72559752Y-107312638D02*
X72464514Y-107409400D01*
X72464514Y-107409400D02*
X72369276Y-107457781D01*
X88996342Y-104373495D02*
X88663009Y-103889686D01*
X88424914Y-104373495D02*
X88424914Y-103357495D01*
X88424914Y-103357495D02*
X88805866Y-103357495D01*
X88805866Y-103357495D02*
X88901104Y-103405876D01*
X88901104Y-103405876D02*
X88948723Y-103454257D01*
X88948723Y-103454257D02*
X88996342Y-103551019D01*
X88996342Y-103551019D02*
X88996342Y-103696162D01*
X88996342Y-103696162D02*
X88948723Y-103792924D01*
X88948723Y-103792924D02*
X88901104Y-103841305D01*
X88901104Y-103841305D02*
X88805866Y-103889686D01*
X88805866Y-103889686D02*
X88424914Y-103889686D01*
X89948723Y-104373495D02*
X89377295Y-104373495D01*
X89663009Y-104373495D02*
X89663009Y-103357495D01*
X89663009Y-103357495D02*
X89567771Y-103502638D01*
X89567771Y-103502638D02*
X89472533Y-103599400D01*
X89472533Y-103599400D02*
X89377295Y-103647781D01*
X90567771Y-103357495D02*
X90663009Y-103357495D01*
X90663009Y-103357495D02*
X90758247Y-103405876D01*
X90758247Y-103405876D02*
X90805866Y-103454257D01*
X90805866Y-103454257D02*
X90853485Y-103551019D01*
X90853485Y-103551019D02*
X90901104Y-103744543D01*
X90901104Y-103744543D02*
X90901104Y-103986448D01*
X90901104Y-103986448D02*
X90853485Y-104179972D01*
X90853485Y-104179972D02*
X90805866Y-104276734D01*
X90805866Y-104276734D02*
X90758247Y-104325115D01*
X90758247Y-104325115D02*
X90663009Y-104373495D01*
X90663009Y-104373495D02*
X90567771Y-104373495D01*
X90567771Y-104373495D02*
X90472533Y-104325115D01*
X90472533Y-104325115D02*
X90424914Y-104276734D01*
X90424914Y-104276734D02*
X90377295Y-104179972D01*
X90377295Y-104179972D02*
X90329676Y-103986448D01*
X90329676Y-103986448D02*
X90329676Y-103744543D01*
X90329676Y-103744543D02*
X90377295Y-103551019D01*
X90377295Y-103551019D02*
X90424914Y-103454257D01*
X90424914Y-103454257D02*
X90472533Y-103405876D01*
X90472533Y-103405876D02*
X90567771Y-103357495D01*
D11*
X91781333Y-95177780D02*
X91733714Y-95225400D01*
X91733714Y-95225400D02*
X91590857Y-95273019D01*
X91590857Y-95273019D02*
X91495619Y-95273019D01*
X91495619Y-95273019D02*
X91352762Y-95225400D01*
X91352762Y-95225400D02*
X91257524Y-95130161D01*
X91257524Y-95130161D02*
X91209905Y-95034923D01*
X91209905Y-95034923D02*
X91162286Y-94844447D01*
X91162286Y-94844447D02*
X91162286Y-94701590D01*
X91162286Y-94701590D02*
X91209905Y-94511114D01*
X91209905Y-94511114D02*
X91257524Y-94415876D01*
X91257524Y-94415876D02*
X91352762Y-94320638D01*
X91352762Y-94320638D02*
X91495619Y-94273019D01*
X91495619Y-94273019D02*
X91590857Y-94273019D01*
X91590857Y-94273019D02*
X91733714Y-94320638D01*
X91733714Y-94320638D02*
X91781333Y-94368257D01*
X92733714Y-95273019D02*
X92162286Y-95273019D01*
X92448000Y-95273019D02*
X92448000Y-94273019D01*
X92448000Y-94273019D02*
X92352762Y-94415876D01*
X92352762Y-94415876D02*
X92257524Y-94511114D01*
X92257524Y-94511114D02*
X92162286Y-94558733D01*
D12*
X101376295Y-106967257D02*
X100892486Y-107300590D01*
X101376295Y-107538685D02*
X100360295Y-107538685D01*
X100360295Y-107538685D02*
X100360295Y-107157733D01*
X100360295Y-107157733D02*
X100408676Y-107062495D01*
X100408676Y-107062495D02*
X100457057Y-107014876D01*
X100457057Y-107014876D02*
X100553819Y-106967257D01*
X100553819Y-106967257D02*
X100698962Y-106967257D01*
X100698962Y-106967257D02*
X100795724Y-107014876D01*
X100795724Y-107014876D02*
X100844105Y-107062495D01*
X100844105Y-107062495D02*
X100892486Y-107157733D01*
X100892486Y-107157733D02*
X100892486Y-107538685D01*
X101376295Y-106014876D02*
X101376295Y-106586304D01*
X101376295Y-106300590D02*
X100360295Y-106300590D01*
X100360295Y-106300590D02*
X100505438Y-106395828D01*
X100505438Y-106395828D02*
X100602200Y-106491066D01*
X100602200Y-106491066D02*
X100650581Y-106586304D01*
X100698962Y-105157733D02*
X101376295Y-105157733D01*
X100311915Y-105395828D02*
X101037629Y-105633923D01*
X101037629Y-105633923D02*
X101037629Y-105014876D01*
X100080895Y-106967257D02*
X99597086Y-107300590D01*
X100080895Y-107538685D02*
X99064895Y-107538685D01*
X99064895Y-107538685D02*
X99064895Y-107157733D01*
X99064895Y-107157733D02*
X99113276Y-107062495D01*
X99113276Y-107062495D02*
X99161657Y-107014876D01*
X99161657Y-107014876D02*
X99258419Y-106967257D01*
X99258419Y-106967257D02*
X99403562Y-106967257D01*
X99403562Y-106967257D02*
X99500324Y-107014876D01*
X99500324Y-107014876D02*
X99548705Y-107062495D01*
X99548705Y-107062495D02*
X99597086Y-107157733D01*
X99597086Y-107157733D02*
X99597086Y-107538685D01*
X100080895Y-106014876D02*
X100080895Y-106586304D01*
X100080895Y-106300590D02*
X99064895Y-106300590D01*
X99064895Y-106300590D02*
X99210038Y-106395828D01*
X99210038Y-106395828D02*
X99306800Y-106491066D01*
X99306800Y-106491066D02*
X99355181Y-106586304D01*
X99064895Y-105110114D02*
X99064895Y-105586304D01*
X99064895Y-105586304D02*
X99548705Y-105633923D01*
X99548705Y-105633923D02*
X99500324Y-105586304D01*
X99500324Y-105586304D02*
X99451943Y-105491066D01*
X99451943Y-105491066D02*
X99451943Y-105252971D01*
X99451943Y-105252971D02*
X99500324Y-105157733D01*
X99500324Y-105157733D02*
X99548705Y-105110114D01*
X99548705Y-105110114D02*
X99645467Y-105062495D01*
X99645467Y-105062495D02*
X99887372Y-105062495D01*
X99887372Y-105062495D02*
X99984134Y-105110114D01*
X99984134Y-105110114D02*
X100032515Y-105157733D01*
X100032515Y-105157733D02*
X100080895Y-105252971D01*
X100080895Y-105252971D02*
X100080895Y-105491066D01*
X100080895Y-105491066D02*
X100032515Y-105586304D01*
X100032515Y-105586304D02*
X99984134Y-105633923D01*
X103039942Y-102976495D02*
X102706609Y-102492686D01*
X102468514Y-102976495D02*
X102468514Y-101960495D01*
X102468514Y-101960495D02*
X102849466Y-101960495D01*
X102849466Y-101960495D02*
X102944704Y-102008876D01*
X102944704Y-102008876D02*
X102992323Y-102057257D01*
X102992323Y-102057257D02*
X103039942Y-102154019D01*
X103039942Y-102154019D02*
X103039942Y-102299162D01*
X103039942Y-102299162D02*
X102992323Y-102395924D01*
X102992323Y-102395924D02*
X102944704Y-102444305D01*
X102944704Y-102444305D02*
X102849466Y-102492686D01*
X102849466Y-102492686D02*
X102468514Y-102492686D01*
X103992323Y-102976495D02*
X103420895Y-102976495D01*
X103706609Y-102976495D02*
X103706609Y-101960495D01*
X103706609Y-101960495D02*
X103611371Y-102105638D01*
X103611371Y-102105638D02*
X103516133Y-102202400D01*
X103516133Y-102202400D02*
X103420895Y-102250781D01*
X104325657Y-101960495D02*
X104944704Y-101960495D01*
X104944704Y-101960495D02*
X104611371Y-102347543D01*
X104611371Y-102347543D02*
X104754228Y-102347543D01*
X104754228Y-102347543D02*
X104849466Y-102395924D01*
X104849466Y-102395924D02*
X104897085Y-102444305D01*
X104897085Y-102444305D02*
X104944704Y-102541067D01*
X104944704Y-102541067D02*
X104944704Y-102782972D01*
X104944704Y-102782972D02*
X104897085Y-102879734D01*
X104897085Y-102879734D02*
X104849466Y-102928115D01*
X104849466Y-102928115D02*
X104754228Y-102976495D01*
X104754228Y-102976495D02*
X104468514Y-102976495D01*
X104468514Y-102976495D02*
X104373276Y-102928115D01*
X104373276Y-102928115D02*
X104325657Y-102879734D01*
D11*
X95044419Y-101207866D02*
X94568228Y-101541199D01*
X95044419Y-101779294D02*
X94044419Y-101779294D01*
X94044419Y-101779294D02*
X94044419Y-101398342D01*
X94044419Y-101398342D02*
X94092038Y-101303104D01*
X94092038Y-101303104D02*
X94139657Y-101255485D01*
X94139657Y-101255485D02*
X94234895Y-101207866D01*
X94234895Y-101207866D02*
X94377752Y-101207866D01*
X94377752Y-101207866D02*
X94472990Y-101255485D01*
X94472990Y-101255485D02*
X94520609Y-101303104D01*
X94520609Y-101303104D02*
X94568228Y-101398342D01*
X94568228Y-101398342D02*
X94568228Y-101779294D01*
X94139657Y-100826913D02*
X94092038Y-100779294D01*
X94092038Y-100779294D02*
X94044419Y-100684056D01*
X94044419Y-100684056D02*
X94044419Y-100445961D01*
X94044419Y-100445961D02*
X94092038Y-100350723D01*
X94092038Y-100350723D02*
X94139657Y-100303104D01*
X94139657Y-100303104D02*
X94234895Y-100255485D01*
X94234895Y-100255485D02*
X94330133Y-100255485D01*
X94330133Y-100255485D02*
X94472990Y-100303104D01*
X94472990Y-100303104D02*
X95044419Y-100874532D01*
X95044419Y-100874532D02*
X95044419Y-100255485D01*
D12*
X103159134Y-95950066D02*
X103207515Y-95997685D01*
X103207515Y-95997685D02*
X103255895Y-96140542D01*
X103255895Y-96140542D02*
X103255895Y-96235780D01*
X103255895Y-96235780D02*
X103207515Y-96378637D01*
X103207515Y-96378637D02*
X103110753Y-96473875D01*
X103110753Y-96473875D02*
X103013991Y-96521494D01*
X103013991Y-96521494D02*
X102820467Y-96569113D01*
X102820467Y-96569113D02*
X102675324Y-96569113D01*
X102675324Y-96569113D02*
X102481800Y-96521494D01*
X102481800Y-96521494D02*
X102385038Y-96473875D01*
X102385038Y-96473875D02*
X102288276Y-96378637D01*
X102288276Y-96378637D02*
X102239895Y-96235780D01*
X102239895Y-96235780D02*
X102239895Y-96140542D01*
X102239895Y-96140542D02*
X102288276Y-95997685D01*
X102288276Y-95997685D02*
X102336657Y-95950066D01*
X102578562Y-95092923D02*
X103255895Y-95092923D01*
X102191515Y-95331018D02*
X102917229Y-95569113D01*
X102917229Y-95569113D02*
X102917229Y-94950066D01*
D11*
X86705750Y-96114446D02*
X87278170Y-96686866D01*
X87278170Y-96686866D02*
X87379185Y-96720538D01*
X87379185Y-96720538D02*
X87446529Y-96720538D01*
X87446529Y-96720538D02*
X87547544Y-96686866D01*
X87547544Y-96686866D02*
X87682231Y-96552179D01*
X87682231Y-96552179D02*
X87715903Y-96451164D01*
X87715903Y-96451164D02*
X87715903Y-96383820D01*
X87715903Y-96383820D02*
X87682231Y-96282805D01*
X87682231Y-96282805D02*
X87109811Y-95710385D01*
X87480201Y-95474683D02*
X87480201Y-95407340D01*
X87480201Y-95407340D02*
X87513872Y-95306324D01*
X87513872Y-95306324D02*
X87682231Y-95137966D01*
X87682231Y-95137966D02*
X87783246Y-95104294D01*
X87783246Y-95104294D02*
X87850590Y-95104294D01*
X87850590Y-95104294D02*
X87951605Y-95137966D01*
X87951605Y-95137966D02*
X88018949Y-95205309D01*
X88018949Y-95205309D02*
X88086292Y-95339996D01*
X88086292Y-95339996D02*
X88086292Y-96148118D01*
X88086292Y-96148118D02*
X88524025Y-95710385D01*
D12*
X99960133Y-93481734D02*
X99912514Y-93530115D01*
X99912514Y-93530115D02*
X99769657Y-93578495D01*
X99769657Y-93578495D02*
X99674419Y-93578495D01*
X99674419Y-93578495D02*
X99531562Y-93530115D01*
X99531562Y-93530115D02*
X99436324Y-93433353D01*
X99436324Y-93433353D02*
X99388705Y-93336591D01*
X99388705Y-93336591D02*
X99341086Y-93143067D01*
X99341086Y-93143067D02*
X99341086Y-92997924D01*
X99341086Y-92997924D02*
X99388705Y-92804400D01*
X99388705Y-92804400D02*
X99436324Y-92707638D01*
X99436324Y-92707638D02*
X99531562Y-92610876D01*
X99531562Y-92610876D02*
X99674419Y-92562495D01*
X99674419Y-92562495D02*
X99769657Y-92562495D01*
X99769657Y-92562495D02*
X99912514Y-92610876D01*
X99912514Y-92610876D02*
X99960133Y-92659257D01*
X100864895Y-92562495D02*
X100388705Y-92562495D01*
X100388705Y-92562495D02*
X100341086Y-93046305D01*
X100341086Y-93046305D02*
X100388705Y-92997924D01*
X100388705Y-92997924D02*
X100483943Y-92949543D01*
X100483943Y-92949543D02*
X100722038Y-92949543D01*
X100722038Y-92949543D02*
X100817276Y-92997924D01*
X100817276Y-92997924D02*
X100864895Y-93046305D01*
X100864895Y-93046305D02*
X100912514Y-93143067D01*
X100912514Y-93143067D02*
X100912514Y-93384972D01*
X100912514Y-93384972D02*
X100864895Y-93481734D01*
X100864895Y-93481734D02*
X100817276Y-93530115D01*
X100817276Y-93530115D02*
X100722038Y-93578495D01*
X100722038Y-93578495D02*
X100483943Y-93578495D01*
X100483943Y-93578495D02*
X100388705Y-93530115D01*
X100388705Y-93530115D02*
X100341086Y-93481734D01*
X95007133Y-107959734D02*
X94959514Y-108008115D01*
X94959514Y-108008115D02*
X94816657Y-108056495D01*
X94816657Y-108056495D02*
X94721419Y-108056495D01*
X94721419Y-108056495D02*
X94578562Y-108008115D01*
X94578562Y-108008115D02*
X94483324Y-107911353D01*
X94483324Y-107911353D02*
X94435705Y-107814591D01*
X94435705Y-107814591D02*
X94388086Y-107621067D01*
X94388086Y-107621067D02*
X94388086Y-107475924D01*
X94388086Y-107475924D02*
X94435705Y-107282400D01*
X94435705Y-107282400D02*
X94483324Y-107185638D01*
X94483324Y-107185638D02*
X94578562Y-107088876D01*
X94578562Y-107088876D02*
X94721419Y-107040495D01*
X94721419Y-107040495D02*
X94816657Y-107040495D01*
X94816657Y-107040495D02*
X94959514Y-107088876D01*
X94959514Y-107088876D02*
X95007133Y-107137257D01*
X95483324Y-108056495D02*
X95673800Y-108056495D01*
X95673800Y-108056495D02*
X95769038Y-108008115D01*
X95769038Y-108008115D02*
X95816657Y-107959734D01*
X95816657Y-107959734D02*
X95911895Y-107814591D01*
X95911895Y-107814591D02*
X95959514Y-107621067D01*
X95959514Y-107621067D02*
X95959514Y-107234019D01*
X95959514Y-107234019D02*
X95911895Y-107137257D01*
X95911895Y-107137257D02*
X95864276Y-107088876D01*
X95864276Y-107088876D02*
X95769038Y-107040495D01*
X95769038Y-107040495D02*
X95578562Y-107040495D01*
X95578562Y-107040495D02*
X95483324Y-107088876D01*
X95483324Y-107088876D02*
X95435705Y-107137257D01*
X95435705Y-107137257D02*
X95388086Y-107234019D01*
X95388086Y-107234019D02*
X95388086Y-107475924D01*
X95388086Y-107475924D02*
X95435705Y-107572686D01*
X95435705Y-107572686D02*
X95483324Y-107621067D01*
X95483324Y-107621067D02*
X95578562Y-107669448D01*
X95578562Y-107669448D02*
X95769038Y-107669448D01*
X95769038Y-107669448D02*
X95864276Y-107621067D01*
X95864276Y-107621067D02*
X95911895Y-107572686D01*
X95911895Y-107572686D02*
X95959514Y-107475924D01*
D11*
X71752619Y-103874866D02*
X71276428Y-104208199D01*
X71752619Y-104446294D02*
X70752619Y-104446294D01*
X70752619Y-104446294D02*
X70752619Y-104065342D01*
X70752619Y-104065342D02*
X70800238Y-103970104D01*
X70800238Y-103970104D02*
X70847857Y-103922485D01*
X70847857Y-103922485D02*
X70943095Y-103874866D01*
X70943095Y-103874866D02*
X71085952Y-103874866D01*
X71085952Y-103874866D02*
X71181190Y-103922485D01*
X71181190Y-103922485D02*
X71228809Y-103970104D01*
X71228809Y-103970104D02*
X71276428Y-104065342D01*
X71276428Y-104065342D02*
X71276428Y-104446294D01*
X70752619Y-102970104D02*
X70752619Y-103446294D01*
X70752619Y-103446294D02*
X71228809Y-103493913D01*
X71228809Y-103493913D02*
X71181190Y-103446294D01*
X71181190Y-103446294D02*
X71133571Y-103351056D01*
X71133571Y-103351056D02*
X71133571Y-103112961D01*
X71133571Y-103112961D02*
X71181190Y-103017723D01*
X71181190Y-103017723D02*
X71228809Y-102970104D01*
X71228809Y-102970104D02*
X71324047Y-102922485D01*
X71324047Y-102922485D02*
X71562142Y-102922485D01*
X71562142Y-102922485D02*
X71657380Y-102970104D01*
X71657380Y-102970104D02*
X71705000Y-103017723D01*
X71705000Y-103017723D02*
X71752619Y-103112961D01*
X71752619Y-103112961D02*
X71752619Y-103351056D01*
X71752619Y-103351056D02*
X71705000Y-103446294D01*
X71705000Y-103446294D02*
X71657380Y-103493913D01*
X87793533Y-92663180D02*
X87745914Y-92710800D01*
X87745914Y-92710800D02*
X87603057Y-92758419D01*
X87603057Y-92758419D02*
X87507819Y-92758419D01*
X87507819Y-92758419D02*
X87364962Y-92710800D01*
X87364962Y-92710800D02*
X87269724Y-92615561D01*
X87269724Y-92615561D02*
X87222105Y-92520323D01*
X87222105Y-92520323D02*
X87174486Y-92329847D01*
X87174486Y-92329847D02*
X87174486Y-92186990D01*
X87174486Y-92186990D02*
X87222105Y-91996514D01*
X87222105Y-91996514D02*
X87269724Y-91901276D01*
X87269724Y-91901276D02*
X87364962Y-91806038D01*
X87364962Y-91806038D02*
X87507819Y-91758419D01*
X87507819Y-91758419D02*
X87603057Y-91758419D01*
X87603057Y-91758419D02*
X87745914Y-91806038D01*
X87745914Y-91806038D02*
X87793533Y-91853657D01*
X88174486Y-91853657D02*
X88222105Y-91806038D01*
X88222105Y-91806038D02*
X88317343Y-91758419D01*
X88317343Y-91758419D02*
X88555438Y-91758419D01*
X88555438Y-91758419D02*
X88650676Y-91806038D01*
X88650676Y-91806038D02*
X88698295Y-91853657D01*
X88698295Y-91853657D02*
X88745914Y-91948895D01*
X88745914Y-91948895D02*
X88745914Y-92044133D01*
X88745914Y-92044133D02*
X88698295Y-92186990D01*
X88698295Y-92186990D02*
X88126867Y-92758419D01*
X88126867Y-92758419D02*
X88745914Y-92758419D01*
X93381533Y-99616419D02*
X93048200Y-99140228D01*
X92810105Y-99616419D02*
X92810105Y-98616419D01*
X92810105Y-98616419D02*
X93191057Y-98616419D01*
X93191057Y-98616419D02*
X93286295Y-98664038D01*
X93286295Y-98664038D02*
X93333914Y-98711657D01*
X93333914Y-98711657D02*
X93381533Y-98806895D01*
X93381533Y-98806895D02*
X93381533Y-98949752D01*
X93381533Y-98949752D02*
X93333914Y-99044990D01*
X93333914Y-99044990D02*
X93286295Y-99092609D01*
X93286295Y-99092609D02*
X93191057Y-99140228D01*
X93191057Y-99140228D02*
X92810105Y-99140228D01*
X94333914Y-99616419D02*
X93762486Y-99616419D01*
X94048200Y-99616419D02*
X94048200Y-98616419D01*
X94048200Y-98616419D02*
X93952962Y-98759276D01*
X93952962Y-98759276D02*
X93857724Y-98854514D01*
X93857724Y-98854514D02*
X93762486Y-98902133D01*
X72311419Y-95315066D02*
X71835228Y-95648399D01*
X72311419Y-95886494D02*
X71311419Y-95886494D01*
X71311419Y-95886494D02*
X71311419Y-95505542D01*
X71311419Y-95505542D02*
X71359038Y-95410304D01*
X71359038Y-95410304D02*
X71406657Y-95362685D01*
X71406657Y-95362685D02*
X71501895Y-95315066D01*
X71501895Y-95315066D02*
X71644752Y-95315066D01*
X71644752Y-95315066D02*
X71739990Y-95362685D01*
X71739990Y-95362685D02*
X71787609Y-95410304D01*
X71787609Y-95410304D02*
X71835228Y-95505542D01*
X71835228Y-95505542D02*
X71835228Y-95886494D01*
X71644752Y-94457923D02*
X72311419Y-94457923D01*
X71263800Y-94696018D02*
X71978085Y-94934113D01*
X71978085Y-94934113D02*
X71978085Y-94315066D01*
D12*
X107350134Y-97982066D02*
X107398515Y-98029685D01*
X107398515Y-98029685D02*
X107446895Y-98172542D01*
X107446895Y-98172542D02*
X107446895Y-98267780D01*
X107446895Y-98267780D02*
X107398515Y-98410637D01*
X107398515Y-98410637D02*
X107301753Y-98505875D01*
X107301753Y-98505875D02*
X107204991Y-98553494D01*
X107204991Y-98553494D02*
X107011467Y-98601113D01*
X107011467Y-98601113D02*
X106866324Y-98601113D01*
X106866324Y-98601113D02*
X106672800Y-98553494D01*
X106672800Y-98553494D02*
X106576038Y-98505875D01*
X106576038Y-98505875D02*
X106479276Y-98410637D01*
X106479276Y-98410637D02*
X106430895Y-98267780D01*
X106430895Y-98267780D02*
X106430895Y-98172542D01*
X106430895Y-98172542D02*
X106479276Y-98029685D01*
X106479276Y-98029685D02*
X106527657Y-97982066D01*
X106866324Y-97410637D02*
X106817943Y-97505875D01*
X106817943Y-97505875D02*
X106769562Y-97553494D01*
X106769562Y-97553494D02*
X106672800Y-97601113D01*
X106672800Y-97601113D02*
X106624419Y-97601113D01*
X106624419Y-97601113D02*
X106527657Y-97553494D01*
X106527657Y-97553494D02*
X106479276Y-97505875D01*
X106479276Y-97505875D02*
X106430895Y-97410637D01*
X106430895Y-97410637D02*
X106430895Y-97220161D01*
X106430895Y-97220161D02*
X106479276Y-97124923D01*
X106479276Y-97124923D02*
X106527657Y-97077304D01*
X106527657Y-97077304D02*
X106624419Y-97029685D01*
X106624419Y-97029685D02*
X106672800Y-97029685D01*
X106672800Y-97029685D02*
X106769562Y-97077304D01*
X106769562Y-97077304D02*
X106817943Y-97124923D01*
X106817943Y-97124923D02*
X106866324Y-97220161D01*
X106866324Y-97220161D02*
X106866324Y-97410637D01*
X106866324Y-97410637D02*
X106914705Y-97505875D01*
X106914705Y-97505875D02*
X106963086Y-97553494D01*
X106963086Y-97553494D02*
X107059848Y-97601113D01*
X107059848Y-97601113D02*
X107253372Y-97601113D01*
X107253372Y-97601113D02*
X107350134Y-97553494D01*
X107350134Y-97553494D02*
X107398515Y-97505875D01*
X107398515Y-97505875D02*
X107446895Y-97410637D01*
X107446895Y-97410637D02*
X107446895Y-97220161D01*
X107446895Y-97220161D02*
X107398515Y-97124923D01*
X107398515Y-97124923D02*
X107350134Y-97077304D01*
X107350134Y-97077304D02*
X107253372Y-97029685D01*
X107253372Y-97029685D02*
X107059848Y-97029685D01*
X107059848Y-97029685D02*
X106963086Y-97077304D01*
X106963086Y-97077304D02*
X106914705Y-97124923D01*
X106914705Y-97124923D02*
X106866324Y-97220161D01*
X85530761Y-107986057D02*
X85435523Y-107937676D01*
X85435523Y-107937676D02*
X85340285Y-107840915D01*
X85340285Y-107840915D02*
X85197428Y-107695772D01*
X85197428Y-107695772D02*
X85102190Y-107647391D01*
X85102190Y-107647391D02*
X85006952Y-107647391D01*
X85054571Y-107889295D02*
X84959333Y-107840915D01*
X84959333Y-107840915D02*
X84864095Y-107744153D01*
X84864095Y-107744153D02*
X84816476Y-107550629D01*
X84816476Y-107550629D02*
X84816476Y-107211962D01*
X84816476Y-107211962D02*
X84864095Y-107018438D01*
X84864095Y-107018438D02*
X84959333Y-106921676D01*
X84959333Y-106921676D02*
X85054571Y-106873295D01*
X85054571Y-106873295D02*
X85245047Y-106873295D01*
X85245047Y-106873295D02*
X85340285Y-106921676D01*
X85340285Y-106921676D02*
X85435523Y-107018438D01*
X85435523Y-107018438D02*
X85483142Y-107211962D01*
X85483142Y-107211962D02*
X85483142Y-107550629D01*
X85483142Y-107550629D02*
X85435523Y-107744153D01*
X85435523Y-107744153D02*
X85340285Y-107840915D01*
X85340285Y-107840915D02*
X85245047Y-107889295D01*
X85245047Y-107889295D02*
X85054571Y-107889295D01*
X86340285Y-107211962D02*
X86340285Y-107889295D01*
X86102190Y-106824915D02*
X85864095Y-107550629D01*
X85864095Y-107550629D02*
X86483142Y-107550629D01*
D11*
X85932180Y-101563466D02*
X85979800Y-101611085D01*
X85979800Y-101611085D02*
X86027419Y-101753942D01*
X86027419Y-101753942D02*
X86027419Y-101849180D01*
X86027419Y-101849180D02*
X85979800Y-101992037D01*
X85979800Y-101992037D02*
X85884561Y-102087275D01*
X85884561Y-102087275D02*
X85789323Y-102134894D01*
X85789323Y-102134894D02*
X85598847Y-102182513D01*
X85598847Y-102182513D02*
X85455990Y-102182513D01*
X85455990Y-102182513D02*
X85265514Y-102134894D01*
X85265514Y-102134894D02*
X85170276Y-102087275D01*
X85170276Y-102087275D02*
X85075038Y-101992037D01*
X85075038Y-101992037D02*
X85027419Y-101849180D01*
X85027419Y-101849180D02*
X85027419Y-101753942D01*
X85027419Y-101753942D02*
X85075038Y-101611085D01*
X85075038Y-101611085D02*
X85122657Y-101563466D01*
X85027419Y-100706323D02*
X85027419Y-100896799D01*
X85027419Y-100896799D02*
X85075038Y-100992037D01*
X85075038Y-100992037D02*
X85122657Y-101039656D01*
X85122657Y-101039656D02*
X85265514Y-101134894D01*
X85265514Y-101134894D02*
X85455990Y-101182513D01*
X85455990Y-101182513D02*
X85836942Y-101182513D01*
X85836942Y-101182513D02*
X85932180Y-101134894D01*
X85932180Y-101134894D02*
X85979800Y-101087275D01*
X85979800Y-101087275D02*
X86027419Y-100992037D01*
X86027419Y-100992037D02*
X86027419Y-100801561D01*
X86027419Y-100801561D02*
X85979800Y-100706323D01*
X85979800Y-100706323D02*
X85932180Y-100658704D01*
X85932180Y-100658704D02*
X85836942Y-100611085D01*
X85836942Y-100611085D02*
X85598847Y-100611085D01*
X85598847Y-100611085D02*
X85503609Y-100658704D01*
X85503609Y-100658704D02*
X85455990Y-100706323D01*
X85455990Y-100706323D02*
X85408371Y-100801561D01*
X85408371Y-100801561D02*
X85408371Y-100992037D01*
X85408371Y-100992037D02*
X85455990Y-101087275D01*
X85455990Y-101087275D02*
X85503609Y-101134894D01*
X85503609Y-101134894D02*
X85598847Y-101182513D01*
D12*
X80021133Y-107167495D02*
X79687800Y-106683686D01*
X79449705Y-107167495D02*
X79449705Y-106151495D01*
X79449705Y-106151495D02*
X79830657Y-106151495D01*
X79830657Y-106151495D02*
X79925895Y-106199876D01*
X79925895Y-106199876D02*
X79973514Y-106248257D01*
X79973514Y-106248257D02*
X80021133Y-106345019D01*
X80021133Y-106345019D02*
X80021133Y-106490162D01*
X80021133Y-106490162D02*
X79973514Y-106586924D01*
X79973514Y-106586924D02*
X79925895Y-106635305D01*
X79925895Y-106635305D02*
X79830657Y-106683686D01*
X79830657Y-106683686D02*
X79449705Y-106683686D01*
X80497324Y-107167495D02*
X80687800Y-107167495D01*
X80687800Y-107167495D02*
X80783038Y-107119115D01*
X80783038Y-107119115D02*
X80830657Y-107070734D01*
X80830657Y-107070734D02*
X80925895Y-106925591D01*
X80925895Y-106925591D02*
X80973514Y-106732067D01*
X80973514Y-106732067D02*
X80973514Y-106345019D01*
X80973514Y-106345019D02*
X80925895Y-106248257D01*
X80925895Y-106248257D02*
X80878276Y-106199876D01*
X80878276Y-106199876D02*
X80783038Y-106151495D01*
X80783038Y-106151495D02*
X80592562Y-106151495D01*
X80592562Y-106151495D02*
X80497324Y-106199876D01*
X80497324Y-106199876D02*
X80449705Y-106248257D01*
X80449705Y-106248257D02*
X80402086Y-106345019D01*
X80402086Y-106345019D02*
X80402086Y-106586924D01*
X80402086Y-106586924D02*
X80449705Y-106683686D01*
X80449705Y-106683686D02*
X80497324Y-106732067D01*
X80497324Y-106732067D02*
X80592562Y-106780448D01*
X80592562Y-106780448D02*
X80783038Y-106780448D01*
X80783038Y-106780448D02*
X80878276Y-106732067D01*
X80878276Y-106732067D02*
X80925895Y-106683686D01*
X80925895Y-106683686D02*
X80973514Y-106586924D01*
X89298542Y-102392295D02*
X88965209Y-101908486D01*
X88727114Y-102392295D02*
X88727114Y-101376295D01*
X88727114Y-101376295D02*
X89108066Y-101376295D01*
X89108066Y-101376295D02*
X89203304Y-101424676D01*
X89203304Y-101424676D02*
X89250923Y-101473057D01*
X89250923Y-101473057D02*
X89298542Y-101569819D01*
X89298542Y-101569819D02*
X89298542Y-101714962D01*
X89298542Y-101714962D02*
X89250923Y-101811724D01*
X89250923Y-101811724D02*
X89203304Y-101860105D01*
X89203304Y-101860105D02*
X89108066Y-101908486D01*
X89108066Y-101908486D02*
X88727114Y-101908486D01*
X90250923Y-102392295D02*
X89679495Y-102392295D01*
X89965209Y-102392295D02*
X89965209Y-101376295D01*
X89965209Y-101376295D02*
X89869971Y-101521438D01*
X89869971Y-101521438D02*
X89774733Y-101618200D01*
X89774733Y-101618200D02*
X89679495Y-101666581D01*
X91203304Y-102392295D02*
X90631876Y-102392295D01*
X90917590Y-102392295D02*
X90917590Y-101376295D01*
X90917590Y-101376295D02*
X90822352Y-101521438D01*
X90822352Y-101521438D02*
X90727114Y-101618200D01*
X90727114Y-101618200D02*
X90631876Y-101666581D01*
X73671133Y-107040495D02*
X73337800Y-106556686D01*
X73099705Y-107040495D02*
X73099705Y-106024495D01*
X73099705Y-106024495D02*
X73480657Y-106024495D01*
X73480657Y-106024495D02*
X73575895Y-106072876D01*
X73575895Y-106072876D02*
X73623514Y-106121257D01*
X73623514Y-106121257D02*
X73671133Y-106218019D01*
X73671133Y-106218019D02*
X73671133Y-106363162D01*
X73671133Y-106363162D02*
X73623514Y-106459924D01*
X73623514Y-106459924D02*
X73575895Y-106508305D01*
X73575895Y-106508305D02*
X73480657Y-106556686D01*
X73480657Y-106556686D02*
X73099705Y-106556686D01*
X74242562Y-106459924D02*
X74147324Y-106411543D01*
X74147324Y-106411543D02*
X74099705Y-106363162D01*
X74099705Y-106363162D02*
X74052086Y-106266400D01*
X74052086Y-106266400D02*
X74052086Y-106218019D01*
X74052086Y-106218019D02*
X74099705Y-106121257D01*
X74099705Y-106121257D02*
X74147324Y-106072876D01*
X74147324Y-106072876D02*
X74242562Y-106024495D01*
X74242562Y-106024495D02*
X74433038Y-106024495D01*
X74433038Y-106024495D02*
X74528276Y-106072876D01*
X74528276Y-106072876D02*
X74575895Y-106121257D01*
X74575895Y-106121257D02*
X74623514Y-106218019D01*
X74623514Y-106218019D02*
X74623514Y-106266400D01*
X74623514Y-106266400D02*
X74575895Y-106363162D01*
X74575895Y-106363162D02*
X74528276Y-106411543D01*
X74528276Y-106411543D02*
X74433038Y-106459924D01*
X74433038Y-106459924D02*
X74242562Y-106459924D01*
X74242562Y-106459924D02*
X74147324Y-106508305D01*
X74147324Y-106508305D02*
X74099705Y-106556686D01*
X74099705Y-106556686D02*
X74052086Y-106653448D01*
X74052086Y-106653448D02*
X74052086Y-106846972D01*
X74052086Y-106846972D02*
X74099705Y-106943734D01*
X74099705Y-106943734D02*
X74147324Y-106992115D01*
X74147324Y-106992115D02*
X74242562Y-107040495D01*
X74242562Y-107040495D02*
X74433038Y-107040495D01*
X74433038Y-107040495D02*
X74528276Y-106992115D01*
X74528276Y-106992115D02*
X74575895Y-106943734D01*
X74575895Y-106943734D02*
X74623514Y-106846972D01*
X74623514Y-106846972D02*
X74623514Y-106653448D01*
X74623514Y-106653448D02*
X74575895Y-106556686D01*
X74575895Y-106556686D02*
X74528276Y-106508305D01*
X74528276Y-106508305D02*
X74433038Y-106459924D01*
D11*
X74521219Y-102922294D02*
X73521219Y-102922294D01*
X73521219Y-102922294D02*
X73521219Y-102684199D01*
X73521219Y-102684199D02*
X73568838Y-102541342D01*
X73568838Y-102541342D02*
X73664076Y-102446104D01*
X73664076Y-102446104D02*
X73759314Y-102398485D01*
X73759314Y-102398485D02*
X73949790Y-102350866D01*
X73949790Y-102350866D02*
X74092647Y-102350866D01*
X74092647Y-102350866D02*
X74283123Y-102398485D01*
X74283123Y-102398485D02*
X74378361Y-102446104D01*
X74378361Y-102446104D02*
X74473600Y-102541342D01*
X74473600Y-102541342D02*
X74521219Y-102684199D01*
X74521219Y-102684199D02*
X74521219Y-102922294D01*
X74521219Y-101398485D02*
X74521219Y-101969913D01*
X74521219Y-101684199D02*
X73521219Y-101684199D01*
X73521219Y-101684199D02*
X73664076Y-101779437D01*
X73664076Y-101779437D02*
X73759314Y-101874675D01*
X73759314Y-101874675D02*
X73806933Y-101969913D01*
D12*
X64965342Y-93075334D02*
X64917723Y-93123715D01*
X64917723Y-93123715D02*
X64774866Y-93172095D01*
X64774866Y-93172095D02*
X64679628Y-93172095D01*
X64679628Y-93172095D02*
X64536771Y-93123715D01*
X64536771Y-93123715D02*
X64441533Y-93026953D01*
X64441533Y-93026953D02*
X64393914Y-92930191D01*
X64393914Y-92930191D02*
X64346295Y-92736667D01*
X64346295Y-92736667D02*
X64346295Y-92591524D01*
X64346295Y-92591524D02*
X64393914Y-92398000D01*
X64393914Y-92398000D02*
X64441533Y-92301238D01*
X64441533Y-92301238D02*
X64536771Y-92204476D01*
X64536771Y-92204476D02*
X64679628Y-92156095D01*
X64679628Y-92156095D02*
X64774866Y-92156095D01*
X64774866Y-92156095D02*
X64917723Y-92204476D01*
X64917723Y-92204476D02*
X64965342Y-92252857D01*
X65917723Y-93172095D02*
X65346295Y-93172095D01*
X65632009Y-93172095D02*
X65632009Y-92156095D01*
X65632009Y-92156095D02*
X65536771Y-92301238D01*
X65536771Y-92301238D02*
X65441533Y-92398000D01*
X65441533Y-92398000D02*
X65346295Y-92446381D01*
X66536771Y-92156095D02*
X66632009Y-92156095D01*
X66632009Y-92156095D02*
X66727247Y-92204476D01*
X66727247Y-92204476D02*
X66774866Y-92252857D01*
X66774866Y-92252857D02*
X66822485Y-92349619D01*
X66822485Y-92349619D02*
X66870104Y-92543143D01*
X66870104Y-92543143D02*
X66870104Y-92785048D01*
X66870104Y-92785048D02*
X66822485Y-92978572D01*
X66822485Y-92978572D02*
X66774866Y-93075334D01*
X66774866Y-93075334D02*
X66727247Y-93123715D01*
X66727247Y-93123715D02*
X66632009Y-93172095D01*
X66632009Y-93172095D02*
X66536771Y-93172095D01*
X66536771Y-93172095D02*
X66441533Y-93123715D01*
X66441533Y-93123715D02*
X66393914Y-93075334D01*
X66393914Y-93075334D02*
X66346295Y-92978572D01*
X66346295Y-92978572D02*
X66298676Y-92785048D01*
X66298676Y-92785048D02*
X66298676Y-92543143D01*
X66298676Y-92543143D02*
X66346295Y-92349619D01*
X66346295Y-92349619D02*
X66393914Y-92252857D01*
X66393914Y-92252857D02*
X66441533Y-92204476D01*
X66441533Y-92204476D02*
X66536771Y-92156095D01*
X108239134Y-90711257D02*
X108287515Y-90758876D01*
X108287515Y-90758876D02*
X108335895Y-90901733D01*
X108335895Y-90901733D02*
X108335895Y-90996971D01*
X108335895Y-90996971D02*
X108287515Y-91139828D01*
X108287515Y-91139828D02*
X108190753Y-91235066D01*
X108190753Y-91235066D02*
X108093991Y-91282685D01*
X108093991Y-91282685D02*
X107900467Y-91330304D01*
X107900467Y-91330304D02*
X107755324Y-91330304D01*
X107755324Y-91330304D02*
X107561800Y-91282685D01*
X107561800Y-91282685D02*
X107465038Y-91235066D01*
X107465038Y-91235066D02*
X107368276Y-91139828D01*
X107368276Y-91139828D02*
X107319895Y-90996971D01*
X107319895Y-90996971D02*
X107319895Y-90901733D01*
X107319895Y-90901733D02*
X107368276Y-90758876D01*
X107368276Y-90758876D02*
X107416657Y-90711257D01*
X108335895Y-89758876D02*
X108335895Y-90330304D01*
X108335895Y-90044590D02*
X107319895Y-90044590D01*
X107319895Y-90044590D02*
X107465038Y-90139828D01*
X107465038Y-90139828D02*
X107561800Y-90235066D01*
X107561800Y-90235066D02*
X107610181Y-90330304D01*
X107416657Y-89377923D02*
X107368276Y-89330304D01*
X107368276Y-89330304D02*
X107319895Y-89235066D01*
X107319895Y-89235066D02*
X107319895Y-88996971D01*
X107319895Y-88996971D02*
X107368276Y-88901733D01*
X107368276Y-88901733D02*
X107416657Y-88854114D01*
X107416657Y-88854114D02*
X107513419Y-88806495D01*
X107513419Y-88806495D02*
X107610181Y-88806495D01*
X107610181Y-88806495D02*
X107755324Y-88854114D01*
X107755324Y-88854114D02*
X108335895Y-89425542D01*
X108335895Y-89425542D02*
X108335895Y-88806495D01*
D11*
X72820305Y-92225019D02*
X72820305Y-91225019D01*
X72820305Y-91225019D02*
X73058400Y-91225019D01*
X73058400Y-91225019D02*
X73201257Y-91272638D01*
X73201257Y-91272638D02*
X73296495Y-91367876D01*
X73296495Y-91367876D02*
X73344114Y-91463114D01*
X73344114Y-91463114D02*
X73391733Y-91653590D01*
X73391733Y-91653590D02*
X73391733Y-91796447D01*
X73391733Y-91796447D02*
X73344114Y-91986923D01*
X73344114Y-91986923D02*
X73296495Y-92082161D01*
X73296495Y-92082161D02*
X73201257Y-92177400D01*
X73201257Y-92177400D02*
X73058400Y-92225019D01*
X73058400Y-92225019D02*
X72820305Y-92225019D01*
X73725067Y-91225019D02*
X74344114Y-91225019D01*
X74344114Y-91225019D02*
X74010781Y-91605971D01*
X74010781Y-91605971D02*
X74153638Y-91605971D01*
X74153638Y-91605971D02*
X74248876Y-91653590D01*
X74248876Y-91653590D02*
X74296495Y-91701209D01*
X74296495Y-91701209D02*
X74344114Y-91796447D01*
X74344114Y-91796447D02*
X74344114Y-92034542D01*
X74344114Y-92034542D02*
X74296495Y-92129780D01*
X74296495Y-92129780D02*
X74248876Y-92177400D01*
X74248876Y-92177400D02*
X74153638Y-92225019D01*
X74153638Y-92225019D02*
X73867924Y-92225019D01*
X73867924Y-92225019D02*
X73772686Y-92177400D01*
X73772686Y-92177400D02*
X73725067Y-92129780D01*
X85932180Y-94394257D02*
X85979800Y-94441876D01*
X85979800Y-94441876D02*
X86027419Y-94584733D01*
X86027419Y-94584733D02*
X86027419Y-94679971D01*
X86027419Y-94679971D02*
X85979800Y-94822828D01*
X85979800Y-94822828D02*
X85884561Y-94918066D01*
X85884561Y-94918066D02*
X85789323Y-94965685D01*
X85789323Y-94965685D02*
X85598847Y-95013304D01*
X85598847Y-95013304D02*
X85455990Y-95013304D01*
X85455990Y-95013304D02*
X85265514Y-94965685D01*
X85265514Y-94965685D02*
X85170276Y-94918066D01*
X85170276Y-94918066D02*
X85075038Y-94822828D01*
X85075038Y-94822828D02*
X85027419Y-94679971D01*
X85027419Y-94679971D02*
X85027419Y-94584733D01*
X85027419Y-94584733D02*
X85075038Y-94441876D01*
X85075038Y-94441876D02*
X85122657Y-94394257D01*
X86027419Y-93441876D02*
X86027419Y-94013304D01*
X86027419Y-93727590D02*
X85027419Y-93727590D01*
X85027419Y-93727590D02*
X85170276Y-93822828D01*
X85170276Y-93822828D02*
X85265514Y-93918066D01*
X85265514Y-93918066D02*
X85313133Y-94013304D01*
X85360752Y-92584733D02*
X86027419Y-92584733D01*
X84979800Y-92822828D02*
X85694085Y-93060923D01*
X85694085Y-93060923D02*
X85694085Y-92441876D01*
D12*
X87412533Y-102417695D02*
X87079200Y-101933886D01*
X86841105Y-102417695D02*
X86841105Y-101401695D01*
X86841105Y-101401695D02*
X87222057Y-101401695D01*
X87222057Y-101401695D02*
X87317295Y-101450076D01*
X87317295Y-101450076D02*
X87364914Y-101498457D01*
X87364914Y-101498457D02*
X87412533Y-101595219D01*
X87412533Y-101595219D02*
X87412533Y-101740362D01*
X87412533Y-101740362D02*
X87364914Y-101837124D01*
X87364914Y-101837124D02*
X87317295Y-101885505D01*
X87317295Y-101885505D02*
X87222057Y-101933886D01*
X87222057Y-101933886D02*
X86841105Y-101933886D01*
X88269676Y-101401695D02*
X88079200Y-101401695D01*
X88079200Y-101401695D02*
X87983962Y-101450076D01*
X87983962Y-101450076D02*
X87936343Y-101498457D01*
X87936343Y-101498457D02*
X87841105Y-101643600D01*
X87841105Y-101643600D02*
X87793486Y-101837124D01*
X87793486Y-101837124D02*
X87793486Y-102224172D01*
X87793486Y-102224172D02*
X87841105Y-102320934D01*
X87841105Y-102320934D02*
X87888724Y-102369315D01*
X87888724Y-102369315D02*
X87983962Y-102417695D01*
X87983962Y-102417695D02*
X88174438Y-102417695D01*
X88174438Y-102417695D02*
X88269676Y-102369315D01*
X88269676Y-102369315D02*
X88317295Y-102320934D01*
X88317295Y-102320934D02*
X88364914Y-102224172D01*
X88364914Y-102224172D02*
X88364914Y-101982267D01*
X88364914Y-101982267D02*
X88317295Y-101885505D01*
X88317295Y-101885505D02*
X88269676Y-101837124D01*
X88269676Y-101837124D02*
X88174438Y-101788743D01*
X88174438Y-101788743D02*
X87983962Y-101788743D01*
X87983962Y-101788743D02*
X87888724Y-101837124D01*
X87888724Y-101837124D02*
X87841105Y-101885505D01*
X87841105Y-101885505D02*
X87793486Y-101982267D01*
X71289942Y-105724534D02*
X71242323Y-105772915D01*
X71242323Y-105772915D02*
X71099466Y-105821295D01*
X71099466Y-105821295D02*
X71004228Y-105821295D01*
X71004228Y-105821295D02*
X70861371Y-105772915D01*
X70861371Y-105772915D02*
X70766133Y-105676153D01*
X70766133Y-105676153D02*
X70718514Y-105579391D01*
X70718514Y-105579391D02*
X70670895Y-105385867D01*
X70670895Y-105385867D02*
X70670895Y-105240724D01*
X70670895Y-105240724D02*
X70718514Y-105047200D01*
X70718514Y-105047200D02*
X70766133Y-104950438D01*
X70766133Y-104950438D02*
X70861371Y-104853676D01*
X70861371Y-104853676D02*
X71004228Y-104805295D01*
X71004228Y-104805295D02*
X71099466Y-104805295D01*
X71099466Y-104805295D02*
X71242323Y-104853676D01*
X71242323Y-104853676D02*
X71289942Y-104902057D01*
X72242323Y-105821295D02*
X71670895Y-105821295D01*
X71956609Y-105821295D02*
X71956609Y-104805295D01*
X71956609Y-104805295D02*
X71861371Y-104950438D01*
X71861371Y-104950438D02*
X71766133Y-105047200D01*
X71766133Y-105047200D02*
X71670895Y-105095581D01*
X72575657Y-104805295D02*
X73194704Y-104805295D01*
X73194704Y-104805295D02*
X72861371Y-105192343D01*
X72861371Y-105192343D02*
X73004228Y-105192343D01*
X73004228Y-105192343D02*
X73099466Y-105240724D01*
X73099466Y-105240724D02*
X73147085Y-105289105D01*
X73147085Y-105289105D02*
X73194704Y-105385867D01*
X73194704Y-105385867D02*
X73194704Y-105627772D01*
X73194704Y-105627772D02*
X73147085Y-105724534D01*
X73147085Y-105724534D02*
X73099466Y-105772915D01*
X73099466Y-105772915D02*
X73004228Y-105821295D01*
X73004228Y-105821295D02*
X72718514Y-105821295D01*
X72718514Y-105821295D02*
X72623276Y-105772915D01*
X72623276Y-105772915D02*
X72575657Y-105724534D01*
X107961133Y-102879734D02*
X107913514Y-102928115D01*
X107913514Y-102928115D02*
X107770657Y-102976495D01*
X107770657Y-102976495D02*
X107675419Y-102976495D01*
X107675419Y-102976495D02*
X107532562Y-102928115D01*
X107532562Y-102928115D02*
X107437324Y-102831353D01*
X107437324Y-102831353D02*
X107389705Y-102734591D01*
X107389705Y-102734591D02*
X107342086Y-102541067D01*
X107342086Y-102541067D02*
X107342086Y-102395924D01*
X107342086Y-102395924D02*
X107389705Y-102202400D01*
X107389705Y-102202400D02*
X107437324Y-102105638D01*
X107437324Y-102105638D02*
X107532562Y-102008876D01*
X107532562Y-102008876D02*
X107675419Y-101960495D01*
X107675419Y-101960495D02*
X107770657Y-101960495D01*
X107770657Y-101960495D02*
X107913514Y-102008876D01*
X107913514Y-102008876D02*
X107961133Y-102057257D01*
X108294467Y-101960495D02*
X108961133Y-101960495D01*
X108961133Y-101960495D02*
X108532562Y-102976495D01*
D11*
X74826019Y-97004094D02*
X73826019Y-97004094D01*
X73826019Y-97004094D02*
X73826019Y-96765999D01*
X73826019Y-96765999D02*
X73873638Y-96623142D01*
X73873638Y-96623142D02*
X73968876Y-96527904D01*
X73968876Y-96527904D02*
X74064114Y-96480285D01*
X74064114Y-96480285D02*
X74254590Y-96432666D01*
X74254590Y-96432666D02*
X74397447Y-96432666D01*
X74397447Y-96432666D02*
X74587923Y-96480285D01*
X74587923Y-96480285D02*
X74683161Y-96527904D01*
X74683161Y-96527904D02*
X74778400Y-96623142D01*
X74778400Y-96623142D02*
X74826019Y-96765999D01*
X74826019Y-96765999D02*
X74826019Y-97004094D01*
X73921257Y-96051713D02*
X73873638Y-96004094D01*
X73873638Y-96004094D02*
X73826019Y-95908856D01*
X73826019Y-95908856D02*
X73826019Y-95670761D01*
X73826019Y-95670761D02*
X73873638Y-95575523D01*
X73873638Y-95575523D02*
X73921257Y-95527904D01*
X73921257Y-95527904D02*
X74016495Y-95480285D01*
X74016495Y-95480285D02*
X74111733Y-95480285D01*
X74111733Y-95480285D02*
X74254590Y-95527904D01*
X74254590Y-95527904D02*
X74826019Y-96099332D01*
X74826019Y-96099332D02*
X74826019Y-95480285D01*
D12*
X106049895Y-98331257D02*
X105566086Y-98664590D01*
X106049895Y-98902685D02*
X105033895Y-98902685D01*
X105033895Y-98902685D02*
X105033895Y-98521733D01*
X105033895Y-98521733D02*
X105082276Y-98426495D01*
X105082276Y-98426495D02*
X105130657Y-98378876D01*
X105130657Y-98378876D02*
X105227419Y-98331257D01*
X105227419Y-98331257D02*
X105372562Y-98331257D01*
X105372562Y-98331257D02*
X105469324Y-98378876D01*
X105469324Y-98378876D02*
X105517705Y-98426495D01*
X105517705Y-98426495D02*
X105566086Y-98521733D01*
X105566086Y-98521733D02*
X105566086Y-98902685D01*
X106049895Y-97378876D02*
X106049895Y-97950304D01*
X106049895Y-97664590D02*
X105033895Y-97664590D01*
X105033895Y-97664590D02*
X105179038Y-97759828D01*
X105179038Y-97759828D02*
X105275800Y-97855066D01*
X105275800Y-97855066D02*
X105324181Y-97950304D01*
X105130657Y-96997923D02*
X105082276Y-96950304D01*
X105082276Y-96950304D02*
X105033895Y-96855066D01*
X105033895Y-96855066D02*
X105033895Y-96616971D01*
X105033895Y-96616971D02*
X105082276Y-96521733D01*
X105082276Y-96521733D02*
X105130657Y-96474114D01*
X105130657Y-96474114D02*
X105227419Y-96426495D01*
X105227419Y-96426495D02*
X105324181Y-96426495D01*
X105324181Y-96426495D02*
X105469324Y-96474114D01*
X105469324Y-96474114D02*
X106049895Y-97045542D01*
X106049895Y-97045542D02*
X106049895Y-96426495D01*
D11*
X65698019Y-99571133D02*
X66412304Y-99571133D01*
X66412304Y-99571133D02*
X66555161Y-99618752D01*
X66555161Y-99618752D02*
X66650400Y-99713990D01*
X66650400Y-99713990D02*
X66698019Y-99856847D01*
X66698019Y-99856847D02*
X66698019Y-99952085D01*
X66698019Y-98571133D02*
X66698019Y-99142561D01*
X66698019Y-98856847D02*
X65698019Y-98856847D01*
X65698019Y-98856847D02*
X65840876Y-98952085D01*
X65840876Y-98952085D02*
X65936114Y-99047323D01*
X65936114Y-99047323D02*
X65983733Y-99142561D01*
D12*
X92543333Y-120350095D02*
X92210000Y-119866286D01*
X91971905Y-120350095D02*
X91971905Y-119334095D01*
X91971905Y-119334095D02*
X92352857Y-119334095D01*
X92352857Y-119334095D02*
X92448095Y-119382476D01*
X92448095Y-119382476D02*
X92495714Y-119430857D01*
X92495714Y-119430857D02*
X92543333Y-119527619D01*
X92543333Y-119527619D02*
X92543333Y-119672762D01*
X92543333Y-119672762D02*
X92495714Y-119769524D01*
X92495714Y-119769524D02*
X92448095Y-119817905D01*
X92448095Y-119817905D02*
X92352857Y-119866286D01*
X92352857Y-119866286D02*
X91971905Y-119866286D01*
X92876667Y-119334095D02*
X93495714Y-119334095D01*
X93495714Y-119334095D02*
X93162381Y-119721143D01*
X93162381Y-119721143D02*
X93305238Y-119721143D01*
X93305238Y-119721143D02*
X93400476Y-119769524D01*
X93400476Y-119769524D02*
X93448095Y-119817905D01*
X93448095Y-119817905D02*
X93495714Y-119914667D01*
X93495714Y-119914667D02*
X93495714Y-120156572D01*
X93495714Y-120156572D02*
X93448095Y-120253334D01*
X93448095Y-120253334D02*
X93400476Y-120301715D01*
X93400476Y-120301715D02*
X93305238Y-120350095D01*
X93305238Y-120350095D02*
X93019524Y-120350095D01*
X93019524Y-120350095D02*
X92924286Y-120301715D01*
X92924286Y-120301715D02*
X92876667Y-120253334D01*
X70185095Y-127738094D02*
X69169095Y-127738094D01*
X69169095Y-127738094D02*
X69169095Y-127499999D01*
X69169095Y-127499999D02*
X69217476Y-127357142D01*
X69217476Y-127357142D02*
X69314238Y-127261904D01*
X69314238Y-127261904D02*
X69411000Y-127214285D01*
X69411000Y-127214285D02*
X69604524Y-127166666D01*
X69604524Y-127166666D02*
X69749667Y-127166666D01*
X69749667Y-127166666D02*
X69943191Y-127214285D01*
X69943191Y-127214285D02*
X70039953Y-127261904D01*
X70039953Y-127261904D02*
X70136715Y-127357142D01*
X70136715Y-127357142D02*
X70185095Y-127499999D01*
X70185095Y-127499999D02*
X70185095Y-127738094D01*
X70185095Y-126214285D02*
X70185095Y-126785713D01*
X70185095Y-126499999D02*
X69169095Y-126499999D01*
X69169095Y-126499999D02*
X69314238Y-126595237D01*
X69314238Y-126595237D02*
X69411000Y-126690475D01*
X69411000Y-126690475D02*
X69459381Y-126785713D01*
X86447333Y-120350095D02*
X86114000Y-119866286D01*
X85875905Y-120350095D02*
X85875905Y-119334095D01*
X85875905Y-119334095D02*
X86256857Y-119334095D01*
X86256857Y-119334095D02*
X86352095Y-119382476D01*
X86352095Y-119382476D02*
X86399714Y-119430857D01*
X86399714Y-119430857D02*
X86447333Y-119527619D01*
X86447333Y-119527619D02*
X86447333Y-119672762D01*
X86447333Y-119672762D02*
X86399714Y-119769524D01*
X86399714Y-119769524D02*
X86352095Y-119817905D01*
X86352095Y-119817905D02*
X86256857Y-119866286D01*
X86256857Y-119866286D02*
X85875905Y-119866286D01*
X87304476Y-119672762D02*
X87304476Y-120350095D01*
X87066381Y-119285715D02*
X86828286Y-120011429D01*
X86828286Y-120011429D02*
X87447333Y-120011429D01*
X92670333Y-129113095D02*
X92337000Y-128629286D01*
X92098905Y-129113095D02*
X92098905Y-128097095D01*
X92098905Y-128097095D02*
X92479857Y-128097095D01*
X92479857Y-128097095D02*
X92575095Y-128145476D01*
X92575095Y-128145476D02*
X92622714Y-128193857D01*
X92622714Y-128193857D02*
X92670333Y-128290619D01*
X92670333Y-128290619D02*
X92670333Y-128435762D01*
X92670333Y-128435762D02*
X92622714Y-128532524D01*
X92622714Y-128532524D02*
X92575095Y-128580905D01*
X92575095Y-128580905D02*
X92479857Y-128629286D01*
X92479857Y-128629286D02*
X92098905Y-128629286D01*
X93527476Y-128097095D02*
X93337000Y-128097095D01*
X93337000Y-128097095D02*
X93241762Y-128145476D01*
X93241762Y-128145476D02*
X93194143Y-128193857D01*
X93194143Y-128193857D02*
X93098905Y-128339000D01*
X93098905Y-128339000D02*
X93051286Y-128532524D01*
X93051286Y-128532524D02*
X93051286Y-128919572D01*
X93051286Y-128919572D02*
X93098905Y-129016334D01*
X93098905Y-129016334D02*
X93146524Y-129064715D01*
X93146524Y-129064715D02*
X93241762Y-129113095D01*
X93241762Y-129113095D02*
X93432238Y-129113095D01*
X93432238Y-129113095D02*
X93527476Y-129064715D01*
X93527476Y-129064715D02*
X93575095Y-129016334D01*
X93575095Y-129016334D02*
X93622714Y-128919572D01*
X93622714Y-128919572D02*
X93622714Y-128677667D01*
X93622714Y-128677667D02*
X93575095Y-128580905D01*
X93575095Y-128580905D02*
X93527476Y-128532524D01*
X93527476Y-128532524D02*
X93432238Y-128484143D01*
X93432238Y-128484143D02*
X93241762Y-128484143D01*
X93241762Y-128484143D02*
X93146524Y-128532524D01*
X93146524Y-128532524D02*
X93098905Y-128580905D01*
X93098905Y-128580905D02*
X93051286Y-128677667D01*
X108188334Y-117355857D02*
X108236715Y-117403476D01*
X108236715Y-117403476D02*
X108285095Y-117546333D01*
X108285095Y-117546333D02*
X108285095Y-117641571D01*
X108285095Y-117641571D02*
X108236715Y-117784428D01*
X108236715Y-117784428D02*
X108139953Y-117879666D01*
X108139953Y-117879666D02*
X108043191Y-117927285D01*
X108043191Y-117927285D02*
X107849667Y-117974904D01*
X107849667Y-117974904D02*
X107704524Y-117974904D01*
X107704524Y-117974904D02*
X107511000Y-117927285D01*
X107511000Y-117927285D02*
X107414238Y-117879666D01*
X107414238Y-117879666D02*
X107317476Y-117784428D01*
X107317476Y-117784428D02*
X107269095Y-117641571D01*
X107269095Y-117641571D02*
X107269095Y-117546333D01*
X107269095Y-117546333D02*
X107317476Y-117403476D01*
X107317476Y-117403476D02*
X107365857Y-117355857D01*
X108285095Y-116403476D02*
X108285095Y-116974904D01*
X108285095Y-116689190D02*
X107269095Y-116689190D01*
X107269095Y-116689190D02*
X107414238Y-116784428D01*
X107414238Y-116784428D02*
X107511000Y-116879666D01*
X107511000Y-116879666D02*
X107559381Y-116974904D01*
X107365857Y-116022523D02*
X107317476Y-115974904D01*
X107317476Y-115974904D02*
X107269095Y-115879666D01*
X107269095Y-115879666D02*
X107269095Y-115641571D01*
X107269095Y-115641571D02*
X107317476Y-115546333D01*
X107317476Y-115546333D02*
X107365857Y-115498714D01*
X107365857Y-115498714D02*
X107462619Y-115451095D01*
X107462619Y-115451095D02*
X107559381Y-115451095D01*
X107559381Y-115451095D02*
X107704524Y-115498714D01*
X107704524Y-115498714D02*
X108285095Y-116070142D01*
X108285095Y-116070142D02*
X108285095Y-115451095D01*
X64635142Y-132826334D02*
X64587523Y-132874715D01*
X64587523Y-132874715D02*
X64444666Y-132923095D01*
X64444666Y-132923095D02*
X64349428Y-132923095D01*
X64349428Y-132923095D02*
X64206571Y-132874715D01*
X64206571Y-132874715D02*
X64111333Y-132777953D01*
X64111333Y-132777953D02*
X64063714Y-132681191D01*
X64063714Y-132681191D02*
X64016095Y-132487667D01*
X64016095Y-132487667D02*
X64016095Y-132342524D01*
X64016095Y-132342524D02*
X64063714Y-132149000D01*
X64063714Y-132149000D02*
X64111333Y-132052238D01*
X64111333Y-132052238D02*
X64206571Y-131955476D01*
X64206571Y-131955476D02*
X64349428Y-131907095D01*
X64349428Y-131907095D02*
X64444666Y-131907095D01*
X64444666Y-131907095D02*
X64587523Y-131955476D01*
X64587523Y-131955476D02*
X64635142Y-132003857D01*
X65587523Y-132923095D02*
X65016095Y-132923095D01*
X65301809Y-132923095D02*
X65301809Y-131907095D01*
X65301809Y-131907095D02*
X65206571Y-132052238D01*
X65206571Y-132052238D02*
X65111333Y-132149000D01*
X65111333Y-132149000D02*
X65016095Y-132197381D01*
X65920857Y-131907095D02*
X66539904Y-131907095D01*
X66539904Y-131907095D02*
X66206571Y-132294143D01*
X66206571Y-132294143D02*
X66349428Y-132294143D01*
X66349428Y-132294143D02*
X66444666Y-132342524D01*
X66444666Y-132342524D02*
X66492285Y-132390905D01*
X66492285Y-132390905D02*
X66539904Y-132487667D01*
X66539904Y-132487667D02*
X66539904Y-132729572D01*
X66539904Y-132729572D02*
X66492285Y-132826334D01*
X66492285Y-132826334D02*
X66444666Y-132874715D01*
X66444666Y-132874715D02*
X66349428Y-132923095D01*
X66349428Y-132923095D02*
X66063714Y-132923095D01*
X66063714Y-132923095D02*
X65968476Y-132874715D01*
X65968476Y-132874715D02*
X65920857Y-132826334D01*
X105999095Y-124975857D02*
X105515286Y-125309190D01*
X105999095Y-125547285D02*
X104983095Y-125547285D01*
X104983095Y-125547285D02*
X104983095Y-125166333D01*
X104983095Y-125166333D02*
X105031476Y-125071095D01*
X105031476Y-125071095D02*
X105079857Y-125023476D01*
X105079857Y-125023476D02*
X105176619Y-124975857D01*
X105176619Y-124975857D02*
X105321762Y-124975857D01*
X105321762Y-124975857D02*
X105418524Y-125023476D01*
X105418524Y-125023476D02*
X105466905Y-125071095D01*
X105466905Y-125071095D02*
X105515286Y-125166333D01*
X105515286Y-125166333D02*
X105515286Y-125547285D01*
X105999095Y-124023476D02*
X105999095Y-124594904D01*
X105999095Y-124309190D02*
X104983095Y-124309190D01*
X104983095Y-124309190D02*
X105128238Y-124404428D01*
X105128238Y-124404428D02*
X105225000Y-124499666D01*
X105225000Y-124499666D02*
X105273381Y-124594904D01*
X105079857Y-123642523D02*
X105031476Y-123594904D01*
X105031476Y-123594904D02*
X104983095Y-123499666D01*
X104983095Y-123499666D02*
X104983095Y-123261571D01*
X104983095Y-123261571D02*
X105031476Y-123166333D01*
X105031476Y-123166333D02*
X105079857Y-123118714D01*
X105079857Y-123118714D02*
X105176619Y-123071095D01*
X105176619Y-123071095D02*
X105273381Y-123071095D01*
X105273381Y-123071095D02*
X105418524Y-123118714D01*
X105418524Y-123118714D02*
X105999095Y-123690142D01*
X105999095Y-123690142D02*
X105999095Y-123071095D01*
X101325495Y-133611857D02*
X100841686Y-133945190D01*
X101325495Y-134183285D02*
X100309495Y-134183285D01*
X100309495Y-134183285D02*
X100309495Y-133802333D01*
X100309495Y-133802333D02*
X100357876Y-133707095D01*
X100357876Y-133707095D02*
X100406257Y-133659476D01*
X100406257Y-133659476D02*
X100503019Y-133611857D01*
X100503019Y-133611857D02*
X100648162Y-133611857D01*
X100648162Y-133611857D02*
X100744924Y-133659476D01*
X100744924Y-133659476D02*
X100793305Y-133707095D01*
X100793305Y-133707095D02*
X100841686Y-133802333D01*
X100841686Y-133802333D02*
X100841686Y-134183285D01*
X101325495Y-132659476D02*
X101325495Y-133230904D01*
X101325495Y-132945190D02*
X100309495Y-132945190D01*
X100309495Y-132945190D02*
X100454638Y-133040428D01*
X100454638Y-133040428D02*
X100551400Y-133135666D01*
X100551400Y-133135666D02*
X100599781Y-133230904D01*
X100648162Y-131802333D02*
X101325495Y-131802333D01*
X100261115Y-132040428D02*
X100986829Y-132278523D01*
X100986829Y-132278523D02*
X100986829Y-131659476D01*
X85121761Y-134670857D02*
X85026523Y-134622476D01*
X85026523Y-134622476D02*
X84931285Y-134525715D01*
X84931285Y-134525715D02*
X84788428Y-134380572D01*
X84788428Y-134380572D02*
X84693190Y-134332191D01*
X84693190Y-134332191D02*
X84597952Y-134332191D01*
X84645571Y-134574095D02*
X84550333Y-134525715D01*
X84550333Y-134525715D02*
X84455095Y-134428953D01*
X84455095Y-134428953D02*
X84407476Y-134235429D01*
X84407476Y-134235429D02*
X84407476Y-133896762D01*
X84407476Y-133896762D02*
X84455095Y-133703238D01*
X84455095Y-133703238D02*
X84550333Y-133606476D01*
X84550333Y-133606476D02*
X84645571Y-133558095D01*
X84645571Y-133558095D02*
X84836047Y-133558095D01*
X84836047Y-133558095D02*
X84931285Y-133606476D01*
X84931285Y-133606476D02*
X85026523Y-133703238D01*
X85026523Y-133703238D02*
X85074142Y-133896762D01*
X85074142Y-133896762D02*
X85074142Y-134235429D01*
X85074142Y-134235429D02*
X85026523Y-134428953D01*
X85026523Y-134428953D02*
X84931285Y-134525715D01*
X84931285Y-134525715D02*
X84836047Y-134574095D01*
X84836047Y-134574095D02*
X84645571Y-134574095D01*
X85931285Y-133896762D02*
X85931285Y-134574095D01*
X85693190Y-133509715D02*
X85455095Y-134235429D01*
X85455095Y-134235429D02*
X86074142Y-134235429D01*
X95077095Y-128531857D02*
X94593286Y-128865190D01*
X95077095Y-129103285D02*
X94061095Y-129103285D01*
X94061095Y-129103285D02*
X94061095Y-128722333D01*
X94061095Y-128722333D02*
X94109476Y-128627095D01*
X94109476Y-128627095D02*
X94157857Y-128579476D01*
X94157857Y-128579476D02*
X94254619Y-128531857D01*
X94254619Y-128531857D02*
X94399762Y-128531857D01*
X94399762Y-128531857D02*
X94496524Y-128579476D01*
X94496524Y-128579476D02*
X94544905Y-128627095D01*
X94544905Y-128627095D02*
X94593286Y-128722333D01*
X94593286Y-128722333D02*
X94593286Y-129103285D01*
X95077095Y-127579476D02*
X95077095Y-128150904D01*
X95077095Y-127865190D02*
X94061095Y-127865190D01*
X94061095Y-127865190D02*
X94206238Y-127960428D01*
X94206238Y-127960428D02*
X94303000Y-128055666D01*
X94303000Y-128055666D02*
X94351381Y-128150904D01*
X95077095Y-126627095D02*
X95077095Y-127198523D01*
X95077095Y-126912809D02*
X94061095Y-126912809D01*
X94061095Y-126912809D02*
X94206238Y-127008047D01*
X94206238Y-127008047D02*
X94303000Y-127103285D01*
X94303000Y-127103285D02*
X94351381Y-127198523D01*
X70985142Y-134731334D02*
X70937523Y-134779715D01*
X70937523Y-134779715D02*
X70794666Y-134828095D01*
X70794666Y-134828095D02*
X70699428Y-134828095D01*
X70699428Y-134828095D02*
X70556571Y-134779715D01*
X70556571Y-134779715D02*
X70461333Y-134682953D01*
X70461333Y-134682953D02*
X70413714Y-134586191D01*
X70413714Y-134586191D02*
X70366095Y-134392667D01*
X70366095Y-134392667D02*
X70366095Y-134247524D01*
X70366095Y-134247524D02*
X70413714Y-134054000D01*
X70413714Y-134054000D02*
X70461333Y-133957238D01*
X70461333Y-133957238D02*
X70556571Y-133860476D01*
X70556571Y-133860476D02*
X70699428Y-133812095D01*
X70699428Y-133812095D02*
X70794666Y-133812095D01*
X70794666Y-133812095D02*
X70937523Y-133860476D01*
X70937523Y-133860476D02*
X70985142Y-133908857D01*
X71937523Y-134828095D02*
X71366095Y-134828095D01*
X71651809Y-134828095D02*
X71651809Y-133812095D01*
X71651809Y-133812095D02*
X71556571Y-133957238D01*
X71556571Y-133957238D02*
X71461333Y-134054000D01*
X71461333Y-134054000D02*
X71366095Y-134102381D01*
X72889904Y-134828095D02*
X72318476Y-134828095D01*
X72604190Y-134828095D02*
X72604190Y-133812095D01*
X72604190Y-133812095D02*
X72508952Y-133957238D01*
X72508952Y-133957238D02*
X72413714Y-134054000D01*
X72413714Y-134054000D02*
X72318476Y-134102381D01*
X73620333Y-133685095D02*
X73287000Y-133201286D01*
X73048905Y-133685095D02*
X73048905Y-132669095D01*
X73048905Y-132669095D02*
X73429857Y-132669095D01*
X73429857Y-132669095D02*
X73525095Y-132717476D01*
X73525095Y-132717476D02*
X73572714Y-132765857D01*
X73572714Y-132765857D02*
X73620333Y-132862619D01*
X73620333Y-132862619D02*
X73620333Y-133007762D01*
X73620333Y-133007762D02*
X73572714Y-133104524D01*
X73572714Y-133104524D02*
X73525095Y-133152905D01*
X73525095Y-133152905D02*
X73429857Y-133201286D01*
X73429857Y-133201286D02*
X73048905Y-133201286D01*
X74191762Y-133104524D02*
X74096524Y-133056143D01*
X74096524Y-133056143D02*
X74048905Y-133007762D01*
X74048905Y-133007762D02*
X74001286Y-132911000D01*
X74001286Y-132911000D02*
X74001286Y-132862619D01*
X74001286Y-132862619D02*
X74048905Y-132765857D01*
X74048905Y-132765857D02*
X74096524Y-132717476D01*
X74096524Y-132717476D02*
X74191762Y-132669095D01*
X74191762Y-132669095D02*
X74382238Y-132669095D01*
X74382238Y-132669095D02*
X74477476Y-132717476D01*
X74477476Y-132717476D02*
X74525095Y-132765857D01*
X74525095Y-132765857D02*
X74572714Y-132862619D01*
X74572714Y-132862619D02*
X74572714Y-132911000D01*
X74572714Y-132911000D02*
X74525095Y-133007762D01*
X74525095Y-133007762D02*
X74477476Y-133056143D01*
X74477476Y-133056143D02*
X74382238Y-133104524D01*
X74382238Y-133104524D02*
X74191762Y-133104524D01*
X74191762Y-133104524D02*
X74096524Y-133152905D01*
X74096524Y-133152905D02*
X74048905Y-133201286D01*
X74048905Y-133201286D02*
X74001286Y-133298048D01*
X74001286Y-133298048D02*
X74001286Y-133491572D01*
X74001286Y-133491572D02*
X74048905Y-133588334D01*
X74048905Y-133588334D02*
X74096524Y-133636715D01*
X74096524Y-133636715D02*
X74191762Y-133685095D01*
X74191762Y-133685095D02*
X74382238Y-133685095D01*
X74382238Y-133685095D02*
X74477476Y-133636715D01*
X74477476Y-133636715D02*
X74525095Y-133588334D01*
X74525095Y-133588334D02*
X74572714Y-133491572D01*
X74572714Y-133491572D02*
X74572714Y-133298048D01*
X74572714Y-133298048D02*
X74525095Y-133201286D01*
X74525095Y-133201286D02*
X74477476Y-133152905D01*
X74477476Y-133152905D02*
X74382238Y-133104524D01*
X102989142Y-129621095D02*
X102655809Y-129137286D01*
X102417714Y-129621095D02*
X102417714Y-128605095D01*
X102417714Y-128605095D02*
X102798666Y-128605095D01*
X102798666Y-128605095D02*
X102893904Y-128653476D01*
X102893904Y-128653476D02*
X102941523Y-128701857D01*
X102941523Y-128701857D02*
X102989142Y-128798619D01*
X102989142Y-128798619D02*
X102989142Y-128943762D01*
X102989142Y-128943762D02*
X102941523Y-129040524D01*
X102941523Y-129040524D02*
X102893904Y-129088905D01*
X102893904Y-129088905D02*
X102798666Y-129137286D01*
X102798666Y-129137286D02*
X102417714Y-129137286D01*
X103941523Y-129621095D02*
X103370095Y-129621095D01*
X103655809Y-129621095D02*
X103655809Y-128605095D01*
X103655809Y-128605095D02*
X103560571Y-128750238D01*
X103560571Y-128750238D02*
X103465333Y-128847000D01*
X103465333Y-128847000D02*
X103370095Y-128895381D01*
X104274857Y-128605095D02*
X104893904Y-128605095D01*
X104893904Y-128605095D02*
X104560571Y-128992143D01*
X104560571Y-128992143D02*
X104703428Y-128992143D01*
X104703428Y-128992143D02*
X104798666Y-129040524D01*
X104798666Y-129040524D02*
X104846285Y-129088905D01*
X104846285Y-129088905D02*
X104893904Y-129185667D01*
X104893904Y-129185667D02*
X104893904Y-129427572D01*
X104893904Y-129427572D02*
X104846285Y-129524334D01*
X104846285Y-129524334D02*
X104798666Y-129572715D01*
X104798666Y-129572715D02*
X104703428Y-129621095D01*
X104703428Y-129621095D02*
X104417714Y-129621095D01*
X104417714Y-129621095D02*
X104322476Y-129572715D01*
X104322476Y-129572715D02*
X104274857Y-129524334D01*
X69677095Y-121896094D02*
X68661095Y-121896094D01*
X68661095Y-121896094D02*
X68661095Y-121657999D01*
X68661095Y-121657999D02*
X68709476Y-121515142D01*
X68709476Y-121515142D02*
X68806238Y-121419904D01*
X68806238Y-121419904D02*
X68903000Y-121372285D01*
X68903000Y-121372285D02*
X69096524Y-121324666D01*
X69096524Y-121324666D02*
X69241667Y-121324666D01*
X69241667Y-121324666D02*
X69435191Y-121372285D01*
X69435191Y-121372285D02*
X69531953Y-121419904D01*
X69531953Y-121419904D02*
X69628715Y-121515142D01*
X69628715Y-121515142D02*
X69677095Y-121657999D01*
X69677095Y-121657999D02*
X69677095Y-121896094D01*
X68661095Y-120991332D02*
X68661095Y-120372285D01*
X68661095Y-120372285D02*
X69048143Y-120705618D01*
X69048143Y-120705618D02*
X69048143Y-120562761D01*
X69048143Y-120562761D02*
X69096524Y-120467523D01*
X69096524Y-120467523D02*
X69144905Y-120419904D01*
X69144905Y-120419904D02*
X69241667Y-120372285D01*
X69241667Y-120372285D02*
X69483572Y-120372285D01*
X69483572Y-120372285D02*
X69580334Y-120419904D01*
X69580334Y-120419904D02*
X69628715Y-120467523D01*
X69628715Y-120467523D02*
X69677095Y-120562761D01*
X69677095Y-120562761D02*
X69677095Y-120848475D01*
X69677095Y-120848475D02*
X69628715Y-120943713D01*
X69628715Y-120943713D02*
X69580334Y-120991332D01*
X103108334Y-122594666D02*
X103156715Y-122642285D01*
X103156715Y-122642285D02*
X103205095Y-122785142D01*
X103205095Y-122785142D02*
X103205095Y-122880380D01*
X103205095Y-122880380D02*
X103156715Y-123023237D01*
X103156715Y-123023237D02*
X103059953Y-123118475D01*
X103059953Y-123118475D02*
X102963191Y-123166094D01*
X102963191Y-123166094D02*
X102769667Y-123213713D01*
X102769667Y-123213713D02*
X102624524Y-123213713D01*
X102624524Y-123213713D02*
X102431000Y-123166094D01*
X102431000Y-123166094D02*
X102334238Y-123118475D01*
X102334238Y-123118475D02*
X102237476Y-123023237D01*
X102237476Y-123023237D02*
X102189095Y-122880380D01*
X102189095Y-122880380D02*
X102189095Y-122785142D01*
X102189095Y-122785142D02*
X102237476Y-122642285D01*
X102237476Y-122642285D02*
X102285857Y-122594666D01*
X102527762Y-121737523D02*
X103205095Y-121737523D01*
X102140715Y-121975618D02*
X102866429Y-122213713D01*
X102866429Y-122213713D02*
X102866429Y-121594666D01*
X107910333Y-129524334D02*
X107862714Y-129572715D01*
X107862714Y-129572715D02*
X107719857Y-129621095D01*
X107719857Y-129621095D02*
X107624619Y-129621095D01*
X107624619Y-129621095D02*
X107481762Y-129572715D01*
X107481762Y-129572715D02*
X107386524Y-129475953D01*
X107386524Y-129475953D02*
X107338905Y-129379191D01*
X107338905Y-129379191D02*
X107291286Y-129185667D01*
X107291286Y-129185667D02*
X107291286Y-129040524D01*
X107291286Y-129040524D02*
X107338905Y-128847000D01*
X107338905Y-128847000D02*
X107386524Y-128750238D01*
X107386524Y-128750238D02*
X107481762Y-128653476D01*
X107481762Y-128653476D02*
X107624619Y-128605095D01*
X107624619Y-128605095D02*
X107719857Y-128605095D01*
X107719857Y-128605095D02*
X107862714Y-128653476D01*
X107862714Y-128653476D02*
X107910333Y-128701857D01*
X108243667Y-128605095D02*
X108910333Y-128605095D01*
X108910333Y-128605095D02*
X108481762Y-129621095D01*
X94956333Y-134604334D02*
X94908714Y-134652715D01*
X94908714Y-134652715D02*
X94765857Y-134701095D01*
X94765857Y-134701095D02*
X94670619Y-134701095D01*
X94670619Y-134701095D02*
X94527762Y-134652715D01*
X94527762Y-134652715D02*
X94432524Y-134555953D01*
X94432524Y-134555953D02*
X94384905Y-134459191D01*
X94384905Y-134459191D02*
X94337286Y-134265667D01*
X94337286Y-134265667D02*
X94337286Y-134120524D01*
X94337286Y-134120524D02*
X94384905Y-133927000D01*
X94384905Y-133927000D02*
X94432524Y-133830238D01*
X94432524Y-133830238D02*
X94527762Y-133733476D01*
X94527762Y-133733476D02*
X94670619Y-133685095D01*
X94670619Y-133685095D02*
X94765857Y-133685095D01*
X94765857Y-133685095D02*
X94908714Y-133733476D01*
X94908714Y-133733476D02*
X94956333Y-133781857D01*
X95432524Y-134701095D02*
X95623000Y-134701095D01*
X95623000Y-134701095D02*
X95718238Y-134652715D01*
X95718238Y-134652715D02*
X95765857Y-134604334D01*
X95765857Y-134604334D02*
X95861095Y-134459191D01*
X95861095Y-134459191D02*
X95908714Y-134265667D01*
X95908714Y-134265667D02*
X95908714Y-133878619D01*
X95908714Y-133878619D02*
X95861095Y-133781857D01*
X95861095Y-133781857D02*
X95813476Y-133733476D01*
X95813476Y-133733476D02*
X95718238Y-133685095D01*
X95718238Y-133685095D02*
X95527762Y-133685095D01*
X95527762Y-133685095D02*
X95432524Y-133733476D01*
X95432524Y-133733476D02*
X95384905Y-133781857D01*
X95384905Y-133781857D02*
X95337286Y-133878619D01*
X95337286Y-133878619D02*
X95337286Y-134120524D01*
X95337286Y-134120524D02*
X95384905Y-134217286D01*
X95384905Y-134217286D02*
X95432524Y-134265667D01*
X95432524Y-134265667D02*
X95527762Y-134314048D01*
X95527762Y-134314048D02*
X95718238Y-134314048D01*
X95718238Y-134314048D02*
X95813476Y-134265667D01*
X95813476Y-134265667D02*
X95861095Y-134217286D01*
X95861095Y-134217286D02*
X95908714Y-134120524D01*
X88479333Y-120350095D02*
X88146000Y-119866286D01*
X87907905Y-120350095D02*
X87907905Y-119334095D01*
X87907905Y-119334095D02*
X88288857Y-119334095D01*
X88288857Y-119334095D02*
X88384095Y-119382476D01*
X88384095Y-119382476D02*
X88431714Y-119430857D01*
X88431714Y-119430857D02*
X88479333Y-119527619D01*
X88479333Y-119527619D02*
X88479333Y-119672762D01*
X88479333Y-119672762D02*
X88431714Y-119769524D01*
X88431714Y-119769524D02*
X88384095Y-119817905D01*
X88384095Y-119817905D02*
X88288857Y-119866286D01*
X88288857Y-119866286D02*
X87907905Y-119866286D01*
X88860286Y-119430857D02*
X88907905Y-119382476D01*
X88907905Y-119382476D02*
X89003143Y-119334095D01*
X89003143Y-119334095D02*
X89241238Y-119334095D01*
X89241238Y-119334095D02*
X89336476Y-119382476D01*
X89336476Y-119382476D02*
X89384095Y-119430857D01*
X89384095Y-119430857D02*
X89431714Y-119527619D01*
X89431714Y-119527619D02*
X89431714Y-119624381D01*
X89431714Y-119624381D02*
X89384095Y-119769524D01*
X89384095Y-119769524D02*
X88812667Y-120350095D01*
X88812667Y-120350095D02*
X89431714Y-120350095D01*
X73263334Y-121578666D02*
X73311715Y-121626285D01*
X73311715Y-121626285D02*
X73360095Y-121769142D01*
X73360095Y-121769142D02*
X73360095Y-121864380D01*
X73360095Y-121864380D02*
X73311715Y-122007237D01*
X73311715Y-122007237D02*
X73214953Y-122102475D01*
X73214953Y-122102475D02*
X73118191Y-122150094D01*
X73118191Y-122150094D02*
X72924667Y-122197713D01*
X72924667Y-122197713D02*
X72779524Y-122197713D01*
X72779524Y-122197713D02*
X72586000Y-122150094D01*
X72586000Y-122150094D02*
X72489238Y-122102475D01*
X72489238Y-122102475D02*
X72392476Y-122007237D01*
X72392476Y-122007237D02*
X72344095Y-121864380D01*
X72344095Y-121864380D02*
X72344095Y-121769142D01*
X72344095Y-121769142D02*
X72392476Y-121626285D01*
X72392476Y-121626285D02*
X72440857Y-121578666D01*
X72344095Y-121245332D02*
X72344095Y-120626285D01*
X72344095Y-120626285D02*
X72731143Y-120959618D01*
X72731143Y-120959618D02*
X72731143Y-120816761D01*
X72731143Y-120816761D02*
X72779524Y-120721523D01*
X72779524Y-120721523D02*
X72827905Y-120673904D01*
X72827905Y-120673904D02*
X72924667Y-120626285D01*
X72924667Y-120626285D02*
X73166572Y-120626285D01*
X73166572Y-120626285D02*
X73263334Y-120673904D01*
X73263334Y-120673904D02*
X73311715Y-120721523D01*
X73311715Y-120721523D02*
X73360095Y-120816761D01*
X73360095Y-120816761D02*
X73360095Y-121102475D01*
X73360095Y-121102475D02*
X73311715Y-121197713D01*
X73311715Y-121197713D02*
X73263334Y-121245332D01*
X90511333Y-120350095D02*
X90178000Y-119866286D01*
X89939905Y-120350095D02*
X89939905Y-119334095D01*
X89939905Y-119334095D02*
X90320857Y-119334095D01*
X90320857Y-119334095D02*
X90416095Y-119382476D01*
X90416095Y-119382476D02*
X90463714Y-119430857D01*
X90463714Y-119430857D02*
X90511333Y-119527619D01*
X90511333Y-119527619D02*
X90511333Y-119672762D01*
X90511333Y-119672762D02*
X90463714Y-119769524D01*
X90463714Y-119769524D02*
X90416095Y-119817905D01*
X90416095Y-119817905D02*
X90320857Y-119866286D01*
X90320857Y-119866286D02*
X89939905Y-119866286D01*
X91463714Y-120350095D02*
X90892286Y-120350095D01*
X91178000Y-120350095D02*
X91178000Y-119334095D01*
X91178000Y-119334095D02*
X91082762Y-119479238D01*
X91082762Y-119479238D02*
X90987524Y-119576000D01*
X90987524Y-119576000D02*
X90892286Y-119624381D01*
X88765142Y-131018095D02*
X88431809Y-130534286D01*
X88193714Y-131018095D02*
X88193714Y-130002095D01*
X88193714Y-130002095D02*
X88574666Y-130002095D01*
X88574666Y-130002095D02*
X88669904Y-130050476D01*
X88669904Y-130050476D02*
X88717523Y-130098857D01*
X88717523Y-130098857D02*
X88765142Y-130195619D01*
X88765142Y-130195619D02*
X88765142Y-130340762D01*
X88765142Y-130340762D02*
X88717523Y-130437524D01*
X88717523Y-130437524D02*
X88669904Y-130485905D01*
X88669904Y-130485905D02*
X88574666Y-130534286D01*
X88574666Y-130534286D02*
X88193714Y-130534286D01*
X89717523Y-131018095D02*
X89146095Y-131018095D01*
X89431809Y-131018095D02*
X89431809Y-130002095D01*
X89431809Y-130002095D02*
X89336571Y-130147238D01*
X89336571Y-130147238D02*
X89241333Y-130244000D01*
X89241333Y-130244000D02*
X89146095Y-130292381D01*
X90336571Y-130002095D02*
X90431809Y-130002095D01*
X90431809Y-130002095D02*
X90527047Y-130050476D01*
X90527047Y-130050476D02*
X90574666Y-130098857D01*
X90574666Y-130098857D02*
X90622285Y-130195619D01*
X90622285Y-130195619D02*
X90669904Y-130389143D01*
X90669904Y-130389143D02*
X90669904Y-130631048D01*
X90669904Y-130631048D02*
X90622285Y-130824572D01*
X90622285Y-130824572D02*
X90574666Y-130921334D01*
X90574666Y-130921334D02*
X90527047Y-130969715D01*
X90527047Y-130969715D02*
X90431809Y-131018095D01*
X90431809Y-131018095D02*
X90336571Y-131018095D01*
X90336571Y-131018095D02*
X90241333Y-130969715D01*
X90241333Y-130969715D02*
X90193714Y-130921334D01*
X90193714Y-130921334D02*
X90146095Y-130824572D01*
X90146095Y-130824572D02*
X90098476Y-130631048D01*
X90098476Y-130631048D02*
X90098476Y-130389143D01*
X90098476Y-130389143D02*
X90146095Y-130195619D01*
X90146095Y-130195619D02*
X90193714Y-130098857D01*
X90193714Y-130098857D02*
X90241333Y-130050476D01*
X90241333Y-130050476D02*
X90336571Y-130002095D01*
X65016142Y-119618334D02*
X64968523Y-119666715D01*
X64968523Y-119666715D02*
X64825666Y-119715095D01*
X64825666Y-119715095D02*
X64730428Y-119715095D01*
X64730428Y-119715095D02*
X64587571Y-119666715D01*
X64587571Y-119666715D02*
X64492333Y-119569953D01*
X64492333Y-119569953D02*
X64444714Y-119473191D01*
X64444714Y-119473191D02*
X64397095Y-119279667D01*
X64397095Y-119279667D02*
X64397095Y-119134524D01*
X64397095Y-119134524D02*
X64444714Y-118941000D01*
X64444714Y-118941000D02*
X64492333Y-118844238D01*
X64492333Y-118844238D02*
X64587571Y-118747476D01*
X64587571Y-118747476D02*
X64730428Y-118699095D01*
X64730428Y-118699095D02*
X64825666Y-118699095D01*
X64825666Y-118699095D02*
X64968523Y-118747476D01*
X64968523Y-118747476D02*
X65016142Y-118795857D01*
X65968523Y-119715095D02*
X65397095Y-119715095D01*
X65682809Y-119715095D02*
X65682809Y-118699095D01*
X65682809Y-118699095D02*
X65587571Y-118844238D01*
X65587571Y-118844238D02*
X65492333Y-118941000D01*
X65492333Y-118941000D02*
X65397095Y-118989381D01*
X66587571Y-118699095D02*
X66682809Y-118699095D01*
X66682809Y-118699095D02*
X66778047Y-118747476D01*
X66778047Y-118747476D02*
X66825666Y-118795857D01*
X66825666Y-118795857D02*
X66873285Y-118892619D01*
X66873285Y-118892619D02*
X66920904Y-119086143D01*
X66920904Y-119086143D02*
X66920904Y-119328048D01*
X66920904Y-119328048D02*
X66873285Y-119521572D01*
X66873285Y-119521572D02*
X66825666Y-119618334D01*
X66825666Y-119618334D02*
X66778047Y-119666715D01*
X66778047Y-119666715D02*
X66682809Y-119715095D01*
X66682809Y-119715095D02*
X66587571Y-119715095D01*
X66587571Y-119715095D02*
X66492333Y-119666715D01*
X66492333Y-119666715D02*
X66444714Y-119618334D01*
X66444714Y-119618334D02*
X66397095Y-119521572D01*
X66397095Y-119521572D02*
X66349476Y-119328048D01*
X66349476Y-119328048D02*
X66349476Y-119086143D01*
X66349476Y-119086143D02*
X66397095Y-118892619D01*
X66397095Y-118892619D02*
X66444714Y-118795857D01*
X66444714Y-118795857D02*
X66492333Y-118747476D01*
X66492333Y-118747476D02*
X66587571Y-118699095D01*
X99909333Y-120126334D02*
X99861714Y-120174715D01*
X99861714Y-120174715D02*
X99718857Y-120223095D01*
X99718857Y-120223095D02*
X99623619Y-120223095D01*
X99623619Y-120223095D02*
X99480762Y-120174715D01*
X99480762Y-120174715D02*
X99385524Y-120077953D01*
X99385524Y-120077953D02*
X99337905Y-119981191D01*
X99337905Y-119981191D02*
X99290286Y-119787667D01*
X99290286Y-119787667D02*
X99290286Y-119642524D01*
X99290286Y-119642524D02*
X99337905Y-119449000D01*
X99337905Y-119449000D02*
X99385524Y-119352238D01*
X99385524Y-119352238D02*
X99480762Y-119255476D01*
X99480762Y-119255476D02*
X99623619Y-119207095D01*
X99623619Y-119207095D02*
X99718857Y-119207095D01*
X99718857Y-119207095D02*
X99861714Y-119255476D01*
X99861714Y-119255476D02*
X99909333Y-119303857D01*
X100814095Y-119207095D02*
X100337905Y-119207095D01*
X100337905Y-119207095D02*
X100290286Y-119690905D01*
X100290286Y-119690905D02*
X100337905Y-119642524D01*
X100337905Y-119642524D02*
X100433143Y-119594143D01*
X100433143Y-119594143D02*
X100671238Y-119594143D01*
X100671238Y-119594143D02*
X100766476Y-119642524D01*
X100766476Y-119642524D02*
X100814095Y-119690905D01*
X100814095Y-119690905D02*
X100861714Y-119787667D01*
X100861714Y-119787667D02*
X100861714Y-120029572D01*
X100861714Y-120029572D02*
X100814095Y-120126334D01*
X100814095Y-120126334D02*
X100766476Y-120174715D01*
X100766476Y-120174715D02*
X100671238Y-120223095D01*
X100671238Y-120223095D02*
X100433143Y-120223095D01*
X100433143Y-120223095D02*
X100337905Y-120174715D01*
X100337905Y-120174715D02*
X100290286Y-120126334D01*
X100030095Y-133611857D02*
X99546286Y-133945190D01*
X100030095Y-134183285D02*
X99014095Y-134183285D01*
X99014095Y-134183285D02*
X99014095Y-133802333D01*
X99014095Y-133802333D02*
X99062476Y-133707095D01*
X99062476Y-133707095D02*
X99110857Y-133659476D01*
X99110857Y-133659476D02*
X99207619Y-133611857D01*
X99207619Y-133611857D02*
X99352762Y-133611857D01*
X99352762Y-133611857D02*
X99449524Y-133659476D01*
X99449524Y-133659476D02*
X99497905Y-133707095D01*
X99497905Y-133707095D02*
X99546286Y-133802333D01*
X99546286Y-133802333D02*
X99546286Y-134183285D01*
X100030095Y-132659476D02*
X100030095Y-133230904D01*
X100030095Y-132945190D02*
X99014095Y-132945190D01*
X99014095Y-132945190D02*
X99159238Y-133040428D01*
X99159238Y-133040428D02*
X99256000Y-133135666D01*
X99256000Y-133135666D02*
X99304381Y-133230904D01*
X99014095Y-131754714D02*
X99014095Y-132230904D01*
X99014095Y-132230904D02*
X99497905Y-132278523D01*
X99497905Y-132278523D02*
X99449524Y-132230904D01*
X99449524Y-132230904D02*
X99401143Y-132135666D01*
X99401143Y-132135666D02*
X99401143Y-131897571D01*
X99401143Y-131897571D02*
X99449524Y-131802333D01*
X99449524Y-131802333D02*
X99497905Y-131754714D01*
X99497905Y-131754714D02*
X99594667Y-131707095D01*
X99594667Y-131707095D02*
X99836572Y-131707095D01*
X99836572Y-131707095D02*
X99933334Y-131754714D01*
X99933334Y-131754714D02*
X99981715Y-131802333D01*
X99981715Y-131802333D02*
X100030095Y-131897571D01*
X100030095Y-131897571D02*
X100030095Y-132135666D01*
X100030095Y-132135666D02*
X99981715Y-132230904D01*
X99981715Y-132230904D02*
X99933334Y-132278523D01*
X70185095Y-124944094D02*
X69169095Y-124944094D01*
X69169095Y-124944094D02*
X69169095Y-124705999D01*
X69169095Y-124705999D02*
X69217476Y-124563142D01*
X69217476Y-124563142D02*
X69314238Y-124467904D01*
X69314238Y-124467904D02*
X69411000Y-124420285D01*
X69411000Y-124420285D02*
X69604524Y-124372666D01*
X69604524Y-124372666D02*
X69749667Y-124372666D01*
X69749667Y-124372666D02*
X69943191Y-124420285D01*
X69943191Y-124420285D02*
X70039953Y-124467904D01*
X70039953Y-124467904D02*
X70136715Y-124563142D01*
X70136715Y-124563142D02*
X70185095Y-124705999D01*
X70185095Y-124705999D02*
X70185095Y-124944094D01*
X69265857Y-123991713D02*
X69217476Y-123944094D01*
X69217476Y-123944094D02*
X69169095Y-123848856D01*
X69169095Y-123848856D02*
X69169095Y-123610761D01*
X69169095Y-123610761D02*
X69217476Y-123515523D01*
X69217476Y-123515523D02*
X69265857Y-123467904D01*
X69265857Y-123467904D02*
X69362619Y-123420285D01*
X69362619Y-123420285D02*
X69459381Y-123420285D01*
X69459381Y-123420285D02*
X69604524Y-123467904D01*
X69604524Y-123467904D02*
X70185095Y-124039332D01*
X70185095Y-124039332D02*
X70185095Y-123420285D01*
X90836761Y-134543857D02*
X90741523Y-134495476D01*
X90741523Y-134495476D02*
X90646285Y-134398715D01*
X90646285Y-134398715D02*
X90503428Y-134253572D01*
X90503428Y-134253572D02*
X90408190Y-134205191D01*
X90408190Y-134205191D02*
X90312952Y-134205191D01*
X90360571Y-134447095D02*
X90265333Y-134398715D01*
X90265333Y-134398715D02*
X90170095Y-134301953D01*
X90170095Y-134301953D02*
X90122476Y-134108429D01*
X90122476Y-134108429D02*
X90122476Y-133769762D01*
X90122476Y-133769762D02*
X90170095Y-133576238D01*
X90170095Y-133576238D02*
X90265333Y-133479476D01*
X90265333Y-133479476D02*
X90360571Y-133431095D01*
X90360571Y-133431095D02*
X90551047Y-133431095D01*
X90551047Y-133431095D02*
X90646285Y-133479476D01*
X90646285Y-133479476D02*
X90741523Y-133576238D01*
X90741523Y-133576238D02*
X90789142Y-133769762D01*
X90789142Y-133769762D02*
X90789142Y-134108429D01*
X90789142Y-134108429D02*
X90741523Y-134301953D01*
X90741523Y-134301953D02*
X90646285Y-134398715D01*
X90646285Y-134398715D02*
X90551047Y-134447095D01*
X90551047Y-134447095D02*
X90360571Y-134447095D01*
X91122476Y-133431095D02*
X91741523Y-133431095D01*
X91741523Y-133431095D02*
X91408190Y-133818143D01*
X91408190Y-133818143D02*
X91551047Y-133818143D01*
X91551047Y-133818143D02*
X91646285Y-133866524D01*
X91646285Y-133866524D02*
X91693904Y-133914905D01*
X91693904Y-133914905D02*
X91741523Y-134011667D01*
X91741523Y-134011667D02*
X91741523Y-134253572D01*
X91741523Y-134253572D02*
X91693904Y-134350334D01*
X91693904Y-134350334D02*
X91646285Y-134398715D01*
X91646285Y-134398715D02*
X91551047Y-134447095D01*
X91551047Y-134447095D02*
X91265333Y-134447095D01*
X91265333Y-134447095D02*
X91170095Y-134398715D01*
X91170095Y-134398715D02*
X91122476Y-134350334D01*
X79970333Y-133812095D02*
X79637000Y-133328286D01*
X79398905Y-133812095D02*
X79398905Y-132796095D01*
X79398905Y-132796095D02*
X79779857Y-132796095D01*
X79779857Y-132796095D02*
X79875095Y-132844476D01*
X79875095Y-132844476D02*
X79922714Y-132892857D01*
X79922714Y-132892857D02*
X79970333Y-132989619D01*
X79970333Y-132989619D02*
X79970333Y-133134762D01*
X79970333Y-133134762D02*
X79922714Y-133231524D01*
X79922714Y-133231524D02*
X79875095Y-133279905D01*
X79875095Y-133279905D02*
X79779857Y-133328286D01*
X79779857Y-133328286D02*
X79398905Y-133328286D01*
X80446524Y-133812095D02*
X80637000Y-133812095D01*
X80637000Y-133812095D02*
X80732238Y-133763715D01*
X80732238Y-133763715D02*
X80779857Y-133715334D01*
X80779857Y-133715334D02*
X80875095Y-133570191D01*
X80875095Y-133570191D02*
X80922714Y-133376667D01*
X80922714Y-133376667D02*
X80922714Y-132989619D01*
X80922714Y-132989619D02*
X80875095Y-132892857D01*
X80875095Y-132892857D02*
X80827476Y-132844476D01*
X80827476Y-132844476D02*
X80732238Y-132796095D01*
X80732238Y-132796095D02*
X80541762Y-132796095D01*
X80541762Y-132796095D02*
X80446524Y-132844476D01*
X80446524Y-132844476D02*
X80398905Y-132892857D01*
X80398905Y-132892857D02*
X80351286Y-132989619D01*
X80351286Y-132989619D02*
X80351286Y-133231524D01*
X80351286Y-133231524D02*
X80398905Y-133328286D01*
X80398905Y-133328286D02*
X80446524Y-133376667D01*
X80446524Y-133376667D02*
X80541762Y-133425048D01*
X80541762Y-133425048D02*
X80732238Y-133425048D01*
X80732238Y-133425048D02*
X80827476Y-133376667D01*
X80827476Y-133376667D02*
X80875095Y-133328286D01*
X80875095Y-133328286D02*
X80922714Y-133231524D01*
D11*
X92815580Y-126023666D02*
X92863200Y-126071285D01*
X92863200Y-126071285D02*
X92910819Y-126214142D01*
X92910819Y-126214142D02*
X92910819Y-126309380D01*
X92910819Y-126309380D02*
X92863200Y-126452237D01*
X92863200Y-126452237D02*
X92767961Y-126547475D01*
X92767961Y-126547475D02*
X92672723Y-126595094D01*
X92672723Y-126595094D02*
X92482247Y-126642713D01*
X92482247Y-126642713D02*
X92339390Y-126642713D01*
X92339390Y-126642713D02*
X92148914Y-126595094D01*
X92148914Y-126595094D02*
X92053676Y-126547475D01*
X92053676Y-126547475D02*
X91958438Y-126452237D01*
X91958438Y-126452237D02*
X91910819Y-126309380D01*
X91910819Y-126309380D02*
X91910819Y-126214142D01*
X91910819Y-126214142D02*
X91958438Y-126071285D01*
X91958438Y-126071285D02*
X92006057Y-126023666D01*
X92910819Y-125071285D02*
X92910819Y-125642713D01*
X92910819Y-125356999D02*
X91910819Y-125356999D01*
X91910819Y-125356999D02*
X92053676Y-125452237D01*
X92053676Y-125452237D02*
X92148914Y-125547475D01*
X92148914Y-125547475D02*
X92196533Y-125642713D01*
D12*
X91781333Y-122920334D02*
X91733714Y-122968715D01*
X91733714Y-122968715D02*
X91590857Y-123017095D01*
X91590857Y-123017095D02*
X91495619Y-123017095D01*
X91495619Y-123017095D02*
X91352762Y-122968715D01*
X91352762Y-122968715D02*
X91257524Y-122871953D01*
X91257524Y-122871953D02*
X91209905Y-122775191D01*
X91209905Y-122775191D02*
X91162286Y-122581667D01*
X91162286Y-122581667D02*
X91162286Y-122436524D01*
X91162286Y-122436524D02*
X91209905Y-122243000D01*
X91209905Y-122243000D02*
X91257524Y-122146238D01*
X91257524Y-122146238D02*
X91352762Y-122049476D01*
X91352762Y-122049476D02*
X91495619Y-122001095D01*
X91495619Y-122001095D02*
X91590857Y-122001095D01*
X91590857Y-122001095D02*
X91733714Y-122049476D01*
X91733714Y-122049476D02*
X91781333Y-122097857D01*
X92162286Y-122097857D02*
X92209905Y-122049476D01*
X92209905Y-122049476D02*
X92305143Y-122001095D01*
X92305143Y-122001095D02*
X92543238Y-122001095D01*
X92543238Y-122001095D02*
X92638476Y-122049476D01*
X92638476Y-122049476D02*
X92686095Y-122097857D01*
X92686095Y-122097857D02*
X92733714Y-122194619D01*
X92733714Y-122194619D02*
X92733714Y-122291381D01*
X92733714Y-122291381D02*
X92686095Y-122436524D01*
X92686095Y-122436524D02*
X92114667Y-123017095D01*
X92114667Y-123017095D02*
X92733714Y-123017095D01*
X107299334Y-124626666D02*
X107347715Y-124674285D01*
X107347715Y-124674285D02*
X107396095Y-124817142D01*
X107396095Y-124817142D02*
X107396095Y-124912380D01*
X107396095Y-124912380D02*
X107347715Y-125055237D01*
X107347715Y-125055237D02*
X107250953Y-125150475D01*
X107250953Y-125150475D02*
X107154191Y-125198094D01*
X107154191Y-125198094D02*
X106960667Y-125245713D01*
X106960667Y-125245713D02*
X106815524Y-125245713D01*
X106815524Y-125245713D02*
X106622000Y-125198094D01*
X106622000Y-125198094D02*
X106525238Y-125150475D01*
X106525238Y-125150475D02*
X106428476Y-125055237D01*
X106428476Y-125055237D02*
X106380095Y-124912380D01*
X106380095Y-124912380D02*
X106380095Y-124817142D01*
X106380095Y-124817142D02*
X106428476Y-124674285D01*
X106428476Y-124674285D02*
X106476857Y-124626666D01*
X106815524Y-124055237D02*
X106767143Y-124150475D01*
X106767143Y-124150475D02*
X106718762Y-124198094D01*
X106718762Y-124198094D02*
X106622000Y-124245713D01*
X106622000Y-124245713D02*
X106573619Y-124245713D01*
X106573619Y-124245713D02*
X106476857Y-124198094D01*
X106476857Y-124198094D02*
X106428476Y-124150475D01*
X106428476Y-124150475D02*
X106380095Y-124055237D01*
X106380095Y-124055237D02*
X106380095Y-123864761D01*
X106380095Y-123864761D02*
X106428476Y-123769523D01*
X106428476Y-123769523D02*
X106476857Y-123721904D01*
X106476857Y-123721904D02*
X106573619Y-123674285D01*
X106573619Y-123674285D02*
X106622000Y-123674285D01*
X106622000Y-123674285D02*
X106718762Y-123721904D01*
X106718762Y-123721904D02*
X106767143Y-123769523D01*
X106767143Y-123769523D02*
X106815524Y-123864761D01*
X106815524Y-123864761D02*
X106815524Y-124055237D01*
X106815524Y-124055237D02*
X106863905Y-124150475D01*
X106863905Y-124150475D02*
X106912286Y-124198094D01*
X106912286Y-124198094D02*
X107009048Y-124245713D01*
X107009048Y-124245713D02*
X107202572Y-124245713D01*
X107202572Y-124245713D02*
X107299334Y-124198094D01*
X107299334Y-124198094D02*
X107347715Y-124150475D01*
X107347715Y-124150475D02*
X107396095Y-124055237D01*
X107396095Y-124055237D02*
X107396095Y-123864761D01*
X107396095Y-123864761D02*
X107347715Y-123769523D01*
X107347715Y-123769523D02*
X107299334Y-123721904D01*
X107299334Y-123721904D02*
X107202572Y-123674285D01*
X107202572Y-123674285D02*
X107009048Y-123674285D01*
X107009048Y-123674285D02*
X106912286Y-123721904D01*
X106912286Y-123721904D02*
X106863905Y-123769523D01*
X106863905Y-123769523D02*
X106815524Y-123864761D01*
D11*
X90814000Y-106521000D02*
X91854000Y-106521000D01*
X93874000Y-106521000D02*
X92834000Y-106521000D01*
X90814000Y-105061000D02*
X90814000Y-106521000D01*
X91884000Y-105061000D02*
X92804000Y-105061000D01*
X93874000Y-105061000D02*
X93874000Y-106521000D01*
X94503600Y-96367400D02*
X94503600Y-97077400D01*
X93503600Y-96367400D02*
X94503600Y-96367400D01*
X93503600Y-97077400D02*
X93503600Y-96367400D01*
X93503600Y-97537400D02*
X93503600Y-98247400D01*
X94503600Y-98247400D02*
X94503600Y-97537400D01*
X93503600Y-98247400D02*
X94503600Y-98247400D01*
D13*
X82145600Y-105793000D02*
X76115600Y-105793000D01*
X82145600Y-99693000D02*
X82145600Y-105793000D01*
X76115600Y-105793000D02*
X76115600Y-99693000D01*
X76115600Y-99693000D02*
X82145600Y-99693000D01*
X81695600Y-104843000D02*
G75*
G03*
X81695600Y-104843000I-460000J0D01*
G01*
X81695600Y-100603000D02*
G75*
G03*
X81695600Y-100603000I-460000J0D01*
G01*
X80625600Y-102743000D02*
G75*
G03*
X80625600Y-102743000I-1530000J0D01*
G01*
X77485600Y-104843000D02*
G75*
G03*
X77485600Y-104843000I-460000J0D01*
G01*
X77395600Y-100563000D02*
G75*
G03*
X77395600Y-100563000I-460000J0D01*
G01*
D11*
X70592200Y-91286000D02*
X71292200Y-91286000D01*
X71442200Y-91436000D02*
X71442200Y-92226000D01*
X70442200Y-92226000D02*
X70442200Y-91436000D01*
X70442200Y-92686000D02*
X70442200Y-93476000D01*
X71442200Y-93476000D02*
X71442200Y-92686000D01*
X70592200Y-93626000D02*
X71292200Y-93626000D01*
X71442200Y-91436000D02*
G75*
G03*
X71292200Y-91286000I-150000J0D01*
G01*
X70592200Y-91286000D02*
G75*
G03*
X70442200Y-91436000I0J-150000D01*
G01*
X71292200Y-93626000D02*
G75*
G03*
X71442200Y-93476000I0J150000D01*
G01*
X70442200Y-93476000D02*
G75*
G03*
X70592200Y-93626000I150000J0D01*
G01*
X67841800Y-107436400D02*
X67841800Y-106736400D01*
X67991800Y-106586400D02*
X68781800Y-106586400D01*
X68781800Y-107586400D02*
X67991800Y-107586400D01*
X69241800Y-107586400D02*
X70031800Y-107586400D01*
X70031800Y-106586400D02*
X69241800Y-106586400D01*
X70181800Y-107436400D02*
X70181800Y-106736400D01*
X67991800Y-106586400D02*
G75*
G03*
X67841800Y-106736400I0J-150000D01*
G01*
X67841800Y-107436400D02*
G75*
G03*
X67991800Y-107586400I150000J0D01*
G01*
X70181800Y-106736400D02*
G75*
G03*
X70031800Y-106586400I-150000J0D01*
G01*
X70031800Y-107586400D02*
G75*
G03*
X70181800Y-107436400I0J150000D01*
G01*
X90136600Y-104688000D02*
X90136600Y-105398000D01*
X89136600Y-104688000D02*
X90136600Y-104688000D01*
X89136600Y-105398000D02*
X89136600Y-104688000D01*
X89136600Y-105858000D02*
X89136600Y-106568000D01*
X90136600Y-106568000D02*
X90136600Y-105858000D01*
X89136600Y-106568000D02*
X90136600Y-106568000D01*
X92940200Y-93122000D02*
X92940200Y-93822000D01*
X92790200Y-93972000D02*
X92000200Y-93972000D01*
X92000200Y-92972000D02*
X92790200Y-92972000D01*
X91540200Y-92972000D02*
X90750200Y-92972000D01*
X90750200Y-93972000D02*
X91540200Y-93972000D01*
X90600200Y-93122000D02*
X90600200Y-93822000D01*
X92790200Y-93972000D02*
G75*
G03*
X92940200Y-93822000I0J150000D01*
G01*
X92940200Y-93122000D02*
G75*
G03*
X92790200Y-92972000I-150000J0D01*
G01*
X90600200Y-93822000D02*
G75*
G03*
X90750200Y-93972000I150000J0D01*
G01*
X90750200Y-92972000D02*
G75*
G03*
X90600200Y-93122000I0J-150000D01*
G01*
X98747200Y-105511400D02*
X98747200Y-106221400D01*
X97747200Y-105511400D02*
X98747200Y-105511400D01*
X97747200Y-106221400D02*
X97747200Y-105511400D01*
X97747200Y-106681400D02*
X97747200Y-107391400D01*
X98747200Y-107391400D02*
X98747200Y-106681400D01*
X97747200Y-107391400D02*
X98747200Y-107391400D01*
X97578800Y-105511400D02*
X97578800Y-106221400D01*
X96578800Y-105511400D02*
X97578800Y-105511400D01*
X96578800Y-106221400D02*
X96578800Y-105511400D01*
X96578800Y-106681400D02*
X96578800Y-107391400D01*
X97578800Y-107391400D02*
X97578800Y-106681400D01*
X96578800Y-107391400D02*
X97578800Y-107391400D01*
X103690800Y-101676400D02*
X103690800Y-100966400D01*
X104690800Y-101676400D02*
X103690800Y-101676400D01*
X104690800Y-100966400D02*
X104690800Y-101676400D01*
X104690800Y-100506400D02*
X104690800Y-99796400D01*
X103690800Y-99796400D02*
X103690800Y-100506400D01*
X104690800Y-99796400D02*
X103690800Y-99796400D01*
X92743400Y-101727200D02*
X92743400Y-101017200D01*
X93743400Y-101727200D02*
X92743400Y-101727200D01*
X93743400Y-101017200D02*
X93743400Y-101727200D01*
X93743400Y-100557200D02*
X93743400Y-99847200D01*
X92743400Y-99847200D02*
X92743400Y-100557200D01*
X93743400Y-99847200D02*
X92743400Y-99847200D01*
D13*
X102732800Y-93111400D02*
X103112800Y-92731400D01*
X102732800Y-94381400D02*
X102732800Y-93111400D01*
X103112800Y-92731400D02*
X104632800Y-92731400D01*
X103142800Y-94791400D02*
X102732800Y-94381400D01*
X104612800Y-94791400D02*
X103142800Y-94791400D01*
X104652800Y-93751400D02*
X104752800Y-93851400D01*
X104752800Y-93651400D02*
X104652800Y-93751400D01*
X104752800Y-93851400D02*
X105152800Y-94251400D01*
X105152800Y-93251400D02*
X104752800Y-93651400D01*
X105152800Y-93251400D02*
X105152800Y-94251400D01*
X105402800Y-94771400D02*
X106952800Y-94771400D01*
X106952800Y-92731400D02*
X105402800Y-92731400D01*
X106952800Y-94771400D02*
X106952800Y-92731400D01*
D11*
X102570800Y-96808400D02*
X103270800Y-96808400D01*
X103420800Y-96958400D02*
X103420800Y-97748400D01*
X102420800Y-97748400D02*
X102420800Y-96958400D01*
X102420800Y-98208400D02*
X102420800Y-98998400D01*
X103420800Y-98998400D02*
X103420800Y-98208400D01*
X102570800Y-99148400D02*
X103270800Y-99148400D01*
X103420800Y-96958400D02*
G75*
G03*
X103270800Y-96808400I-150000J0D01*
G01*
X102570800Y-96808400D02*
G75*
G03*
X102420800Y-96958400I0J-150000D01*
G01*
X103270800Y-99148400D02*
G75*
G03*
X103420800Y-98998400I0J150000D01*
G01*
X102420800Y-98998400D02*
G75*
G03*
X102570800Y-99148400I150000J0D01*
G01*
D14*
X89852452Y-95041493D02*
X89414046Y-95479899D01*
X86811893Y-98082052D02*
X87257370Y-97636575D01*
X90297929Y-95486970D02*
X89852452Y-95041493D01*
X87257370Y-98527529D02*
X86811893Y-98082052D01*
X89414046Y-100684205D02*
X89852452Y-101122611D01*
X92893011Y-98082052D02*
X92454605Y-97643646D01*
X92454605Y-98520458D02*
X92893011Y-98082052D01*
X89852452Y-101122611D02*
X90297929Y-100677134D01*
D15*
X86691685Y-98485103D02*
G75*
G03*
X86691685Y-98485103I0J0D01*
G01*
D11*
X101423800Y-94036400D02*
X101423800Y-94736400D01*
X101273800Y-94886400D02*
X100483800Y-94886400D01*
X100483800Y-93886400D02*
X101273800Y-93886400D01*
X100023800Y-93886400D02*
X99233800Y-93886400D01*
X99233800Y-94886400D02*
X100023800Y-94886400D01*
X99083800Y-94036400D02*
X99083800Y-94736400D01*
X101273800Y-94886400D02*
G75*
G03*
X101423800Y-94736400I0J150000D01*
G01*
X101423800Y-94036400D02*
G75*
G03*
X101273800Y-93886400I-150000J0D01*
G01*
X99083800Y-94736400D02*
G75*
G03*
X99233800Y-94886400I150000J0D01*
G01*
X99233800Y-93886400D02*
G75*
G03*
X99083800Y-94036400I0J-150000D01*
G01*
X94897400Y-104423800D02*
X95597400Y-104423800D01*
X95747400Y-104573800D02*
X95747400Y-105363800D01*
X94747400Y-105363800D02*
X94747400Y-104573800D01*
X94747400Y-105823800D02*
X94747400Y-106613800D01*
X95747400Y-106613800D02*
X95747400Y-105823800D01*
X94897400Y-106763800D02*
X95597400Y-106763800D01*
X95747400Y-104573800D02*
G75*
G03*
X95597400Y-104423800I-150000J0D01*
G01*
X94897400Y-104423800D02*
G75*
G03*
X94747400Y-104573800I0J-150000D01*
G01*
X95597400Y-106763800D02*
G75*
G03*
X95747400Y-106613800I0J150000D01*
G01*
X94747400Y-106613800D02*
G75*
G03*
X94897400Y-106763800I150000J0D01*
G01*
X73067800Y-102133200D02*
X73067800Y-102843200D01*
X72067800Y-102133200D02*
X73067800Y-102133200D01*
X72067800Y-102843200D02*
X72067800Y-102133200D01*
X72067800Y-103303200D02*
X72067800Y-104013200D01*
X73067800Y-104013200D02*
X73067800Y-103303200D01*
X72067800Y-104013200D02*
X73067800Y-104013200D01*
X88085600Y-93822000D02*
X88085600Y-93122000D01*
X88235600Y-92972000D02*
X89025600Y-92972000D01*
X89025600Y-93972000D02*
X88235600Y-93972000D01*
X89485600Y-93972000D02*
X90275600Y-93972000D01*
X90275600Y-92972000D02*
X89485600Y-92972000D01*
X90425600Y-93822000D02*
X90425600Y-93122000D01*
X88235600Y-92972000D02*
G75*
G03*
X88085600Y-93122000I0J-150000D01*
G01*
X88085600Y-93822000D02*
G75*
G03*
X88235600Y-93972000I150000J0D01*
G01*
X90425600Y-93122000D02*
G75*
G03*
X90275600Y-92972000I-150000J0D01*
G01*
X90275600Y-93972000D02*
G75*
G03*
X90425600Y-93822000I0J150000D01*
G01*
X91575000Y-101752600D02*
X91575000Y-101042600D01*
X92575000Y-101752600D02*
X91575000Y-101752600D01*
X92575000Y-101042600D02*
X92575000Y-101752600D01*
X92575000Y-100582600D02*
X92575000Y-99872600D01*
X91575000Y-99872600D02*
X91575000Y-100582600D01*
X92575000Y-99872600D02*
X91575000Y-99872600D01*
D13*
X102809000Y-103957200D02*
X103189000Y-103577200D01*
X102809000Y-105227200D02*
X102809000Y-103957200D01*
X103189000Y-103577200D02*
X104709000Y-103577200D01*
X103219000Y-105637200D02*
X102809000Y-105227200D01*
X104689000Y-105637200D02*
X103219000Y-105637200D01*
X104729000Y-104597200D02*
X104829000Y-104697200D01*
X104829000Y-104497200D02*
X104729000Y-104597200D01*
X104829000Y-104697200D02*
X105229000Y-105097200D01*
X105229000Y-104097200D02*
X104829000Y-104497200D01*
X105229000Y-104097200D02*
X105229000Y-105097200D01*
X105479000Y-105617200D02*
X107029000Y-105617200D01*
X107029000Y-103577200D02*
X105479000Y-103577200D01*
X107029000Y-105617200D02*
X107029000Y-103577200D01*
D11*
X73575800Y-94183000D02*
X73575800Y-94893000D01*
X72575800Y-94183000D02*
X73575800Y-94183000D01*
X72575800Y-94893000D02*
X72575800Y-94183000D01*
X72575800Y-95353000D02*
X72575800Y-96063000D01*
X73575800Y-96063000D02*
X73575800Y-95353000D01*
X72575800Y-96063000D02*
X73575800Y-96063000D01*
X107777800Y-96222400D02*
X108477800Y-96222400D01*
X108627800Y-96372400D02*
X108627800Y-97162400D01*
X107627800Y-97162400D02*
X107627800Y-96372400D01*
X107627800Y-97622400D02*
X107627800Y-98412400D01*
X108627800Y-98412400D02*
X108627800Y-97622400D01*
X107777800Y-98562400D02*
X108477800Y-98562400D01*
X108627800Y-96372400D02*
G75*
G03*
X108477800Y-96222400I-150000J0D01*
G01*
X107777800Y-96222400D02*
G75*
G03*
X107627800Y-96372400I0J-150000D01*
G01*
X108477800Y-98562400D02*
G75*
G03*
X108627800Y-98412400I0J150000D01*
G01*
X107627800Y-98412400D02*
G75*
G03*
X107777800Y-98562400I150000J0D01*
G01*
D13*
X111394800Y-90229400D02*
X110554800Y-90229400D01*
X110554800Y-108249400D02*
X111394800Y-108249400D01*
X110554800Y-105629400D02*
X110554800Y-108249400D01*
X110554800Y-90229400D02*
X110554800Y-92829400D01*
D11*
X85439600Y-106622600D02*
X86479600Y-106622600D01*
X88499600Y-106622600D02*
X87459600Y-106622600D01*
X85439600Y-105162600D02*
X85439600Y-106622600D01*
X86509600Y-105162600D02*
X87429600Y-105162600D01*
X88499600Y-105162600D02*
X88499600Y-106622600D01*
X85871800Y-100141400D02*
X85171800Y-100141400D01*
X85021800Y-99991400D02*
X85021800Y-99201400D01*
X86021800Y-99201400D02*
X86021800Y-99991400D01*
X86021800Y-98741400D02*
X86021800Y-97951400D01*
X85021800Y-97951400D02*
X85021800Y-98741400D01*
X85871800Y-97801400D02*
X85171800Y-97801400D01*
X85021800Y-99991400D02*
G75*
G03*
X85171800Y-100141400I150000J0D01*
G01*
X85871800Y-100141400D02*
G75*
G03*
X86021800Y-99991400I0J150000D01*
G01*
X85171800Y-97801400D02*
G75*
G03*
X85021800Y-97951400I0J-150000D01*
G01*
X86021800Y-97951400D02*
G75*
G03*
X85871800Y-97801400I-150000J0D01*
G01*
X77264800Y-106840400D02*
X77974800Y-106840400D01*
X77264800Y-107840400D02*
X77264800Y-106840400D01*
X77974800Y-107840400D02*
X77264800Y-107840400D01*
X78434800Y-107840400D02*
X79144800Y-107840400D01*
X79144800Y-106840400D02*
X78434800Y-106840400D01*
X79144800Y-107840400D02*
X79144800Y-106840400D01*
X95933400Y-103638800D02*
X95223400Y-103638800D01*
X95933400Y-102638800D02*
X95933400Y-103638800D01*
X95223400Y-102638800D02*
X95933400Y-102638800D01*
X94763400Y-102638800D02*
X94053400Y-102638800D01*
X94053400Y-103638800D02*
X94763400Y-103638800D01*
X94053400Y-102638800D02*
X94053400Y-103638800D01*
X74880800Y-106840400D02*
X75590800Y-106840400D01*
X74880800Y-107840400D02*
X74880800Y-106840400D01*
X75590800Y-107840400D02*
X74880800Y-107840400D01*
X76050800Y-107840400D02*
X76760800Y-107840400D01*
X76760800Y-106840400D02*
X76050800Y-106840400D01*
X76760800Y-107840400D02*
X76760800Y-106840400D01*
D16*
X71966200Y-101437200D02*
X71966200Y-100137200D01*
X72966200Y-101437200D02*
X72966200Y-100137200D01*
D17*
X72236200Y-100787200D02*
X72716200Y-100787200D01*
D11*
X64412800Y-91688400D02*
X64412800Y-90988400D01*
X64562800Y-90838400D02*
X65352800Y-90838400D01*
X65352800Y-91838400D02*
X64562800Y-91838400D01*
X65812800Y-91838400D02*
X66602800Y-91838400D01*
X66602800Y-90838400D02*
X65812800Y-90838400D01*
X66752800Y-91688400D02*
X66752800Y-90988400D01*
X64562800Y-90838400D02*
G75*
G03*
X64412800Y-90988400I0J-150000D01*
G01*
X64412800Y-91688400D02*
G75*
G03*
X64562800Y-91838400I150000J0D01*
G01*
X66752800Y-90988400D02*
G75*
G03*
X66602800Y-90838400I-150000J0D01*
G01*
X66602800Y-91838400D02*
G75*
G03*
X66752800Y-91688400I0J150000D01*
G01*
D13*
X76080000Y-92540800D02*
X82110000Y-92540800D01*
X76080000Y-98640800D02*
X76080000Y-92540800D01*
X82110000Y-92540800D02*
X82110000Y-98640800D01*
X82110000Y-98640800D02*
X76080000Y-98640800D01*
X77450000Y-93490800D02*
G75*
G03*
X77450000Y-93490800I-460000J0D01*
G01*
X77450000Y-97730800D02*
G75*
G03*
X77450000Y-97730800I-460000J0D01*
G01*
X80660000Y-95590800D02*
G75*
G03*
X80660000Y-95590800I-1530000J0D01*
G01*
X81660000Y-93490800D02*
G75*
G03*
X81660000Y-93490800I-460000J0D01*
G01*
X81750000Y-97770800D02*
G75*
G03*
X81750000Y-97770800I-460000J0D01*
G01*
D11*
X108350800Y-94032400D02*
X107650800Y-94032400D01*
X107500800Y-93882400D02*
X107500800Y-93092400D01*
X108500800Y-93092400D02*
X108500800Y-93882400D01*
X108500800Y-92632400D02*
X108500800Y-91842400D01*
X107500800Y-91842400D02*
X107500800Y-92632400D01*
X108350800Y-91692400D02*
X107650800Y-91692400D01*
X107500800Y-93882400D02*
G75*
G03*
X107650800Y-94032400I150000J0D01*
G01*
X108350800Y-94032400D02*
G75*
G03*
X108500800Y-93882400I0J150000D01*
G01*
X107650800Y-91692400D02*
G75*
G03*
X107500800Y-91842400I0J-150000D01*
G01*
X108500800Y-91842400D02*
G75*
G03*
X108350800Y-91692400I-150000J0D01*
G01*
D16*
X72610600Y-91526600D02*
X72610600Y-92826600D01*
X71610600Y-91526600D02*
X71610600Y-92826600D01*
D17*
X72340600Y-92176600D02*
X71860600Y-92176600D01*
D11*
X85171800Y-95261400D02*
X85871800Y-95261400D01*
X86021800Y-95411400D02*
X86021800Y-96201400D01*
X85021800Y-96201400D02*
X85021800Y-95411400D01*
X85021800Y-96661400D02*
X85021800Y-97451400D01*
X86021800Y-97451400D02*
X86021800Y-96661400D01*
X85171800Y-97601400D02*
X85871800Y-97601400D01*
X86021800Y-95411400D02*
G75*
G03*
X85871800Y-95261400I-150000J0D01*
G01*
X85171800Y-95261400D02*
G75*
G03*
X85021800Y-95411400I0J-150000D01*
G01*
X85871800Y-97601400D02*
G75*
G03*
X86021800Y-97451400I0J150000D01*
G01*
X85021800Y-97451400D02*
G75*
G03*
X85171800Y-97601400I150000J0D01*
G01*
X91894400Y-102638800D02*
X92604400Y-102638800D01*
X91894400Y-103638800D02*
X91894400Y-102638800D01*
X92604400Y-103638800D02*
X91894400Y-103638800D01*
X93064400Y-103638800D02*
X93774400Y-103638800D01*
X93774400Y-102638800D02*
X93064400Y-102638800D01*
X93774400Y-103638800D02*
X93774400Y-102638800D01*
X64412800Y-107436400D02*
X64412800Y-106736400D01*
X64562800Y-106586400D02*
X65352800Y-106586400D01*
X65352800Y-107586400D02*
X64562800Y-107586400D01*
X65812800Y-107586400D02*
X66602800Y-107586400D01*
X66602800Y-106586400D02*
X65812800Y-106586400D01*
X66752800Y-107436400D02*
X66752800Y-106736400D01*
X64562800Y-106586400D02*
G75*
G03*
X64412800Y-106736400I0J-150000D01*
G01*
X64412800Y-107436400D02*
G75*
G03*
X64562800Y-107586400I150000J0D01*
G01*
X66752800Y-106736400D02*
G75*
G03*
X66602800Y-106586400I-150000J0D01*
G01*
X66602800Y-107586400D02*
G75*
G03*
X66752800Y-107436400I0J150000D01*
G01*
X95399800Y-101979400D02*
X95399800Y-99239400D01*
X102059800Y-101979400D02*
X95399800Y-101979400D01*
X95399800Y-99239400D02*
X102059800Y-99239400D01*
X102059800Y-99239400D02*
X102059800Y-101979400D01*
X104897800Y-101486400D02*
X104897800Y-99986400D01*
X105047800Y-99836400D02*
X106457800Y-99836400D01*
X106457800Y-101636400D02*
X105047800Y-101636400D01*
X107257800Y-101636400D02*
X108667800Y-101636400D01*
X108667800Y-99836400D02*
X107257800Y-99836400D01*
X108817800Y-101486400D02*
X108817800Y-99986400D01*
X105047800Y-99836400D02*
G75*
G03*
X104897800Y-99986400I0J-150000D01*
G01*
X104897800Y-101486400D02*
G75*
G03*
X105047800Y-101636400I150000J0D01*
G01*
X108817800Y-99986400D02*
G75*
G03*
X108667800Y-99836400I-150000J0D01*
G01*
X108667800Y-101636400D02*
G75*
G03*
X108817800Y-101486400I0J150000D01*
G01*
D13*
X94323800Y-92217400D02*
X94323800Y-94217400D01*
X94323800Y-92217400D02*
X94563800Y-92217400D01*
X94323800Y-94217400D02*
X95833800Y-94217400D01*
X95783800Y-92217400D02*
X97103800Y-92217400D01*
X98323800Y-92217400D02*
X98563800Y-92217400D01*
X98563800Y-94217400D02*
X97053800Y-94217400D01*
X98563800Y-94217400D02*
X98563800Y-92217400D01*
X94413800Y-91697400D02*
G75*
G03*
X94413800Y-91697400I-130000J0D01*
G01*
D16*
X72966200Y-97089200D02*
X72966200Y-98389200D01*
X71966200Y-97089200D02*
X71966200Y-98389200D01*
D17*
X72696200Y-97739200D02*
X72216200Y-97739200D01*
D11*
X104817800Y-97002400D02*
X104817800Y-97712400D01*
X103817800Y-97002400D02*
X104817800Y-97002400D01*
X103817800Y-97712400D02*
X103817800Y-97002400D01*
X103817800Y-98172400D02*
X103817800Y-98882400D01*
X104817800Y-98882400D02*
X104817800Y-98172400D01*
X103817800Y-98882400D02*
X104817800Y-98882400D01*
D13*
X66497200Y-94661600D02*
X68367200Y-94661600D01*
X66497200Y-103733600D02*
X68367200Y-103731600D01*
D11*
X91946000Y-120531000D02*
X92656000Y-120531000D01*
X91946000Y-121531000D02*
X91946000Y-120531000D01*
X92656000Y-121531000D02*
X91946000Y-121531000D01*
X93116000Y-121531000D02*
X93826000Y-121531000D01*
X93826000Y-120531000D02*
X93116000Y-120531000D01*
X93826000Y-121531000D02*
X93826000Y-120531000D01*
X91226000Y-128384800D02*
X91226000Y-127634800D01*
X91226000Y-123224800D02*
X91226000Y-123974800D01*
X90476000Y-128384800D02*
X91226000Y-128384800D01*
X90476000Y-123224800D02*
X91226000Y-123224800D01*
X86816000Y-128384800D02*
X86066000Y-128384800D01*
X86816000Y-123224800D02*
X86066000Y-123224800D01*
X86066000Y-128384800D02*
X86066000Y-127634800D01*
X86066000Y-123224800D02*
X86066000Y-123974800D01*
X91846000Y-127304800D02*
G75*
G03*
X91846000Y-127304800I-70000J0D01*
G01*
D16*
X70366000Y-127511000D02*
X70366000Y-126211000D01*
X71366000Y-127511000D02*
X71366000Y-126211000D01*
D17*
X70636000Y-126861000D02*
X71116000Y-126861000D01*
D13*
X75470400Y-119210800D02*
X81500400Y-119210800D01*
X75470400Y-125310800D02*
X75470400Y-119210800D01*
X81500400Y-119210800D02*
X81500400Y-125310800D01*
X81500400Y-125310800D02*
X75470400Y-125310800D01*
X76840400Y-120160800D02*
G75*
G03*
X76840400Y-120160800I-460000J0D01*
G01*
X76840400Y-124400800D02*
G75*
G03*
X76840400Y-124400800I-460000J0D01*
G01*
X80050400Y-122260800D02*
G75*
G03*
X80050400Y-122260800I-1530000J0D01*
G01*
X81050400Y-120160800D02*
G75*
G03*
X81050400Y-120160800I-460000J0D01*
G01*
X81140400Y-124440800D02*
G75*
G03*
X81140400Y-124440800I-460000J0D01*
G01*
D11*
X85851800Y-120531000D02*
X86561800Y-120531000D01*
X85851800Y-121531000D02*
X85851800Y-120531000D01*
X86561800Y-121531000D02*
X85851800Y-121531000D01*
X87021800Y-121531000D02*
X87731800Y-121531000D01*
X87731800Y-120531000D02*
X87021800Y-120531000D01*
X87731800Y-121531000D02*
X87731800Y-120531000D01*
D13*
X94273000Y-118862000D02*
X94273000Y-120862000D01*
X94273000Y-118862000D02*
X94513000Y-118862000D01*
X94273000Y-120862000D02*
X95783000Y-120862000D01*
X95733000Y-118862000D02*
X97053000Y-118862000D01*
X98273000Y-118862000D02*
X98513000Y-118862000D01*
X98513000Y-120862000D02*
X97003000Y-120862000D01*
X98513000Y-120862000D02*
X98513000Y-118862000D01*
X94363000Y-118342000D02*
G75*
G03*
X94363000Y-118342000I-130000J0D01*
G01*
D11*
X91843600Y-129283400D02*
X92553600Y-129283400D01*
X91843600Y-130283400D02*
X91843600Y-129283400D01*
X92553600Y-130283400D02*
X91843600Y-130283400D01*
X93013600Y-130283400D02*
X93723600Y-130283400D01*
X93723600Y-129283400D02*
X93013600Y-129283400D01*
X93723600Y-130283400D02*
X93723600Y-129283400D01*
X108300000Y-120677000D02*
X107600000Y-120677000D01*
X107450000Y-120527000D02*
X107450000Y-119737000D01*
X108450000Y-119737000D02*
X108450000Y-120527000D01*
X108450000Y-119277000D02*
X108450000Y-118487000D01*
X107450000Y-118487000D02*
X107450000Y-119277000D01*
X108300000Y-118337000D02*
X107600000Y-118337000D01*
X107450000Y-120527000D02*
G75*
G03*
X107600000Y-120677000I150000J0D01*
G01*
X108300000Y-120677000D02*
G75*
G03*
X108450000Y-120527000I0J150000D01*
G01*
X107600000Y-118337000D02*
G75*
G03*
X107450000Y-118487000I0J-150000D01*
G01*
X108450000Y-118487000D02*
G75*
G03*
X108300000Y-118337000I-150000J0D01*
G01*
X64362000Y-134081000D02*
X64362000Y-133381000D01*
X64512000Y-133231000D02*
X65302000Y-133231000D01*
X65302000Y-134231000D02*
X64512000Y-134231000D01*
X65762000Y-134231000D02*
X66552000Y-134231000D01*
X66552000Y-133231000D02*
X65762000Y-133231000D01*
X66702000Y-134081000D02*
X66702000Y-133381000D01*
X64512000Y-133231000D02*
G75*
G03*
X64362000Y-133381000I0J-150000D01*
G01*
X64362000Y-134081000D02*
G75*
G03*
X64512000Y-134231000I150000J0D01*
G01*
X66702000Y-133381000D02*
G75*
G03*
X66552000Y-133231000I-150000J0D01*
G01*
X66552000Y-134231000D02*
G75*
G03*
X66702000Y-134081000I0J150000D01*
G01*
X104767000Y-123647000D02*
X104767000Y-124357000D01*
X103767000Y-123647000D02*
X104767000Y-123647000D01*
X103767000Y-124357000D02*
X103767000Y-123647000D01*
X103767000Y-124817000D02*
X103767000Y-125527000D01*
X104767000Y-125527000D02*
X104767000Y-124817000D01*
X103767000Y-125527000D02*
X104767000Y-125527000D01*
X98696400Y-132156000D02*
X98696400Y-132866000D01*
X97696400Y-132156000D02*
X98696400Y-132156000D01*
X97696400Y-132866000D02*
X97696400Y-132156000D01*
X97696400Y-133326000D02*
X97696400Y-134036000D01*
X98696400Y-134036000D02*
X98696400Y-133326000D01*
X97696400Y-134036000D02*
X98696400Y-134036000D01*
X85030600Y-133307400D02*
X86070600Y-133307400D01*
X88090600Y-133307400D02*
X87050600Y-133307400D01*
X85030600Y-131847400D02*
X85030600Y-133307400D01*
X86100600Y-131847400D02*
X87020600Y-131847400D01*
X88090600Y-131847400D02*
X88090600Y-133307400D01*
X95882600Y-130283400D02*
X95172600Y-130283400D01*
X95882600Y-129283400D02*
X95882600Y-130283400D01*
X95172600Y-129283400D02*
X95882600Y-129283400D01*
X94712600Y-129283400D02*
X94002600Y-129283400D01*
X94002600Y-130283400D02*
X94712600Y-130283400D01*
X94002600Y-129283400D02*
X94002600Y-130283400D01*
X67791000Y-134081000D02*
X67791000Y-133381000D01*
X67941000Y-133231000D02*
X68731000Y-133231000D01*
X68731000Y-134231000D02*
X67941000Y-134231000D01*
X69191000Y-134231000D02*
X69981000Y-134231000D01*
X69981000Y-133231000D02*
X69191000Y-133231000D01*
X70131000Y-134081000D02*
X70131000Y-133381000D01*
X67941000Y-133231000D02*
G75*
G03*
X67791000Y-133381000I0J-150000D01*
G01*
X67791000Y-134081000D02*
G75*
G03*
X67941000Y-134231000I150000J0D01*
G01*
X70131000Y-133381000D02*
G75*
G03*
X69981000Y-133231000I-150000J0D01*
G01*
X69981000Y-134231000D02*
G75*
G03*
X70131000Y-134081000I0J150000D01*
G01*
X74830000Y-133485000D02*
X75540000Y-133485000D01*
X74830000Y-134485000D02*
X74830000Y-133485000D01*
X75540000Y-134485000D02*
X74830000Y-134485000D01*
X76000000Y-134485000D02*
X76710000Y-134485000D01*
X76710000Y-133485000D02*
X76000000Y-133485000D01*
X76710000Y-134485000D02*
X76710000Y-133485000D01*
X103640000Y-128321000D02*
X103640000Y-127611000D01*
X104640000Y-128321000D02*
X103640000Y-128321000D01*
X104640000Y-127611000D02*
X104640000Y-128321000D01*
X104640000Y-127151000D02*
X104640000Y-126441000D01*
X103640000Y-126441000D02*
X103640000Y-127151000D01*
X104640000Y-126441000D02*
X103640000Y-126441000D01*
D16*
X70858000Y-120593000D02*
X70858000Y-121893000D01*
X69858000Y-120593000D02*
X69858000Y-121893000D01*
D17*
X70588000Y-121243000D02*
X70108000Y-121243000D01*
D11*
X102520000Y-123453000D02*
X103220000Y-123453000D01*
X103370000Y-123603000D02*
X103370000Y-124393000D01*
X102370000Y-124393000D02*
X102370000Y-123603000D01*
X102370000Y-124853000D02*
X102370000Y-125643000D01*
X103370000Y-125643000D02*
X103370000Y-124853000D01*
X102520000Y-125793000D02*
X103220000Y-125793000D01*
X103370000Y-123603000D02*
G75*
G03*
X103220000Y-123453000I-150000J0D01*
G01*
X102520000Y-123453000D02*
G75*
G03*
X102370000Y-123603000I0J-150000D01*
G01*
X103220000Y-125793000D02*
G75*
G03*
X103370000Y-125643000I0J150000D01*
G01*
X102370000Y-125643000D02*
G75*
G03*
X102520000Y-125793000I150000J0D01*
G01*
D13*
X102758200Y-130601800D02*
X103138200Y-130221800D01*
X102758200Y-131871800D02*
X102758200Y-130601800D01*
X103138200Y-130221800D02*
X104658200Y-130221800D01*
X103168200Y-132281800D02*
X102758200Y-131871800D01*
X104638200Y-132281800D02*
X103168200Y-132281800D01*
X104678200Y-131241800D02*
X104778200Y-131341800D01*
X104778200Y-131141800D02*
X104678200Y-131241800D01*
X104778200Y-131341800D02*
X105178200Y-131741800D01*
X105178200Y-130741800D02*
X104778200Y-131141800D01*
X105178200Y-130741800D02*
X105178200Y-131741800D01*
X105428200Y-132261800D02*
X106978200Y-132261800D01*
X106978200Y-130221800D02*
X105428200Y-130221800D01*
X106978200Y-132261800D02*
X106978200Y-130221800D01*
X81536000Y-132463000D02*
X75506000Y-132463000D01*
X81536000Y-126363000D02*
X81536000Y-132463000D01*
X75506000Y-132463000D02*
X75506000Y-126363000D01*
X75506000Y-126363000D02*
X81536000Y-126363000D01*
X81086000Y-131513000D02*
G75*
G03*
X81086000Y-131513000I-460000J0D01*
G01*
X81086000Y-127273000D02*
G75*
G03*
X81086000Y-127273000I-460000J0D01*
G01*
X80016000Y-129413000D02*
G75*
G03*
X80016000Y-129413000I-1530000J0D01*
G01*
X76876000Y-131513000D02*
G75*
G03*
X76876000Y-131513000I-460000J0D01*
G01*
X76786000Y-127233000D02*
G75*
G03*
X76786000Y-127233000I-460000J0D01*
G01*
D11*
X104847000Y-128131000D02*
X104847000Y-126631000D01*
X104997000Y-126481000D02*
X106407000Y-126481000D01*
X106407000Y-128281000D02*
X104997000Y-128281000D01*
X107207000Y-128281000D02*
X108617000Y-128281000D01*
X108617000Y-126481000D02*
X107207000Y-126481000D01*
X108767000Y-128131000D02*
X108767000Y-126631000D01*
X104997000Y-126481000D02*
G75*
G03*
X104847000Y-126631000I0J-150000D01*
G01*
X104847000Y-128131000D02*
G75*
G03*
X104997000Y-128281000I150000J0D01*
G01*
X108767000Y-126631000D02*
G75*
G03*
X108617000Y-126481000I-150000J0D01*
G01*
X108617000Y-128281000D02*
G75*
G03*
X108767000Y-128131000I0J150000D01*
G01*
X94846600Y-131068400D02*
X95546600Y-131068400D01*
X95696600Y-131218400D02*
X95696600Y-132008400D01*
X94696600Y-132008400D02*
X94696600Y-131218400D01*
X94696600Y-132468400D02*
X94696600Y-133258400D01*
X95696600Y-133258400D02*
X95696600Y-132468400D01*
X94846600Y-133408400D02*
X95546600Y-133408400D01*
X95696600Y-131218400D02*
G75*
G03*
X95546600Y-131068400I-150000J0D01*
G01*
X94846600Y-131068400D02*
G75*
G03*
X94696600Y-131218400I0J-150000D01*
G01*
X95546600Y-133408400D02*
G75*
G03*
X95696600Y-133258400I0J150000D01*
G01*
X94696600Y-133258400D02*
G75*
G03*
X94846600Y-133408400I150000J0D01*
G01*
X87882000Y-120531000D02*
X88592000Y-120531000D01*
X87882000Y-121531000D02*
X87882000Y-120531000D01*
X88592000Y-121531000D02*
X87882000Y-121531000D01*
X89052000Y-121531000D02*
X89762000Y-121531000D01*
X89762000Y-120531000D02*
X89052000Y-120531000D01*
X89762000Y-121531000D02*
X89762000Y-120531000D01*
X95349000Y-128624000D02*
X95349000Y-125884000D01*
X102009000Y-128624000D02*
X95349000Y-128624000D01*
X95349000Y-125884000D02*
X102009000Y-125884000D01*
X102009000Y-125884000D02*
X102009000Y-128624000D01*
X71278000Y-120073000D02*
X71978000Y-120073000D01*
X72128000Y-120223000D02*
X72128000Y-121013000D01*
X71128000Y-121013000D02*
X71128000Y-120223000D01*
X71128000Y-121473000D02*
X71128000Y-122263000D01*
X72128000Y-122263000D02*
X72128000Y-121473000D01*
X71278000Y-122413000D02*
X71978000Y-122413000D01*
X72128000Y-120223000D02*
G75*
G03*
X71978000Y-120073000I-150000J0D01*
G01*
X71278000Y-120073000D02*
G75*
G03*
X71128000Y-120223000I0J-150000D01*
G01*
X71978000Y-122413000D02*
G75*
G03*
X72128000Y-122263000I0J150000D01*
G01*
X71128000Y-122263000D02*
G75*
G03*
X71278000Y-122413000I150000J0D01*
G01*
X89914000Y-120531000D02*
X90624000Y-120531000D01*
X89914000Y-121531000D02*
X89914000Y-120531000D01*
X90624000Y-121531000D02*
X89914000Y-121531000D01*
X91084000Y-121531000D02*
X91794000Y-121531000D01*
X91794000Y-120531000D02*
X91084000Y-120531000D01*
X91794000Y-121531000D02*
X91794000Y-120531000D01*
X89905400Y-131332600D02*
X89905400Y-132042600D01*
X88905400Y-131332600D02*
X89905400Y-131332600D01*
X88905400Y-132042600D02*
X88905400Y-131332600D01*
X88905400Y-132502600D02*
X88905400Y-133212600D01*
X89905400Y-133212600D02*
X89905400Y-132502600D01*
X88905400Y-133212600D02*
X89905400Y-133212600D01*
D13*
X67677000Y-122067000D02*
X65957000Y-122067000D01*
X67677000Y-122067000D02*
X67677000Y-122467000D01*
X67677000Y-129667000D02*
X67677000Y-129257000D01*
X67677000Y-129667000D02*
X65947000Y-129667000D01*
D11*
X64362000Y-118333000D02*
X64362000Y-117633000D01*
X64512000Y-117483000D02*
X65302000Y-117483000D01*
X65302000Y-118483000D02*
X64512000Y-118483000D01*
X65762000Y-118483000D02*
X66552000Y-118483000D01*
X66552000Y-117483000D02*
X65762000Y-117483000D01*
X66702000Y-118333000D02*
X66702000Y-117633000D01*
X64512000Y-117483000D02*
G75*
G03*
X64362000Y-117633000I0J-150000D01*
G01*
X64362000Y-118333000D02*
G75*
G03*
X64512000Y-118483000I150000J0D01*
G01*
X66702000Y-117633000D02*
G75*
G03*
X66552000Y-117483000I-150000J0D01*
G01*
X66552000Y-118483000D02*
G75*
G03*
X66702000Y-118333000I0J150000D01*
G01*
X101373000Y-120681000D02*
X101373000Y-121381000D01*
X101223000Y-121531000D02*
X100433000Y-121531000D01*
X100433000Y-120531000D02*
X101223000Y-120531000D01*
X99973000Y-120531000D02*
X99183000Y-120531000D01*
X99183000Y-121531000D02*
X99973000Y-121531000D01*
X99033000Y-120681000D02*
X99033000Y-121381000D01*
X101223000Y-121531000D02*
G75*
G03*
X101373000Y-121381000I0J150000D01*
G01*
X101373000Y-120681000D02*
G75*
G03*
X101223000Y-120531000I-150000J0D01*
G01*
X99033000Y-121381000D02*
G75*
G03*
X99183000Y-121531000I150000J0D01*
G01*
X99183000Y-120531000D02*
G75*
G03*
X99033000Y-120681000I0J-150000D01*
G01*
X97528000Y-132156000D02*
X97528000Y-132866000D01*
X96528000Y-132156000D02*
X97528000Y-132156000D01*
X96528000Y-132866000D02*
X96528000Y-132156000D01*
X96528000Y-133326000D02*
X96528000Y-134036000D01*
X97528000Y-134036000D02*
X97528000Y-133326000D01*
X96528000Y-134036000D02*
X97528000Y-134036000D01*
D16*
X71366000Y-123568000D02*
X71366000Y-124868000D01*
X70366000Y-123568000D02*
X70366000Y-124868000D01*
D17*
X71096000Y-124218000D02*
X70616000Y-124218000D01*
D11*
X90763200Y-133165600D02*
X91803200Y-133165600D01*
X93823200Y-133165600D02*
X92783200Y-133165600D01*
X90763200Y-131705600D02*
X90763200Y-133165600D01*
X91833200Y-131705600D02*
X92753200Y-131705600D01*
X93823200Y-131705600D02*
X93823200Y-133165600D01*
D13*
X102682000Y-119756000D02*
X103062000Y-119376000D01*
X102682000Y-121026000D02*
X102682000Y-119756000D01*
X103062000Y-119376000D02*
X104582000Y-119376000D01*
X103092000Y-121436000D02*
X102682000Y-121026000D01*
X104562000Y-121436000D02*
X103092000Y-121436000D01*
X104602000Y-120396000D02*
X104702000Y-120496000D01*
X104702000Y-120296000D02*
X104602000Y-120396000D01*
X104702000Y-120496000D02*
X105102000Y-120896000D01*
X105102000Y-119896000D02*
X104702000Y-120296000D01*
X105102000Y-119896000D02*
X105102000Y-120896000D01*
X105352000Y-121416000D02*
X106902000Y-121416000D01*
X106902000Y-119376000D02*
X105352000Y-119376000D01*
X106902000Y-121416000D02*
X106902000Y-119376000D01*
X111344000Y-116874000D02*
X110504000Y-116874000D01*
X110504000Y-134894000D02*
X111344000Y-134894000D01*
X110504000Y-132274000D02*
X110504000Y-134894000D01*
X110504000Y-116874000D02*
X110504000Y-119474000D01*
D11*
X77214000Y-133485000D02*
X77924000Y-133485000D01*
X77214000Y-134485000D02*
X77214000Y-133485000D01*
X77924000Y-134485000D02*
X77214000Y-134485000D01*
X78384000Y-134485000D02*
X79094000Y-134485000D01*
X79094000Y-133485000D02*
X78384000Y-133485000D01*
X79094000Y-134485000D02*
X79094000Y-133485000D01*
X93240200Y-124280600D02*
X93940200Y-124280600D01*
X94090200Y-124430600D02*
X94090200Y-125220600D01*
X93090200Y-125220600D02*
X93090200Y-124430600D01*
X93090200Y-125680600D02*
X93090200Y-126470600D01*
X94090200Y-126470600D02*
X94090200Y-125680600D01*
X93240200Y-126620600D02*
X93940200Y-126620600D01*
X94090200Y-124430600D02*
G75*
G03*
X93940200Y-124280600I-150000J0D01*
G01*
X93240200Y-124280600D02*
G75*
G03*
X93090200Y-124430600I0J-150000D01*
G01*
X93940200Y-126620600D02*
G75*
G03*
X94090200Y-126470600I0J150000D01*
G01*
X93090200Y-126470600D02*
G75*
G03*
X93240200Y-126620600I150000J0D01*
G01*
X92928200Y-123387600D02*
X92928200Y-122687600D01*
X93078200Y-122537600D02*
X93868200Y-122537600D01*
X93868200Y-123537600D02*
X93078200Y-123537600D01*
X94328200Y-123537600D02*
X95118200Y-123537600D01*
X95118200Y-122537600D02*
X94328200Y-122537600D01*
X95268200Y-123387600D02*
X95268200Y-122687600D01*
X93078200Y-122537600D02*
G75*
G03*
X92928200Y-122687600I0J-150000D01*
G01*
X92928200Y-123387600D02*
G75*
G03*
X93078200Y-123537600I150000J0D01*
G01*
X95268200Y-122687600D02*
G75*
G03*
X95118200Y-122537600I-150000J0D01*
G01*
X95118200Y-123537600D02*
G75*
G03*
X95268200Y-123387600I0J150000D01*
G01*
X107727000Y-122867000D02*
X108427000Y-122867000D01*
X108577000Y-123017000D02*
X108577000Y-123807000D01*
X107577000Y-123807000D02*
X107577000Y-123017000D01*
X107577000Y-124267000D02*
X107577000Y-125057000D01*
X108577000Y-125057000D02*
X108577000Y-124267000D01*
X107727000Y-125207000D02*
X108427000Y-125207000D01*
X108577000Y-123017000D02*
G75*
G03*
X108427000Y-122867000I-150000J0D01*
G01*
X107727000Y-122867000D02*
G75*
G03*
X107577000Y-123017000I0J-150000D01*
G01*
X108427000Y-125207000D02*
G75*
G03*
X108577000Y-125057000I0J150000D01*
G01*
X107577000Y-125057000D02*
G75*
G03*
X107727000Y-125207000I150000J0D01*
G01*
%LPC*%
D18*
X93324200Y-104648000D03*
D19*
X91363800Y-104673400D03*
D20*
X92346800Y-106908300D03*
D21*
X94003600Y-96877400D03*
X94003600Y-97737400D03*
D22*
X83295600Y-104993000D03*
X74895600Y-104993000D03*
X83295600Y-100493000D03*
X74895600Y-100493000D03*
D23*
X70942200Y-91906000D03*
X70942200Y-93006000D03*
D24*
X68461800Y-107086400D03*
X69561800Y-107086400D03*
D21*
X89636600Y-105198000D03*
X89636600Y-106058000D03*
D24*
X92320200Y-93472000D03*
X91220200Y-93472000D03*
D21*
X98247200Y-106021400D03*
X98247200Y-106881400D03*
X97078800Y-106021400D03*
X97078800Y-106881400D03*
X104190800Y-101166400D03*
X104190800Y-100306400D03*
X93243400Y-101217200D03*
X93243400Y-100357200D03*
D25*
X106002800Y-93751400D03*
X103902800Y-93751400D03*
D23*
X102920800Y-97428400D03*
X102920800Y-98528400D03*
D26*
X87837198Y-98683093D03*
X88190751Y-99036646D03*
X88544304Y-99390200D03*
X88897858Y-99743753D03*
X89251411Y-100097306D03*
D27*
X90453493Y-100097306D03*
X90807046Y-99743753D03*
X91160600Y-99390200D03*
X91514153Y-99036646D03*
X91867706Y-98683093D03*
D26*
X91867706Y-97481011D03*
X91514153Y-97127458D03*
X91160600Y-96773904D03*
X90807046Y-96420351D03*
X90453493Y-96066798D03*
D27*
X89251411Y-96066798D03*
X88897858Y-96420351D03*
X88544304Y-96773904D03*
X88190751Y-97127458D03*
X87837198Y-97481011D03*
D28*
X89852452Y-98082052D03*
D24*
X100803800Y-94386400D03*
X99703800Y-94386400D03*
D23*
X95247400Y-105043800D03*
X95247400Y-106143800D03*
D21*
X72567800Y-102643200D03*
X72567800Y-103503200D03*
D24*
X88705600Y-93472000D03*
X89805600Y-93472000D03*
D21*
X92075000Y-101242600D03*
X92075000Y-100382600D03*
D25*
X106079000Y-104597200D03*
X103979000Y-104597200D03*
D21*
X73075800Y-94693000D03*
X73075800Y-95553000D03*
D23*
X108127800Y-96842400D03*
X108127800Y-97942400D03*
D29*
X65074800Y-89052400D03*
D30*
X67614800Y-89052400D03*
X70154800Y-89052400D03*
X72694800Y-89052400D03*
X75234800Y-89052400D03*
X77774800Y-89052400D03*
X80314800Y-89052400D03*
X82854800Y-89052400D03*
X85394800Y-89052400D03*
X87934800Y-89052400D03*
X90474800Y-89052400D03*
X93014800Y-89052400D03*
X95554800Y-89052400D03*
X98094800Y-89052400D03*
X100634800Y-89052400D03*
X103174800Y-89052400D03*
X105714800Y-89052400D03*
D31*
X128574800Y-90229400D03*
X127304800Y-90229400D03*
X126034800Y-90229400D03*
X124764800Y-90229400D03*
X123494800Y-90229400D03*
X122224800Y-90229400D03*
X120954800Y-90229400D03*
X119684800Y-90229400D03*
X118414800Y-90229400D03*
X117144800Y-90229400D03*
X115874800Y-90229400D03*
X114604800Y-90229400D03*
X113334800Y-90229400D03*
X112064800Y-90229400D03*
D32*
X110574800Y-93519400D03*
X110574800Y-94789400D03*
X110574800Y-96059400D03*
X110574800Y-97329400D03*
X110574800Y-98599400D03*
X110574800Y-99869400D03*
X110574800Y-101139400D03*
X110574800Y-102409400D03*
X110574800Y-103679400D03*
X110574800Y-104949400D03*
D31*
X112064800Y-108229400D03*
X113334800Y-108229400D03*
X114604800Y-108229400D03*
X115874800Y-108229400D03*
X117144800Y-108229400D03*
X118414800Y-108229400D03*
X119684800Y-108229400D03*
X120954800Y-108229400D03*
X122224800Y-108229400D03*
X123494800Y-108229400D03*
X124764800Y-108229400D03*
X126034800Y-108229400D03*
X127304800Y-108229400D03*
X128574800Y-108229400D03*
D33*
X122294800Y-99129400D03*
X122294800Y-97729400D03*
X122294800Y-96329400D03*
X120894800Y-99129400D03*
X120894800Y-97729400D03*
X120894800Y-96329400D03*
X119494800Y-99129400D03*
X119494800Y-97729400D03*
X119494800Y-96329400D03*
D29*
X65074800Y-109372400D03*
D30*
X67614800Y-109372400D03*
X70154800Y-109372400D03*
X72694800Y-109372400D03*
X75234800Y-109372400D03*
X77774800Y-109372400D03*
X80314800Y-109372400D03*
X82854800Y-109372400D03*
X85394800Y-109372400D03*
X87934800Y-109372400D03*
X90474800Y-109372400D03*
X93014800Y-109372400D03*
X95554800Y-109372400D03*
X98094800Y-109372400D03*
X100634800Y-109372400D03*
X103174800Y-109372400D03*
X105714800Y-109372400D03*
D18*
X87949800Y-104749600D03*
D19*
X85989400Y-104775000D03*
D20*
X86972400Y-107009900D03*
D23*
X85521800Y-99521400D03*
X85521800Y-98421400D03*
D34*
X77774800Y-107340400D03*
X78634800Y-107340400D03*
X95423400Y-103138800D03*
X94563400Y-103138800D03*
X75390800Y-107340400D03*
X76250800Y-107340400D03*
D35*
X72466200Y-101537200D03*
X72466200Y-100037200D03*
D24*
X65032800Y-91338400D03*
X66132800Y-91338400D03*
D22*
X74930000Y-93340800D03*
X83330000Y-93340800D03*
X74930000Y-97840800D03*
X83330000Y-97840800D03*
D23*
X108000800Y-93412400D03*
X108000800Y-92312400D03*
D35*
X72110600Y-91426600D03*
X72110600Y-92926600D03*
D23*
X85521800Y-95881400D03*
X85521800Y-96981400D03*
D34*
X92404400Y-103138800D03*
X93264400Y-103138800D03*
D24*
X65032800Y-107086400D03*
X66132800Y-107086400D03*
D36*
X101029800Y-97779400D03*
X98729800Y-97779400D03*
X96429800Y-97779400D03*
D37*
X98729800Y-103439400D03*
D38*
X105857800Y-100736400D03*
X107857800Y-100736400D03*
D39*
X95173800Y-91667400D03*
X96443800Y-94767400D03*
X97713800Y-91667400D03*
D35*
X72466200Y-96989200D03*
X72466200Y-98489200D03*
D21*
X104317800Y-97512400D03*
X104317800Y-98372400D03*
D40*
X70147200Y-95961600D03*
X70147200Y-96761600D03*
D41*
X70147200Y-97411600D03*
X70147200Y-97911600D03*
X70147200Y-98411600D03*
X70147200Y-98911600D03*
X70147200Y-99411600D03*
X70147200Y-99911600D03*
X70147200Y-100411600D03*
X70147200Y-100911600D03*
D40*
X70147200Y-101561600D03*
X70147200Y-102361600D03*
D42*
X69597200Y-94841600D03*
D43*
X65387200Y-94841600D03*
D42*
X69597200Y-103481600D03*
D43*
X65387200Y-103481600D03*
D34*
X92456000Y-121031000D03*
X93316000Y-121031000D03*
D44*
X91026000Y-127304800D03*
X91026000Y-126804800D03*
X91026000Y-126304800D03*
X91026000Y-125804800D03*
X91026000Y-125304800D03*
X91026000Y-124804800D03*
X91026000Y-124304800D03*
D45*
X90146000Y-123424800D03*
X89646000Y-123424800D03*
X89146000Y-123424800D03*
X88646000Y-123424800D03*
X88146000Y-123424800D03*
X87646000Y-123424800D03*
X87146000Y-123424800D03*
D44*
X86266000Y-124304800D03*
X86266000Y-124804800D03*
X86266000Y-125304800D03*
X86266000Y-125804800D03*
X86266000Y-126304800D03*
X86266000Y-126804800D03*
X86266000Y-127304800D03*
D45*
X87146000Y-128184800D03*
X87646000Y-128184800D03*
X88146000Y-128184800D03*
X88646000Y-128184800D03*
X89146000Y-128184800D03*
X89646000Y-128184800D03*
X90146000Y-128184800D03*
D46*
X88646000Y-125804800D03*
D35*
X70866000Y-127611000D03*
X70866000Y-126111000D03*
D22*
X74320400Y-120010800D03*
X82720400Y-120010800D03*
X74320400Y-124510800D03*
X82720400Y-124510800D03*
D34*
X86361800Y-121031000D03*
X87221800Y-121031000D03*
D39*
X95123000Y-118312000D03*
X96393000Y-121412000D03*
X97663000Y-118312000D03*
D34*
X92353600Y-129783400D03*
X93213600Y-129783400D03*
D23*
X107950000Y-120057000D03*
X107950000Y-118957000D03*
D24*
X64982000Y-133731000D03*
X66082000Y-133731000D03*
D21*
X104267000Y-124157000D03*
X104267000Y-125017000D03*
X98196400Y-132666000D03*
X98196400Y-133526000D03*
D18*
X87540800Y-131434400D03*
D19*
X85580400Y-131459800D03*
D20*
X86563400Y-133694700D03*
D34*
X95372600Y-129783400D03*
X94512600Y-129783400D03*
D24*
X68411000Y-133731000D03*
X69511000Y-133731000D03*
D34*
X75340000Y-133985000D03*
X76200000Y-133985000D03*
D21*
X104140000Y-127811000D03*
X104140000Y-126951000D03*
D35*
X70358000Y-120493000D03*
X70358000Y-121993000D03*
D23*
X102870000Y-124073000D03*
X102870000Y-125173000D03*
D25*
X106028200Y-131241800D03*
X103928200Y-131241800D03*
D22*
X82686000Y-131663000D03*
X74286000Y-131663000D03*
X82686000Y-127163000D03*
X74286000Y-127163000D03*
D38*
X105807000Y-127381000D03*
X107807000Y-127381000D03*
D23*
X95196600Y-131688400D03*
X95196600Y-132788400D03*
D34*
X88392000Y-121031000D03*
X89252000Y-121031000D03*
D36*
X100979000Y-124424000D03*
X98679000Y-124424000D03*
X96379000Y-124424000D03*
D37*
X98679000Y-130084000D03*
D23*
X71628000Y-120693000D03*
X71628000Y-121793000D03*
D34*
X90424000Y-121031000D03*
X91284000Y-121031000D03*
D21*
X89405400Y-131842600D03*
X89405400Y-132702600D03*
D47*
X67507000Y-124557000D03*
X67507000Y-125207000D03*
X67507000Y-125857000D03*
X67507000Y-126507000D03*
X67507000Y-127157000D03*
D48*
X67527000Y-123357000D03*
X67527000Y-128357000D03*
D49*
X64827000Y-129357000D03*
X64827000Y-122357000D03*
D50*
X64897000Y-124857000D03*
X64897000Y-126857000D03*
D24*
X64982000Y-117983000D03*
X66082000Y-117983000D03*
X100753000Y-121031000D03*
X99653000Y-121031000D03*
D21*
X97028000Y-132666000D03*
X97028000Y-133526000D03*
D35*
X70866000Y-123468000D03*
X70866000Y-124968000D03*
D18*
X93273400Y-131292600D03*
D19*
X91313000Y-131318000D03*
D20*
X92296000Y-133552900D03*
D25*
X105952000Y-120396000D03*
X103852000Y-120396000D03*
D31*
X128524000Y-116874000D03*
X127254000Y-116874000D03*
X125984000Y-116874000D03*
X124714000Y-116874000D03*
X123444000Y-116874000D03*
X122174000Y-116874000D03*
X120904000Y-116874000D03*
X119634000Y-116874000D03*
X118364000Y-116874000D03*
X117094000Y-116874000D03*
X115824000Y-116874000D03*
X114554000Y-116874000D03*
X113284000Y-116874000D03*
X112014000Y-116874000D03*
D32*
X110524000Y-120164000D03*
X110524000Y-121434000D03*
X110524000Y-122704000D03*
X110524000Y-123974000D03*
X110524000Y-125244000D03*
X110524000Y-126514000D03*
X110524000Y-127784000D03*
X110524000Y-129054000D03*
X110524000Y-130324000D03*
X110524000Y-131594000D03*
D31*
X112014000Y-134874000D03*
X113284000Y-134874000D03*
X114554000Y-134874000D03*
X115824000Y-134874000D03*
X117094000Y-134874000D03*
X118364000Y-134874000D03*
X119634000Y-134874000D03*
X120904000Y-134874000D03*
X122174000Y-134874000D03*
X123444000Y-134874000D03*
X124714000Y-134874000D03*
X125984000Y-134874000D03*
X127254000Y-134874000D03*
X128524000Y-134874000D03*
D33*
X122244000Y-125774000D03*
X122244000Y-124374000D03*
X122244000Y-122974000D03*
X120844000Y-125774000D03*
X120844000Y-124374000D03*
X120844000Y-122974000D03*
X119444000Y-125774000D03*
X119444000Y-124374000D03*
X119444000Y-122974000D03*
D34*
X77724000Y-133985000D03*
X78584000Y-133985000D03*
D23*
X93590200Y-124900600D03*
X93590200Y-126000600D03*
D24*
X93548200Y-123037600D03*
X94648200Y-123037600D03*
D23*
X108077000Y-123487000D03*
X108077000Y-124587000D03*
D29*
X65024000Y-115697000D03*
D30*
X67564000Y-115697000D03*
X70104000Y-115697000D03*
X72644000Y-115697000D03*
X75184000Y-115697000D03*
X77724000Y-115697000D03*
X80264000Y-115697000D03*
X82804000Y-115697000D03*
X85344000Y-115697000D03*
X87884000Y-115697000D03*
X90424000Y-115697000D03*
X92964000Y-115697000D03*
X95504000Y-115697000D03*
X98044000Y-115697000D03*
X100584000Y-115697000D03*
X103124000Y-115697000D03*
X105664000Y-115697000D03*
D29*
X65024000Y-136017000D03*
D30*
X67564000Y-136017000D03*
X70104000Y-136017000D03*
X72644000Y-136017000D03*
X75184000Y-136017000D03*
X77724000Y-136017000D03*
X80264000Y-136017000D03*
X82804000Y-136017000D03*
X85344000Y-136017000D03*
X87884000Y-136017000D03*
X90424000Y-136017000D03*
X92964000Y-136017000D03*
X95504000Y-136017000D03*
X98044000Y-136017000D03*
X100584000Y-136017000D03*
X103124000Y-136017000D03*
X105664000Y-136017000D03*
%LPD*%
M02*
