G04 #@! TF.GenerationSoftware,KiCad,Pcbnew,7.0.9*
G04 #@! TF.CreationDate,2024-10-07T22:18:26-04:00*
G04 #@! TF.ProjectId,ESP32_VP,45535033-325f-4565-902e-6b696361645f,rev?*
G04 #@! TF.SameCoordinates,Original*
G04 #@! TF.FileFunction,Soldermask,Bot*
G04 #@! TF.FilePolarity,Negative*
%FSLAX46Y46*%
G04 Gerber Fmt 4.6, Leading zero omitted, Abs format (unit mm)*
G04 Created by KiCad (PCBNEW 7.0.9) date 2024-10-07 22:18:26*
%MOMM*%
%LPD*%
G01*
G04 APERTURE LIST*
G04 Aperture macros list*
%AMFreePoly0*
4,1,19,0.500000,-0.750000,0.000000,-0.750000,0.000000,-0.744911,-0.071157,-0.744911,-0.207708,-0.704816,-0.327430,-0.627875,-0.420627,-0.520320,-0.479746,-0.390866,-0.500000,-0.250000,-0.500000,0.250000,-0.479746,0.390866,-0.420627,0.520320,-0.327430,0.627875,-0.207708,0.704816,-0.071157,0.744911,0.000000,0.744911,0.000000,0.750000,0.500000,0.750000,0.500000,-0.750000,0.500000,-0.750000,
$1*%
%AMFreePoly1*
4,1,19,0.000000,0.744911,0.071157,0.744911,0.207708,0.704816,0.327430,0.627875,0.420627,0.520320,0.479746,0.390866,0.500000,0.250000,0.500000,-0.250000,0.479746,-0.390866,0.420627,-0.520320,0.327430,-0.627875,0.207708,-0.704816,0.071157,-0.744911,0.000000,-0.744911,0.000000,-0.750000,-0.500000,-0.750000,-0.500000,0.750000,0.000000,0.750000,0.000000,0.744911,0.000000,0.744911,
$1*%
G04 Aperture macros list end*
%ADD10R,1.600000X1.600000*%
%ADD11C,1.600000*%
%ADD12O,2.000000X1.100000*%
%ADD13O,1.800000X1.200000*%
%ADD14C,1.350000*%
%ADD15O,1.900000X1.200000*%
%ADD16R,0.540000X0.570000*%
%ADD17R,0.540000X0.790000*%
%ADD18R,0.400000X0.510000*%
%ADD19FreePoly0,180.000000*%
%ADD20FreePoly1,180.000000*%
G04 APERTURE END LIST*
D10*
X65074800Y-89052400D03*
D11*
X67614800Y-89052400D03*
X70154800Y-89052400D03*
X72694800Y-89052400D03*
X75234800Y-89052400D03*
X77774800Y-89052400D03*
X80314800Y-89052400D03*
X82854800Y-89052400D03*
X85394800Y-89052400D03*
X87934800Y-89052400D03*
X90474800Y-89052400D03*
X93014800Y-89052400D03*
X95554800Y-89052400D03*
X98094800Y-89052400D03*
X100634800Y-89052400D03*
X103174800Y-89052400D03*
X105714800Y-89052400D03*
D10*
X65074800Y-109372400D03*
D11*
X67614800Y-109372400D03*
X70154800Y-109372400D03*
X72694800Y-109372400D03*
X75234800Y-109372400D03*
X77774800Y-109372400D03*
X80314800Y-109372400D03*
X82854800Y-109372400D03*
X85394800Y-109372400D03*
X87934800Y-109372400D03*
X90474800Y-109372400D03*
X93014800Y-109372400D03*
X95554800Y-109372400D03*
X98094800Y-109372400D03*
X100634800Y-109372400D03*
X103174800Y-109372400D03*
X105714800Y-109372400D03*
D12*
X69597200Y-94841600D03*
D13*
X65387200Y-94841600D03*
D12*
X69597200Y-103481600D03*
D13*
X65387200Y-103481600D03*
D14*
X67527000Y-123357000D03*
X67527000Y-128357000D03*
D15*
X64827000Y-129357000D03*
X64827000Y-122357000D03*
D10*
X65024000Y-115697000D03*
D11*
X67564000Y-115697000D03*
X70104000Y-115697000D03*
X72644000Y-115697000D03*
X75184000Y-115697000D03*
X77724000Y-115697000D03*
X80264000Y-115697000D03*
X82804000Y-115697000D03*
X85344000Y-115697000D03*
X87884000Y-115697000D03*
X90424000Y-115697000D03*
X92964000Y-115697000D03*
X95504000Y-115697000D03*
X98044000Y-115697000D03*
X100584000Y-115697000D03*
X103124000Y-115697000D03*
X105664000Y-115697000D03*
D16*
X77851000Y-128114000D03*
X77851000Y-127254000D03*
D17*
X76454000Y-127134000D03*
X76454000Y-128234000D03*
D18*
X72398000Y-123478000D03*
X73398000Y-123478000D03*
X72898000Y-124778000D03*
D10*
X65024000Y-136017000D03*
D11*
X67564000Y-136017000D03*
X70104000Y-136017000D03*
X72644000Y-136017000D03*
X75184000Y-136017000D03*
X77724000Y-136017000D03*
X80264000Y-136017000D03*
X82804000Y-136017000D03*
X85344000Y-136017000D03*
X87884000Y-136017000D03*
X90424000Y-136017000D03*
X92964000Y-136017000D03*
X95504000Y-136017000D03*
X98044000Y-136017000D03*
X100584000Y-136017000D03*
X103124000Y-136017000D03*
X105664000Y-136017000D03*
D16*
X75057000Y-128114000D03*
X75057000Y-127254000D03*
D19*
X70754000Y-131318000D03*
D20*
X69454000Y-131318000D03*
D18*
X73398000Y-127318000D03*
X72398000Y-127318000D03*
X72898000Y-126018000D03*
M02*
