G04 #@! TF.GenerationSoftware,KiCad,Pcbnew,7.0.9*
G04 #@! TF.CreationDate,2024-10-07T22:18:26-04:00*
G04 #@! TF.ProjectId,ESP32_VP,45535033-325f-4565-902e-6b696361645f,rev?*
G04 #@! TF.SameCoordinates,Original*
G04 #@! TF.FileFunction,Soldermask,Top*
G04 #@! TF.FilePolarity,Negative*
%FSLAX46Y46*%
G04 Gerber Fmt 4.6, Leading zero omitted, Abs format (unit mm)*
G04 Created by KiCad (PCBNEW 7.0.9) date 2024-10-07 22:18:26*
%MOMM*%
%LPD*%
G01*
G04 APERTURE LIST*
G04 Aperture macros list*
%AMRotRect*
0 Rectangle, with rotation*
0 The origin of the aperture is its center*
0 $1 length*
0 $2 width*
0 $3 Rotation angle, in degrees counterclockwise*
0 Add horizontal line*
21,1,$1,$2,0,0,$3*%
G04 Aperture macros list end*
%ADD10R,0.639600X0.965200*%
%ADD11R,0.639600X1.016000*%
%ADD12R,0.705600X1.015400*%
%ADD13R,0.540000X0.570000*%
%ADD14R,1.900000X1.300000*%
%ADD15R,0.540000X0.790000*%
%ADD16R,0.790000X0.540000*%
%ADD17R,1.000000X1.400000*%
%ADD18RotRect,0.300000X1.000000X135.000000*%
%ADD19RotRect,0.300000X1.000000X45.000000*%
%ADD20RotRect,2.150000X2.150000X45.000000*%
%ADD21R,1.600000X1.600000*%
%ADD22C,1.600000*%
%ADD23R,0.950000X2.100000*%
%ADD24R,2.100000X0.950000*%
%ADD25R,0.900000X0.900000*%
%ADD26R,0.570000X0.540000*%
%ADD27R,0.400000X0.600000*%
%ADD28R,0.980000X2.470000*%
%ADD29R,3.600000X2.470000*%
%ADD30R,1.410000X1.350000*%
%ADD31R,0.740000X2.100000*%
%ADD32R,1.100000X0.550000*%
%ADD33R,1.100000X0.300000*%
%ADD34O,2.000000X1.100000*%
%ADD35O,1.800000X1.200000*%
%ADD36R,0.910000X0.280000*%
%ADD37R,0.280000X0.910000*%
%ADD38R,3.350000X3.350000*%
%ADD39R,1.300000X0.400000*%
%ADD40C,1.350000*%
%ADD41O,1.900000X1.200000*%
%ADD42R,1.900000X1.500000*%
G04 APERTURE END LIST*
D10*
X93324200Y-104648000D03*
D11*
X91363800Y-104673400D03*
D12*
X92346800Y-106908300D03*
D13*
X94003600Y-96877400D03*
X94003600Y-97737400D03*
D14*
X83295600Y-104993000D03*
X74895600Y-104993000D03*
X83295600Y-100493000D03*
X74895600Y-100493000D03*
D15*
X70942200Y-91906000D03*
X70942200Y-93006000D03*
D16*
X68461800Y-107086400D03*
X69561800Y-107086400D03*
D13*
X89636600Y-105198000D03*
X89636600Y-106058000D03*
D16*
X92320200Y-93472000D03*
X91220200Y-93472000D03*
D13*
X98247200Y-106021400D03*
X98247200Y-106881400D03*
X97078800Y-106021400D03*
X97078800Y-106881400D03*
X104190800Y-101166400D03*
X104190800Y-100306400D03*
X93243400Y-101217200D03*
X93243400Y-100357200D03*
D17*
X106002800Y-93751400D03*
X103902800Y-93751400D03*
D15*
X102920800Y-97428400D03*
X102920800Y-98528400D03*
D18*
X87837198Y-98683093D03*
X88190751Y-99036646D03*
X88544304Y-99390200D03*
X88897858Y-99743753D03*
X89251411Y-100097306D03*
D19*
X90453493Y-100097306D03*
X90807046Y-99743753D03*
X91160600Y-99390200D03*
X91514153Y-99036646D03*
X91867706Y-98683093D03*
D18*
X91867706Y-97481011D03*
X91514153Y-97127458D03*
X91160600Y-96773904D03*
X90807046Y-96420351D03*
X90453493Y-96066798D03*
D19*
X89251411Y-96066798D03*
X88897858Y-96420351D03*
X88544304Y-96773904D03*
X88190751Y-97127458D03*
X87837198Y-97481011D03*
D20*
X89852452Y-98082052D03*
D16*
X100803800Y-94386400D03*
X99703800Y-94386400D03*
D15*
X95247400Y-105043800D03*
X95247400Y-106143800D03*
D13*
X72567800Y-102643200D03*
X72567800Y-103503200D03*
D16*
X88705600Y-93472000D03*
X89805600Y-93472000D03*
D13*
X92075000Y-101242600D03*
X92075000Y-100382600D03*
D17*
X106079000Y-104597200D03*
X103979000Y-104597200D03*
D13*
X73075800Y-94693000D03*
X73075800Y-95553000D03*
D15*
X108127800Y-96842400D03*
X108127800Y-97942400D03*
D21*
X65074800Y-89052400D03*
D22*
X67614800Y-89052400D03*
X70154800Y-89052400D03*
X72694800Y-89052400D03*
X75234800Y-89052400D03*
X77774800Y-89052400D03*
X80314800Y-89052400D03*
X82854800Y-89052400D03*
X85394800Y-89052400D03*
X87934800Y-89052400D03*
X90474800Y-89052400D03*
X93014800Y-89052400D03*
X95554800Y-89052400D03*
X98094800Y-89052400D03*
X100634800Y-89052400D03*
X103174800Y-89052400D03*
X105714800Y-89052400D03*
D23*
X128574800Y-90229400D03*
X127304800Y-90229400D03*
X126034800Y-90229400D03*
X124764800Y-90229400D03*
X123494800Y-90229400D03*
X122224800Y-90229400D03*
X120954800Y-90229400D03*
X119684800Y-90229400D03*
X118414800Y-90229400D03*
X117144800Y-90229400D03*
X115874800Y-90229400D03*
X114604800Y-90229400D03*
X113334800Y-90229400D03*
X112064800Y-90229400D03*
D24*
X110574800Y-93519400D03*
X110574800Y-94789400D03*
X110574800Y-96059400D03*
X110574800Y-97329400D03*
X110574800Y-98599400D03*
X110574800Y-99869400D03*
X110574800Y-101139400D03*
X110574800Y-102409400D03*
X110574800Y-103679400D03*
X110574800Y-104949400D03*
D23*
X112064800Y-108229400D03*
X113334800Y-108229400D03*
X114604800Y-108229400D03*
X115874800Y-108229400D03*
X117144800Y-108229400D03*
X118414800Y-108229400D03*
X119684800Y-108229400D03*
X120954800Y-108229400D03*
X122224800Y-108229400D03*
X123494800Y-108229400D03*
X124764800Y-108229400D03*
X126034800Y-108229400D03*
X127304800Y-108229400D03*
X128574800Y-108229400D03*
D25*
X122294800Y-99129400D03*
X122294800Y-97729400D03*
X122294800Y-96329400D03*
X120894800Y-99129400D03*
X120894800Y-97729400D03*
X120894800Y-96329400D03*
X119494800Y-99129400D03*
X119494800Y-97729400D03*
X119494800Y-96329400D03*
D21*
X65074800Y-109372400D03*
D22*
X67614800Y-109372400D03*
X70154800Y-109372400D03*
X72694800Y-109372400D03*
X75234800Y-109372400D03*
X77774800Y-109372400D03*
X80314800Y-109372400D03*
X82854800Y-109372400D03*
X85394800Y-109372400D03*
X87934800Y-109372400D03*
X90474800Y-109372400D03*
X93014800Y-109372400D03*
X95554800Y-109372400D03*
X98094800Y-109372400D03*
X100634800Y-109372400D03*
X103174800Y-109372400D03*
X105714800Y-109372400D03*
D10*
X87949800Y-104749600D03*
D11*
X85989400Y-104775000D03*
D12*
X86972400Y-107009900D03*
D15*
X85521800Y-99521400D03*
X85521800Y-98421400D03*
D26*
X77774800Y-107340400D03*
X78634800Y-107340400D03*
X95423400Y-103138800D03*
X94563400Y-103138800D03*
X75390800Y-107340400D03*
X76250800Y-107340400D03*
D27*
X72466200Y-101537200D03*
X72466200Y-100037200D03*
D16*
X65032800Y-91338400D03*
X66132800Y-91338400D03*
D14*
X74930000Y-93340800D03*
X83330000Y-93340800D03*
X74930000Y-97840800D03*
X83330000Y-97840800D03*
D15*
X108000800Y-93412400D03*
X108000800Y-92312400D03*
D27*
X72110600Y-91426600D03*
X72110600Y-92926600D03*
D15*
X85521800Y-95881400D03*
X85521800Y-96981400D03*
D26*
X92404400Y-103138800D03*
X93264400Y-103138800D03*
D16*
X65032800Y-107086400D03*
X66132800Y-107086400D03*
D28*
X101029800Y-97779400D03*
X98729800Y-97779400D03*
X96429800Y-97779400D03*
D29*
X98729800Y-103439400D03*
D30*
X105857800Y-100736400D03*
X107857800Y-100736400D03*
D31*
X95173800Y-91667400D03*
X96443800Y-94767400D03*
X97713800Y-91667400D03*
D27*
X72466200Y-96989200D03*
X72466200Y-98489200D03*
D13*
X104317800Y-97512400D03*
X104317800Y-98372400D03*
D32*
X70147200Y-95961600D03*
X70147200Y-96761600D03*
D33*
X70147200Y-97411600D03*
X70147200Y-97911600D03*
X70147200Y-98411600D03*
X70147200Y-98911600D03*
X70147200Y-99411600D03*
X70147200Y-99911600D03*
X70147200Y-100411600D03*
X70147200Y-100911600D03*
D32*
X70147200Y-101561600D03*
X70147200Y-102361600D03*
D34*
X69597200Y-94841600D03*
D35*
X65387200Y-94841600D03*
D34*
X69597200Y-103481600D03*
D35*
X65387200Y-103481600D03*
D26*
X92456000Y-121031000D03*
X93316000Y-121031000D03*
D36*
X91026000Y-127304800D03*
X91026000Y-126804800D03*
X91026000Y-126304800D03*
X91026000Y-125804800D03*
X91026000Y-125304800D03*
X91026000Y-124804800D03*
X91026000Y-124304800D03*
D37*
X90146000Y-123424800D03*
X89646000Y-123424800D03*
X89146000Y-123424800D03*
X88646000Y-123424800D03*
X88146000Y-123424800D03*
X87646000Y-123424800D03*
X87146000Y-123424800D03*
D36*
X86266000Y-124304800D03*
X86266000Y-124804800D03*
X86266000Y-125304800D03*
X86266000Y-125804800D03*
X86266000Y-126304800D03*
X86266000Y-126804800D03*
X86266000Y-127304800D03*
D37*
X87146000Y-128184800D03*
X87646000Y-128184800D03*
X88146000Y-128184800D03*
X88646000Y-128184800D03*
X89146000Y-128184800D03*
X89646000Y-128184800D03*
X90146000Y-128184800D03*
D38*
X88646000Y-125804800D03*
D27*
X70866000Y-127611000D03*
X70866000Y-126111000D03*
D14*
X74320400Y-120010800D03*
X82720400Y-120010800D03*
X74320400Y-124510800D03*
X82720400Y-124510800D03*
D26*
X86361800Y-121031000D03*
X87221800Y-121031000D03*
D31*
X95123000Y-118312000D03*
X96393000Y-121412000D03*
X97663000Y-118312000D03*
D26*
X92353600Y-129783400D03*
X93213600Y-129783400D03*
D15*
X107950000Y-120057000D03*
X107950000Y-118957000D03*
D16*
X64982000Y-133731000D03*
X66082000Y-133731000D03*
D13*
X104267000Y-124157000D03*
X104267000Y-125017000D03*
X98196400Y-132666000D03*
X98196400Y-133526000D03*
D10*
X87540800Y-131434400D03*
D11*
X85580400Y-131459800D03*
D12*
X86563400Y-133694700D03*
D26*
X95372600Y-129783400D03*
X94512600Y-129783400D03*
D16*
X68411000Y-133731000D03*
X69511000Y-133731000D03*
D26*
X75340000Y-133985000D03*
X76200000Y-133985000D03*
D13*
X104140000Y-127811000D03*
X104140000Y-126951000D03*
D27*
X70358000Y-120493000D03*
X70358000Y-121993000D03*
D15*
X102870000Y-124073000D03*
X102870000Y-125173000D03*
D17*
X106028200Y-131241800D03*
X103928200Y-131241800D03*
D14*
X82686000Y-131663000D03*
X74286000Y-131663000D03*
X82686000Y-127163000D03*
X74286000Y-127163000D03*
D30*
X105807000Y-127381000D03*
X107807000Y-127381000D03*
D15*
X95196600Y-131688400D03*
X95196600Y-132788400D03*
D26*
X88392000Y-121031000D03*
X89252000Y-121031000D03*
D28*
X100979000Y-124424000D03*
X98679000Y-124424000D03*
X96379000Y-124424000D03*
D29*
X98679000Y-130084000D03*
D15*
X71628000Y-120693000D03*
X71628000Y-121793000D03*
D26*
X90424000Y-121031000D03*
X91284000Y-121031000D03*
D13*
X89405400Y-131842600D03*
X89405400Y-132702600D03*
D39*
X67507000Y-124557000D03*
X67507000Y-125207000D03*
X67507000Y-125857000D03*
X67507000Y-126507000D03*
X67507000Y-127157000D03*
D40*
X67527000Y-123357000D03*
X67527000Y-128357000D03*
D41*
X64827000Y-129357000D03*
X64827000Y-122357000D03*
D42*
X64897000Y-124857000D03*
X64897000Y-126857000D03*
D16*
X64982000Y-117983000D03*
X66082000Y-117983000D03*
X100753000Y-121031000D03*
X99653000Y-121031000D03*
D13*
X97028000Y-132666000D03*
X97028000Y-133526000D03*
D27*
X70866000Y-123468000D03*
X70866000Y-124968000D03*
D10*
X93273400Y-131292600D03*
D11*
X91313000Y-131318000D03*
D12*
X92296000Y-133552900D03*
D17*
X105952000Y-120396000D03*
X103852000Y-120396000D03*
D23*
X128524000Y-116874000D03*
X127254000Y-116874000D03*
X125984000Y-116874000D03*
X124714000Y-116874000D03*
X123444000Y-116874000D03*
X122174000Y-116874000D03*
X120904000Y-116874000D03*
X119634000Y-116874000D03*
X118364000Y-116874000D03*
X117094000Y-116874000D03*
X115824000Y-116874000D03*
X114554000Y-116874000D03*
X113284000Y-116874000D03*
X112014000Y-116874000D03*
D24*
X110524000Y-120164000D03*
X110524000Y-121434000D03*
X110524000Y-122704000D03*
X110524000Y-123974000D03*
X110524000Y-125244000D03*
X110524000Y-126514000D03*
X110524000Y-127784000D03*
X110524000Y-129054000D03*
X110524000Y-130324000D03*
X110524000Y-131594000D03*
D23*
X112014000Y-134874000D03*
X113284000Y-134874000D03*
X114554000Y-134874000D03*
X115824000Y-134874000D03*
X117094000Y-134874000D03*
X118364000Y-134874000D03*
X119634000Y-134874000D03*
X120904000Y-134874000D03*
X122174000Y-134874000D03*
X123444000Y-134874000D03*
X124714000Y-134874000D03*
X125984000Y-134874000D03*
X127254000Y-134874000D03*
X128524000Y-134874000D03*
D25*
X122244000Y-125774000D03*
X122244000Y-124374000D03*
X122244000Y-122974000D03*
X120844000Y-125774000D03*
X120844000Y-124374000D03*
X120844000Y-122974000D03*
X119444000Y-125774000D03*
X119444000Y-124374000D03*
X119444000Y-122974000D03*
D26*
X77724000Y-133985000D03*
X78584000Y-133985000D03*
D15*
X93590200Y-124900600D03*
X93590200Y-126000600D03*
D16*
X93548200Y-123037600D03*
X94648200Y-123037600D03*
D15*
X108077000Y-123487000D03*
X108077000Y-124587000D03*
D21*
X65024000Y-115697000D03*
D22*
X67564000Y-115697000D03*
X70104000Y-115697000D03*
X72644000Y-115697000D03*
X75184000Y-115697000D03*
X77724000Y-115697000D03*
X80264000Y-115697000D03*
X82804000Y-115697000D03*
X85344000Y-115697000D03*
X87884000Y-115697000D03*
X90424000Y-115697000D03*
X92964000Y-115697000D03*
X95504000Y-115697000D03*
X98044000Y-115697000D03*
X100584000Y-115697000D03*
X103124000Y-115697000D03*
X105664000Y-115697000D03*
D21*
X65024000Y-136017000D03*
D22*
X67564000Y-136017000D03*
X70104000Y-136017000D03*
X72644000Y-136017000D03*
X75184000Y-136017000D03*
X77724000Y-136017000D03*
X80264000Y-136017000D03*
X82804000Y-136017000D03*
X85344000Y-136017000D03*
X87884000Y-136017000D03*
X90424000Y-136017000D03*
X92964000Y-136017000D03*
X95504000Y-136017000D03*
X98044000Y-136017000D03*
X100584000Y-136017000D03*
X103124000Y-136017000D03*
X105664000Y-136017000D03*
M02*
